<svg xmlns="http://www.w3.org/2000/svg" xmlns:xlink="http://www.w3.org/1999/xlink" width="176" height="176" viewBox="0 0 176 176">
  <defs>
    <clipPath id="clip-path">
      <rect x="725" width="88" height="176" fill="none"/>
    </clipPath>
    <clipPath id="clip-path-2">
      <rect width="88" height="176" fill="none"/>
    </clipPath>
  </defs>
  <g id="Grupo_258" data-name="Grupo 258" transform="translate(3255 1103)">
    <g id="Grupo_de_rolagem_7" data-name="Grupo de rolagem 7" transform="translate(-3892 -1103)" clip-path="url(#clip-path)" style="isolation: isolate">
      <g id="Grupo_256" data-name="Grupo 256" transform="translate(-1347 -1397)">
        <g id="Grupo_90" data-name="Grupo 90" transform="translate(915 1013)">
          <rect id="Retângulo_668" data-name="Retângulo 668" width="16" height="16" transform="translate(1197 400)"/>
          <rect id="Retângulo_685" data-name="Retângulo 685" width="16" height="16" transform="translate(464 400)"/>
          <rect id="Retângulo_686" data-name="Retângulo 686" width="16" height="16" transform="translate(464 528)"/>
          <rect id="Retângulo_677" data-name="Retângulo 677" width="717" height="16" transform="translate(480 384)"/>
          <rect id="Retângulo_688" data-name="Retângulo 688" width="717" height="16" transform="translate(480 544)"/>
          <rect id="Retângulo_669" data-name="Retângulo 669" width="16" height="16" transform="translate(1213 416)"/>
          <rect id="Retângulo_683" data-name="Retângulo 683" width="16" height="16" transform="translate(448 416)"/>
          <rect id="Retângulo_670" data-name="Retângulo 670" width="16" height="16" transform="translate(1213 432)"/>
          <rect id="Retângulo_680" data-name="Retângulo 680" width="16" height="16" transform="translate(448 432)"/>
          <rect id="Retângulo_671" data-name="Retângulo 671" width="16" height="16" transform="translate(1229 448)"/>
          <rect id="Retângulo_681" data-name="Retângulo 681" width="16" height="16" transform="translate(432 448)"/>
          <rect id="Retângulo_672" data-name="Retângulo 672" width="16" height="16" transform="translate(1229 464)"/>
          <rect id="Retângulo_678" data-name="Retângulo 678" width="16" height="16" transform="translate(432 464)"/>
          <rect id="Retângulo_673" data-name="Retângulo 673" width="16" height="16" transform="translate(1229 480)"/>
          <rect id="Retângulo_679" data-name="Retângulo 679" width="16" height="16" transform="translate(432 480)"/>
          <rect id="Retângulo_674" data-name="Retângulo 674" width="16" height="16" transform="translate(1213 496)"/>
          <rect id="Retângulo_682" data-name="Retângulo 682" width="16" height="16" transform="translate(448 496)"/>
          <rect id="Retângulo_675" data-name="Retângulo 675" width="16" height="16" transform="translate(1213 512)"/>
          <rect id="Retângulo_687" data-name="Retângulo 687" width="16" height="16" transform="translate(1197 528)"/>
          <rect id="Retângulo_684" data-name="Retângulo 684" width="16" height="16" transform="translate(448 512)"/>
        </g>
        <path id="Caminho_1026" data-name="Caminho 1026" d="M7249,3240v16h-16v32h-16v48h16v32h16v16s716.855.027,717.019,0,0-16,0-16h16.01v-32H7998v-48h-15.97v-32H7965.9v-16Z" transform="translate(-5854 -1827)" fill="#f0eb37"/>
        <path id="Caminho_1027" data-name="Caminho 1027" d="M7985,3336v-48h-16v-16h-16v-16h-48v16h16v16h16v16h16v32Z" transform="translate(-5854 -1827)" fill="#fff"/>
        <g id="Grupo_91" data-name="Grupo 91" transform="translate(-237 909)">
          <rect id="Retângulo_689" data-name="Retângulo 689" width="16" height="48" transform="translate(1600 552)" fill="#d1c828"/>
          <rect id="Retângulo_690" data-name="Retângulo 690" width="16" height="32" transform="translate(1616 600)" fill="#d1c828"/>
          <rect id="Retângulo_691" data-name="Retângulo 691" width="16" height="16" transform="translate(1632 632)" fill="#d1c828"/>
        </g>
      </g>
    </g>
    <g id="Grupo_de_rolagem_6" data-name="Grupo de rolagem 6" transform="translate(-3255 -1103)" clip-path="url(#clip-path-2)" style="isolation: isolate">
      <g id="Grupo_257" data-name="Grupo 257" transform="translate(-1347 -1397)">
        <g id="Grupo_90-2" data-name="Grupo 90" transform="translate(915 1013)">
          <rect id="Retângulo_668-2" data-name="Retângulo 668" width="16" height="16" transform="translate(1197 400)"/>
          <rect id="Retângulo_685-2" data-name="Retângulo 685" width="16" height="16" transform="translate(464 400)"/>
          <rect id="Retângulo_686-2" data-name="Retângulo 686" width="16" height="16" transform="translate(464 528)"/>
          <rect id="Retângulo_677-2" data-name="Retângulo 677" width="717" height="16" transform="translate(480 384)"/>
          <rect id="Retângulo_688-2" data-name="Retângulo 688" width="717" height="16" transform="translate(480 544)"/>
          <rect id="Retângulo_669-2" data-name="Retângulo 669" width="16" height="16" transform="translate(1213 416)"/>
          <rect id="Retângulo_683-2" data-name="Retângulo 683" width="16" height="16" transform="translate(448 416)"/>
          <rect id="Retângulo_670-2" data-name="Retângulo 670" width="16" height="16" transform="translate(1213 432)"/>
          <rect id="Retângulo_680-2" data-name="Retângulo 680" width="16" height="16" transform="translate(448 432)"/>
          <rect id="Retângulo_671-2" data-name="Retângulo 671" width="16" height="16" transform="translate(1229 448)"/>
          <rect id="Retângulo_681-2" data-name="Retângulo 681" width="16" height="16" transform="translate(432 448)"/>
          <rect id="Retângulo_672-2" data-name="Retângulo 672" width="16" height="16" transform="translate(1229 464)"/>
          <rect id="Retângulo_678-2" data-name="Retângulo 678" width="16" height="16" transform="translate(432 464)"/>
          <rect id="Retângulo_673-2" data-name="Retângulo 673" width="16" height="16" transform="translate(1229 480)"/>
          <rect id="Retângulo_679-2" data-name="Retângulo 679" width="16" height="16" transform="translate(432 480)"/>
          <rect id="Retângulo_674-2" data-name="Retângulo 674" width="16" height="16" transform="translate(1213 496)"/>
          <rect id="Retângulo_682-2" data-name="Retângulo 682" width="16" height="16" transform="translate(448 496)"/>
          <rect id="Retângulo_675-2" data-name="Retângulo 675" width="16" height="16" transform="translate(1213 512)"/>
          <rect id="Retângulo_687-2" data-name="Retângulo 687" width="16" height="16" transform="translate(1197 528)"/>
          <rect id="Retângulo_684-2" data-name="Retângulo 684" width="16" height="16" transform="translate(448 512)"/>
        </g>
        <path id="Caminho_1026-2" data-name="Caminho 1026" d="M7249,3240v16h-16v32h-16v48h16v32h16v16s716.855.027,717.019,0,0-16,0-16h16.01v-32H7998v-48h-15.97v-32H7965.9v-16Z" transform="translate(-5854 -1827)" fill="#f0eb37"/>
        <path id="Caminho_1027-2" data-name="Caminho 1027" d="M7985,3336v-48h-16v-16h-16v-16h-48v16h16v16h16v16h16v32Z" transform="translate(-5854 -1827)" fill="#fff"/>
        <g id="Grupo_91-2" data-name="Grupo 91" transform="translate(-237 909)">
          <rect id="Retângulo_689-2" data-name="Retângulo 689" width="16" height="48" transform="translate(1600 552)" fill="#d1c828"/>
          <rect id="Retângulo_690-2" data-name="Retângulo 690" width="16" height="32" transform="translate(1616 600)" fill="#d1c828"/>
          <rect id="Retângulo_691-2" data-name="Retângulo 691" width="16" height="16" transform="translate(1632 632)" fill="#d1c828"/>
        </g>
      </g>
    </g>
  </g>
</svg>
