<svg xmlns="http://www.w3.org/2000/svg" xmlns:xlink="http://www.w3.org/1999/xlink" width="176" height="176" viewBox="0 0 176 176">
  <defs>
    <clipPath id="clip-path">
      <rect x="211" width="176" height="176" fill="none"/>
    </clipPath>
  </defs>
  <g id="Grupo_de_rolagem_1" data-name="Grupo de rolagem 1" transform="translate(-211)" clip-path="url(#clip-path)" style="isolation: isolate">
    <g id="Grupo_249" data-name="Grupo 249" transform="translate(-1347 -1208)">
      <g id="Grupo_92" data-name="Grupo 92" transform="translate(915 824)">
        <rect id="Retângulo_668" data-name="Retângulo 668" width="16" height="16" transform="translate(1197 400)"/>
        <rect id="Retângulo_685" data-name="Retângulo 685" width="16" height="16" transform="translate(464 400)"/>
        <rect id="Retângulo_686" data-name="Retângulo 686" width="16" height="16" transform="translate(464 528)"/>
        <rect id="Retângulo_677" data-name="Retângulo 677" width="717" height="16" transform="translate(480 384)"/>
        <rect id="Retângulo_688" data-name="Retângulo 688" width="717" height="16" transform="translate(480 544)"/>
        <rect id="Retângulo_669" data-name="Retângulo 669" width="16" height="16" transform="translate(1213 416)"/>
        <rect id="Retângulo_683" data-name="Retângulo 683" width="16" height="16" transform="translate(448 416)"/>
        <rect id="Retângulo_670" data-name="Retângulo 670" width="16" height="16" transform="translate(1213 432)"/>
        <rect id="Retângulo_680" data-name="Retângulo 680" width="16" height="16" transform="translate(448 432)"/>
        <rect id="Retângulo_671" data-name="Retângulo 671" width="16" height="16" transform="translate(1229 448)"/>
        <rect id="Retângulo_681" data-name="Retângulo 681" width="16" height="16" transform="translate(432 448)"/>
        <rect id="Retângulo_672" data-name="Retângulo 672" width="16" height="16" transform="translate(1229 464)"/>
        <rect id="Retângulo_678" data-name="Retângulo 678" width="16" height="16" transform="translate(432 464)"/>
        <rect id="Retângulo_673" data-name="Retângulo 673" width="16" height="16" transform="translate(1229 480)"/>
        <rect id="Retângulo_679" data-name="Retângulo 679" width="16" height="16" transform="translate(432 480)"/>
        <rect id="Retângulo_674" data-name="Retângulo 674" width="16" height="16" transform="translate(1213 496)"/>
        <rect id="Retângulo_682" data-name="Retângulo 682" width="16" height="16" transform="translate(448 496)"/>
        <rect id="Retângulo_675" data-name="Retângulo 675" width="16" height="16" transform="translate(1213 512)"/>
        <rect id="Retângulo_687" data-name="Retângulo 687" width="16" height="16" transform="translate(1197 528)"/>
        <rect id="Retângulo_684" data-name="Retângulo 684" width="16" height="16" transform="translate(448 512)"/>
      </g>
      <path id="Caminho_1028" data-name="Caminho 1028" d="M7249,3240v16h-16v32h-16v48h16v32h16v16s716.855.027,717.019,0,0-16,0-16h16.01v-32H7998v-48h-15.97v-32H7965.9v-16Z" transform="translate(-5854 -2016)" fill="#07a424"/>
      <g id="Grupo_93" data-name="Grupo 93" transform="translate(-237 720)">
        <rect id="Retângulo_689" data-name="Retângulo 689" width="16" height="48" transform="translate(1600 552)" fill="#00651e"/>
        <rect id="Retângulo_690" data-name="Retângulo 690" width="16" height="32" transform="translate(1616 600)" fill="#00651e"/>
        <rect id="Retângulo_691" data-name="Retângulo 691" width="16" height="16" transform="translate(1632 632)" fill="#00651e"/>
      </g>
    </g>
  </g>
</svg>
