<svg xmlns="http://www.w3.org/2000/svg" width="1153" height="223.367" viewBox="0 0 1153 223.367">
  <g id="Grupo_228" data-name="Grupo 228" transform="translate(-110.721 -468.046)">
    <g id="Grupo_210" data-name="Grupo 210" transform="translate(110.721 468.046)">
      <path id="Caminho_2194" data-name="Caminho 2194" d="M155.705,567.674h31.138c-2.387,10.586,4.149,16.346,15.36,16.346,7.184,0,17.152-3.731,18.73-11.211,3.246-15.256-20.492-11.987-42.657-22.728-10.3-4.978-13.7-15.256-11.134-27.4,6.9-26.622,31.813-33.939,55.319-33.939,23.2,0,45.257,8.25,37.646,35.342H228.976c1.066-4.356.361-7.634-1.946-9.962-2.15-2.342-5.943-3.586-11.238-3.586-7.154,0-14.368,4.673-15.567,10.27-1.741,8.256,7.655,10.9,15.443,13.083,17.818,4.827,44.807,6.692,38.372,37.051-5.031,23.66-30.77,34.9-56.767,34.9-26.157,0-47.59-7.655-41.567-38.171Zm132.741-76.593-23.9,112.4h85.625l4.643-21.789h-54.49l5.061-23.82h50.128l4.62-21.795H310.008l4.928-23.2h54.49l3.062-14.4,1.572-7.391H288.447Zm94.935,31.6c6.9-26.622,31.807-33.939,55.31-33.939,23.2,0,45.257,8.25,37.649,35.342H445.21c1.066-4.356.358-7.634-1.948-9.962-2.15-2.342-5.943-3.586-11.232-3.586-7.16,0-14.371,4.673-15.57,10.27-1.732,8.256,7.655,10.9,15.44,13.083,17.821,4.827,44.807,6.692,38.372,37.051-5.028,23.66-30.77,34.9-56.764,34.9-19.254,0-35.953-4.152-41.019-18.511-1.812-5.15-2.135-11.608-.551-19.66h31.138c-2.387,10.586,4.152,16.346,15.363,16.346,7.181,0,17.149-3.731,18.727-11.211,3.249-15.256-20.492-11.987-42.654-22.728-10.3-4.978-13.7-15.256-11.128-27.4Zm120.982-31.6-23.888,112.4h31.132l23.894-112.4Zm-393.643.015h31.828v4.158H110.721v22.4h31.828v4.175H110.721v23.1h31.828V549.1H110.721v23.486h31.828v4.158H110.721v22.482h31.828v4.166H110.721v22.837H579.245V603.39H547.438v-4.166h31.807V576.742H547.438v-4.158h31.807V549.1H547.438v-4.167h31.807v-23.1H547.438v-4.175h31.807v-22.4H547.438V491.1h31.807v-23.05H110.721Z" transform="translate(-110.721 -468.046)" fill="#fff" fill-rule="evenodd"/>
      <g id="Grupo_209" data-name="Grupo 209" transform="translate(535.339 0.006)">
        <path id="Caminho_2195" data-name="Caminho 2195" d="M463.539,483.236l-10.165,18.842-15.021,27.839h30.036l-4.379-46.681Z" transform="translate(-3.491 -438.261)" fill="#fff" fill-rule="evenodd"/>
        <path id="Caminho_2196" data-name="Caminho 2196" d="M291.5,468.048V491.1h33.166v4.157H291.5v22.4h33.166v4.169H291.5v23.11h33.166V549.1H291.5v23.477h33.166v4.164H291.5v22.488h33.166v4.164H291.5v22.837H909.163V468.048Zm150.583,56.018H410.962c1.057-4.356.37-7.619-1.937-9.953-2.162-2.336-5.952-3.577-11.232-3.577-7.154,0-14.368,4.67-15.558,10.261-1.741,8.25,7.646,10.895,15.434,13.074,17.8,4.836,44.777,6.692,38.342,37.03-5.031,23.652-30.747,34.878-56.729,34.878-26.145,0-47.57-7.649-41.555-38.147h31.126c-2.39,10.578,4.149,16.343,15.351,16.343,7.184,0,17.137-3.737,18.715-11.2,3.248-15.247-20.477-11.987-42.618-22.719-10.3-4.981-13.7-15.25-11.128-27.386,6.891-26.6,31.792-33.912,55.284-33.912C427.637,488.756,449.68,497,442.085,524.066Zm95.346,33.767h-50.1l-5.052,23.8h54.451l-4.634,21.786H446.518L470.4,491.084h85.568l-3.145,14.786-1.5,6.995h-54.46l-4.922,23.19h50.1Zm78.675,45.586L596.277,517.38h-.317l-18.274,86.039h-28.01l3.151-14.809,20.732-97.526h43.557L636.989,574.8l.358-.317,17.738-83.395H683.1L676.9,520.172,659.21,603.419Zm146.1,0-2.8-21.94H713.815l-11.981,21.94H670.726l6.177-10.181,62.041-102.154h37.969L797.37,603.419Zm78.106,0H809.191l23.885-112.335h31.117Zm68.84-.03H875.982v-4.164h33.172Zm0-26.651H875.982v-4.164h33.172Zm0-27.64H875.982v-4.164h33.172Zm0-27.267H875.982v-4.169h33.172Zm0-26.574H875.982v-4.164h33.172Z" transform="translate(-291.502 -468.048)" fill="#fff" fill-rule="evenodd"/>
      </g>
    </g>
    <g id="Grupo_211" data-name="Grupo 211" transform="translate(311.334 655.704)">
      <path id="Caminho_2197" data-name="Caminho 2197" d="M178.467,531.661h16.1a20.433,20.433,0,0,1,7.652,1.226,8.788,8.788,0,0,1,4.439,3.648,12.17,12.17,0,0,1,1.492,6.059,12.041,12.041,0,0,1-1.158,5.576,8.434,8.434,0,0,1-3.109,3.414,12.8,12.8,0,0,1-4.282,1.641,27.387,27.387,0,0,1-5.034.441h-6.589v12.218h-9.512Zm9.512,6.681v8.7h4.646a6.183,6.183,0,0,0,4.134-1.208,4.277,4.277,0,0,0,1.4-3.432q-.124-4.069-5.825-4.063Z" transform="translate(-178.467 -530.938)" fill="#fff"/>
      <path id="Caminho_2198" data-name="Caminho 2198" d="M189.962,531.661h26.074v6.681H199.521v6.992h15.245v6.68H199.521v7.19h16.515v6.681H189.962Z" transform="translate(-155.922 -530.938)" fill="#fff"/>
      <path id="Caminho_2199" data-name="Caminho 2199" d="M200.611,531.661h9.556V559.2H225.6v6.681H200.611Z" transform="translate(-135.037 -530.938)" fill="#fff"/>
      <path id="Caminho_2200" data-name="Caminho 2200" d="M210.009,549.786a26.242,26.242,0,0,1,.888-6.938,15.969,15.969,0,0,1,2.955-5.833,14.011,14.011,0,0,1,5.588-4.081,21.791,21.791,0,0,1,8.611-1.516,22.57,22.57,0,0,1,6.518.995,15.706,15.706,0,0,1,5.532,3.029A14.407,14.407,0,0,1,244.025,541a23.607,23.607,0,0,1,.506,15,16.007,16.007,0,0,1-3.077,5.626,14.754,14.754,0,0,1-5.428,3.95,22.333,22.333,0,0,1-18.339-.889,14.311,14.311,0,0,1-5.837-6.352A21.047,21.047,0,0,1,210.009,549.786Zm9.985-.524a20.9,20.9,0,0,0,.687,5.526,8.509,8.509,0,0,0,2.422,4.1,6.782,6.782,0,0,0,4.658,1.649.891.891,0,0,1,.382-.092q7.245-.271,7.385-11.078a20.616,20.616,0,0,0-.755-5.854,8.136,8.136,0,0,0-2.493-4.01,6.786,6.786,0,0,0-4.519-1.46Q220.206,538.164,219.994,549.262Z" transform="translate(-116.605 -531.417)" fill="#fff"/>
      <path id="Caminho_2201" data-name="Caminho 2201" d="M229.053,531.661h24.238v6.681H238.565v7.939H252.3v6.68H238.565v12.923h-9.512Z" transform="translate(-79.255 -530.938)" fill="#fff"/>
      <path id="Caminho_2202" data-name="Caminho 2202" d="M238.854,531.661h9.42V552.2a8.569,8.569,0,0,0,1.741,5.7,6.425,6.425,0,0,0,5.218,2.073q6.867-.116,6.864-7.862V531.661h9.514V552.87a12.929,12.929,0,0,1-3.989,9.9q-3.984,3.727-12.482,3.882a22.854,22.854,0,0,1-6.761-.93,14.97,14.97,0,0,1-5.156-2.7,11.612,11.612,0,0,1-3.26-4.258,13.208,13.208,0,0,1-1.11-5.469Z" transform="translate(-60.033 -530.938)" fill="#fff"/>
      <path id="Caminho_2203" data-name="Caminho 2203" d="M251.165,531.661h30.676v6.681h-10.7v27.543H261.58V538.342H251.165Z" transform="translate(-35.888 -530.938)" fill="#fff"/>
      <path id="Caminho_2204" data-name="Caminho 2204" d="M262.835,531.661h9.42V552.2a8.569,8.569,0,0,0,1.741,5.7,6.425,6.425,0,0,0,5.218,2.073q6.867-.116,6.864-7.862V531.661h9.515V552.87a12.929,12.929,0,0,1-3.989,9.9q-3.984,3.727-12.482,3.882a22.854,22.854,0,0,1-6.761-.93,14.97,14.97,0,0,1-5.156-2.7,11.611,11.611,0,0,1-3.26-4.258,13.208,13.208,0,0,1-1.11-5.469Z" transform="translate(-13 -530.938)" fill="#fff"/>
      <path id="Caminho_2205" data-name="Caminho 2205" d="M276.012,531.661h14.9a24.741,24.741,0,0,1,10.086,1.8q4.033,1.8,4.161,6.9a7.392,7.392,0,0,1-2.455,5.952,11.71,11.71,0,0,1-6.245,2.576v.187a8.441,8.441,0,0,1,5,1.38,5.315,5.315,0,0,1,1.972,2.849q.391,1.581.959,5.715a37.776,37.776,0,0,0,1.49,6.861h-10.32a34.981,34.981,0,0,1-.874-5.3c-.326-2.766-.512-4.264-.548-4.507a2.928,2.928,0,0,0-1.741-2.692,14.968,14.968,0,0,0-4.608-.518h-2.218v13.015h-9.559Zm9.559,6.681v7.847h4.392q5.308,0,5.307-4.155a3.375,3.375,0,0,0-1.525-2.834,7.913,7.913,0,0,0-4.1-.859Z" transform="translate(12.844 -530.938)" fill="#fff"/>
      <path id="Caminho_2206" data-name="Caminho 2206" d="M287.23,549.786a26.243,26.243,0,0,1,.891-6.938,15.963,15.963,0,0,1,2.952-5.833,14.053,14.053,0,0,1,5.588-4.081,21.811,21.811,0,0,1,8.611-1.516,22.575,22.575,0,0,1,6.521.995,15.732,15.732,0,0,1,5.532,3.029A14.407,14.407,0,0,1,321.249,541a23.607,23.607,0,0,1,.506,15,16.016,16.016,0,0,1-3.08,5.626,14.7,14.7,0,0,1-5.428,3.95,22.326,22.326,0,0,1-18.336-.889,14.31,14.31,0,0,1-5.837-6.352A21.046,21.046,0,0,1,287.23,549.786Zm9.988-.524a20.9,20.9,0,0,0,.687,5.526,8.5,8.5,0,0,0,2.419,4.1,6.8,6.8,0,0,0,4.661,1.649.881.881,0,0,1,.382-.092q7.245-.271,7.385-11.078a20.618,20.618,0,0,0-.755-5.854,8.158,8.158,0,0,0-2.493-4.01,6.787,6.787,0,0,0-4.519-1.46Q297.426,538.164,297.218,549.262Z" transform="translate(34.845 -531.417)" fill="#fff"/>
      <path id="Caminho_2207" data-name="Caminho 2207" d="M306.212,531.661h14.537A28.633,28.633,0,0,1,330.142,533a14.794,14.794,0,0,1,6.038,3.725,13.836,13.836,0,0,1,3.166,5.487,23.647,23.647,0,0,1,.939,6.87c0,.148-.006.361-.021.648s-.024.5-.024.637a16.831,16.831,0,0,1-1.963,7.708,13.165,13.165,0,0,1-4.554,4.791,18.451,18.451,0,0,1-5.949,2.366,32.1,32.1,0,0,1-6.461.652h-15.1Zm9.559,27.542h4.587a9.51,9.51,0,0,0,5.561-1.56,9.151,9.151,0,0,0,3.287-4.016,13.1,13.1,0,0,0,1.045-5.2,10.679,10.679,0,0,0-1.338-5.144,9.56,9.56,0,0,0-8.46-4.942h-4.682Z" transform="translate(72.073 -530.938)" fill="#fff"/>
      <path id="Caminho_2208" data-name="Caminho 2208" d="M319.143,549.786a26.123,26.123,0,0,1,.891-6.938,15.965,15.965,0,0,1,2.952-5.833,14.011,14.011,0,0,1,5.588-4.081,21.8,21.8,0,0,1,8.611-1.516,22.591,22.591,0,0,1,6.521.995,15.692,15.692,0,0,1,5.529,3.029A14.376,14.376,0,0,1,353.159,541a23.583,23.583,0,0,1,.509,15,16.061,16.061,0,0,1-3.08,5.626,14.728,14.728,0,0,1-5.428,3.95,22.326,22.326,0,0,1-18.336-.889,14.294,14.294,0,0,1-5.837-6.352A21,21,0,0,1,319.143,549.786Zm9.985-.524a20.772,20.772,0,0,0,.69,5.526,8.482,8.482,0,0,0,2.419,4.1,6.787,6.787,0,0,0,4.658,1.649.9.9,0,0,1,.382-.092q7.249-.271,7.385-11.078a20.62,20.62,0,0,0-.755-5.854,8.155,8.155,0,0,0-2.49-4.01,6.8,6.8,0,0,0-4.522-1.46Q329.34,538.164,329.128,549.262Z" transform="translate(97.434 -531.417)" fill="#fff"/>
      <path id="Caminho_2209" data-name="Caminho 2209" d="M337.227,531.661H367.9v6.681H357.2v27.543h-9.559V538.342H337.227Z" transform="translate(132.902 -530.938)" fill="#fff"/>
      <path id="Caminho_2210" data-name="Caminho 2210" d="M348.773,531.661h14.9a24.741,24.741,0,0,1,10.086,1.8q4.033,1.8,4.161,6.9a7.392,7.392,0,0,1-2.455,5.952,11.709,11.709,0,0,1-6.245,2.576v.187a8.441,8.441,0,0,1,5,1.38,5.3,5.3,0,0,1,1.972,2.849q.391,1.581.96,5.715a37.777,37.777,0,0,0,1.489,6.861h-10.32a35.4,35.4,0,0,1-.874-5.3c-.326-2.766-.512-4.264-.548-4.507a2.928,2.928,0,0,0-1.741-2.692,14.959,14.959,0,0,0-4.6-.518h-2.221v13.015h-9.556Zm9.556,6.681v7.847h4.391q5.308,0,5.307-4.155A3.376,3.376,0,0,0,366.5,539.2a7.906,7.906,0,0,0-4.1-.859Z" transform="translate(155.546 -530.938)" fill="#fff"/>
      <path id="Caminho_2211" data-name="Caminho 2211" d="M372.953,531.661H384.51L398,565.884H387.4l-2.322-6.681H371.205l-2.23,6.681h-9.512Zm9.8,20.921L378.4,538.33h-.183l-4.59,14.252Z" transform="translate(176.514 -530.938)" fill="#fff"/>
      <path id="Caminho_2212" data-name="Caminho 2212" d="M373.7,531.661h15.1q12.215,0,13.21,7.756a8.525,8.525,0,0,1,.047,1.039,6.9,6.9,0,0,1-1.866,4.865,10.327,10.327,0,0,1-5.558,2.807v.095a11.968,11.968,0,0,1,5.834,2.552,7.173,7.173,0,0,1,2.4,5.688q0,9.421-13.548,9.42H373.7Zm9.559,13.577h4.978q4.073-.142,4.072-3.586-.129-3.309-4.261-3.311h-4.788Zm0,13.965h5.265a4.423,4.423,0,0,0,3.242-1.013,3.615,3.615,0,0,0,1.108-2.39,4.215,4.215,0,0,0-.465-1.946,3.943,3.943,0,0,0-1.288-1.475,3.157,3.157,0,0,0-1.8-.563h-6.062Z" transform="translate(204.425 -530.938)" fill="#fff"/>
      <path id="Caminho_2213" data-name="Caminho 2213" d="M397.813,531.661H409.37l13.488,34.223h-10.6l-2.322-6.681H396.065l-2.23,6.681h-9.512Zm9.8,20.921-4.359-14.252h-.184l-4.59,14.252Z" transform="translate(225.271 -530.938)" fill="#fff"/>
      <path id="Caminho_2214" data-name="Caminho 2214" d="M398.524,531.661h9.559V559.2h15.428v6.681H398.524Z" transform="translate(253.121 -530.938)" fill="#fff"/>
      <path id="Caminho_2215" data-name="Caminho 2215" d="M408.293,531.661h9.559v13.577H429.4V531.661h9.515v34.223H429.4V551.818H417.76v14.066h-9.467Z" transform="translate(272.28 -530.938)" fill="#fff"/>
      <path id="Caminho_2216" data-name="Caminho 2216" d="M420.346,549.786a26.247,26.247,0,0,1,.888-6.938,16.013,16.013,0,0,1,2.955-5.833,14.011,14.011,0,0,1,5.588-4.081,21.791,21.791,0,0,1,8.611-1.516,22.591,22.591,0,0,1,6.521.995,15.719,15.719,0,0,1,5.529,3.029A14.407,14.407,0,0,1,454.362,541a23.637,23.637,0,0,1,.509,15,16.064,16.064,0,0,1-3.08,5.626,14.753,14.753,0,0,1-5.428,3.95,22.333,22.333,0,0,1-18.339-.889,14.31,14.31,0,0,1-5.837-6.352A21.046,21.046,0,0,1,420.346,549.786Zm9.985-.524a20.894,20.894,0,0,0,.687,5.526,8.508,8.508,0,0,0,2.422,4.1,6.783,6.783,0,0,0,4.658,1.649.89.89,0,0,1,.382-.092q7.249-.271,7.385-11.078a20.624,20.624,0,0,0-.755-5.854,8.155,8.155,0,0,0-2.49-4.01,6.8,6.8,0,0,0-4.522-1.46Q430.543,538.164,430.331,549.262Z" transform="translate(295.919 -531.417)" fill="#fff"/>
    </g>
  </g>
</svg>
