<svg id="Cenoura_e_nabo" data-name="Cenoura e nabo" xmlns="http://www.w3.org/2000/svg" width="183.097" height="209.254" viewBox="0 0 183.097 209.254">
  <g id="radish" transform="translate(74.111)">
    <g id="Grupo_145" data-name="Grupo 145">
      <g id="Grupo_139" data-name="Grupo 139">
        <path id="Caminho_1130" data-name="Caminho 1130" d="M500,4.359V0h13.078V4.359H500Z" transform="translate(-478.203)" fill-rule="evenodd"/>
        <path id="Caminho_1131" data-name="Caminho 1131" d="M620,4.359V0h4.359V4.359Z" transform="translate(-572.046)" fill-rule="evenodd"/>
        <path id="Caminho_1132" data-name="Caminho 1132" d="M660,4.359V0h4.359V4.359Z" transform="translate(-603.327)" fill-rule="evenodd"/>
        <path id="Caminho_1133" data-name="Caminho 1133" d="M484.359,20v4.359H480V20Z" transform="translate(-462.562 -15.641)" fill-rule="evenodd"/>
        <path id="Caminho_1134" data-name="Caminho 1134" d="M560,20h4.359v8.719H560Z" transform="translate(-525.124 -15.641)" fill-rule="evenodd"/>
        <path id="Caminho_1135" data-name="Caminho 1135" d="M604.359,20v8.719H600V20Z" transform="translate(-556.406 -15.641)" fill-rule="evenodd"/>
        <path id="Caminho_1136" data-name="Caminho 1136" d="M640,20h4.359v4.359H640Z" transform="translate(-587.687 -15.641)" fill-rule="evenodd"/>
        <path id="Caminho_1137" data-name="Caminho 1137" d="M680,20h4.359v8.719H680Z" transform="translate(-618.968 -15.641)" fill-rule="evenodd"/>
        <path id="Caminho_1138" data-name="Caminho 1138" d="M740,24.359V20h4.359v4.359Z" transform="translate(-665.889 -15.641)" fill-rule="evenodd"/>
        <path id="Caminho_1139" data-name="Caminho 1139" d="M500,44.359V40h4.359v4.359Z" transform="translate(-478.203 -31.281)" fill-rule="evenodd"/>
        <path id="Caminho_1140" data-name="Caminho 1140" d="M720,44.359V40h4.359v4.359Z" transform="translate(-650.249 -31.281)" fill-rule="evenodd"/>
        <path id="Caminho_1141" data-name="Caminho 1141" d="M760,40h4.359v4.359H760Z" transform="translate(-681.53 -31.281)" fill-rule="evenodd"/>
        <path id="Caminho_1142" data-name="Caminho 1142" d="M484.359,60v4.359H480V60Z" transform="translate(-462.562 -46.922)" fill-rule="evenodd"/>
        <path id="Caminho_1143" data-name="Caminho 1143" d="M544.359,60v4.359H540V60Z" transform="translate(-509.484 -46.922)" fill-rule="evenodd"/>
        <path id="Caminho_1144" data-name="Caminho 1144" d="M580,64.359V60h4.359v4.359Z" transform="translate(-540.765 -46.922)" fill-rule="evenodd"/>
        <path id="Caminho_1145" data-name="Caminho 1145" d="M664.359,60v8.719H660V60Z" transform="translate(-603.327 -46.922)" fill-rule="evenodd"/>
        <path id="Caminho_1146" data-name="Caminho 1146" d="M700,60h4.359V81.8H700V60Z" transform="translate(-634.608 -46.922)" fill-rule="evenodd"/>
        <path id="Caminho_1147" data-name="Caminho 1147" d="M780,64.359V60h4.359v4.359Z" transform="translate(-697.171 -46.922)" fill-rule="evenodd"/>
        <path id="Caminho_1148" data-name="Caminho 1148" d="M400,80h13.078v4.359h-8.719v4.359H400Z" transform="translate(-400 -62.562)" fill-rule="evenodd"/>
        <path id="Caminho_1149" data-name="Caminho 1149" d="M500,80h4.359v4.359H500Z" transform="translate(-478.203 -62.562)" fill-rule="evenodd"/>
        <path id="Caminho_1150" data-name="Caminho 1150" d="M560,80h4.359V93.078H560V80Z" transform="translate(-525.124 -62.562)" fill-rule="evenodd"/>
        <path id="Caminho_1151" data-name="Caminho 1151" d="M600,80h4.359V93.078H600Z" transform="translate(-556.406 -62.562)" fill-rule="evenodd"/>
        <path id="Caminho_1152" data-name="Caminho 1152" d="M760,84.359V80h4.359v4.359Z" transform="translate(-681.53 -62.562)" fill-rule="evenodd"/>
        <path id="Caminho_1153" data-name="Caminho 1153" d="M460,100h4.359v8.719H460V100Z" transform="translate(-446.922 -78.203)" fill-rule="evenodd"/>
        <path id="Caminho_1154" data-name="Caminho 1154" d="M520,100h4.359v13.078H520Z" transform="translate(-493.843 -78.203)" fill-rule="evenodd"/>
        <path id="Caminho_1155" data-name="Caminho 1155" d="M644.359,100v8.719H640V100Z" transform="translate(-587.687 -78.203)" fill-rule="evenodd"/>
        <path id="Caminho_1156" data-name="Caminho 1156" d="M744.359,100v4.359H740V100Z" transform="translate(-665.889 -78.203)" fill-rule="evenodd"/>
        <path id="Caminho_1157" data-name="Caminho 1157" d="M420,120h4.359v8.719H420Z" transform="translate(-415.641 -93.843)" fill-rule="evenodd"/>
        <path id="Caminho_1158" data-name="Caminho 1158" d="M760,124.359V120h4.359v4.359Z" transform="translate(-681.53 -93.843)" fill-rule="evenodd"/>
        <path id="Caminho_1159" data-name="Caminho 1159" d="M480,140h4.359v4.359H480Z" transform="translate(-462.562 -109.484)" fill-rule="evenodd"/>
        <path id="Caminho_1160" data-name="Caminho 1160" d="M580,140h4.359v17.438H580V140Z" transform="translate(-540.765 -109.484)" fill-rule="evenodd"/>
        <path id="Caminho_1161" data-name="Caminho 1161" d="M604.359,140h4.359v26.157h-4.359V161.8H600v-4.359h4.359V140Z" transform="translate(-556.406 -109.484)" fill-rule="evenodd"/>
        <path id="Caminho_1162" data-name="Caminho 1162" d="M660,140h4.359v4.359h4.359v8.719h-4.359v4.359H660Z" transform="translate(-603.327 -109.484)" fill-rule="evenodd"/>
        <path id="Caminho_1163" data-name="Caminho 1163" d="M740,144.359V140h4.359v4.359Z" transform="translate(-665.889 -109.484)" fill-rule="evenodd"/>
        <path id="Caminho_1164" data-name="Caminho 1164" d="M400,164.359V160h4.359v4.359Z" transform="translate(-400 -125.124)" fill-rule="evenodd"/>
        <path id="Caminho_1165" data-name="Caminho 1165" d="M500,160h4.359v8.719H500V160Z" transform="translate(-478.203 -125.124)" fill-rule="evenodd"/>
        <path id="Caminho_1166" data-name="Caminho 1166" d="M524.359,160h4.359v17.438h-4.359v-4.359H520v-4.359h4.359V160Z" transform="translate(-493.843 -125.124)" fill-rule="evenodd"/>
        <path id="Caminho_1167" data-name="Caminho 1167" d="M720,160h4.359v17.438H720Z" transform="translate(-650.249 -125.124)" fill-rule="evenodd"/>
        <path id="Caminho_1168" data-name="Caminho 1168" d="M420,180h8.719v4.359H420Z" transform="translate(-415.641 -140.765)" fill-rule="evenodd"/>
        <path id="Caminho_1169" data-name="Caminho 1169" d="M460,200h4.359v4.359H460Z" transform="translate(-446.922 -156.406)" fill-rule="evenodd"/>
        <path id="Caminho_1170" data-name="Caminho 1170" d="M480,220h4.359v4.359H480Z" transform="translate(-462.562 -172.046)" fill-rule="evenodd"/>
        <path id="Caminho_1171" data-name="Caminho 1171" d="M500,240h4.359v4.359H500Z" transform="translate(-478.203 -187.687)" fill-rule="evenodd"/>
        <path id="Caminho_1172" data-name="Caminho 1172" d="M657.438,240v4.359H661.8v4.359H640v-4.359h13.078V240Z" transform="translate(-587.687 -187.687)" fill-rule="evenodd"/>
        <path id="Caminho_1173" data-name="Caminho 1173" d="M520,260h4.359v4.359H520Z" transform="translate(-493.843 -203.327)" fill-rule="evenodd"/>
        <path id="Caminho_1174" data-name="Caminho 1174" d="M540,280h8.719v4.359H540Z" transform="translate(-509.484 -218.968)" fill-rule="evenodd"/>
        <path id="Caminho_1175" data-name="Caminho 1175" d="M600,284.359V280h8.719v4.359H600Z" transform="translate(-556.406 -218.968)" fill-rule="evenodd"/>
        <path id="Caminho_1176" data-name="Caminho 1176" d="M740,280h8.719v4.359H740Z" transform="translate(-665.889 -218.968)" fill-rule="evenodd"/>
        <path id="Caminho_1177" data-name="Caminho 1177" d="M580,304.359V300h4.359v4.359Z" transform="translate(-540.765 -234.608)" fill-rule="evenodd"/>
        <path id="Caminho_1178" data-name="Caminho 1178" d="M780,300h4.359v4.359H780Z" transform="translate(-697.171 -234.608)" fill-rule="evenodd"/>
        <path id="Caminho_1179" data-name="Caminho 1179" d="M560,324.359V320h4.359v4.359Z" transform="translate(-525.124 -250.249)" fill-rule="evenodd"/>
        <path id="Caminho_1180" data-name="Caminho 1180" d="M800,320h4.359v13.078H800V320Z" transform="translate(-712.811 -250.249)" fill-rule="evenodd"/>
        <path id="Caminho_1181" data-name="Caminho 1181" d="M544.359,340v8.719H540V340Z" transform="translate(-509.484 -265.889)" fill-rule="evenodd"/>
        <path id="Caminho_1182" data-name="Caminho 1182" d="M524.359,380v13.078H520V380Z" transform="translate(-493.843 -297.17)" fill-rule="evenodd"/>
        <path id="Caminho_1183" data-name="Caminho 1183" d="M820,380h4.359v13.078H820V380Z" transform="translate(-728.452 -297.17)" fill-rule="evenodd"/>
        <path id="Caminho_1184" data-name="Caminho 1184" d="M540,440h4.359v8.719H540V440Z" transform="translate(-509.484 -344.092)" fill-rule="evenodd"/>
        <path id="Caminho_1185" data-name="Caminho 1185" d="M840,440h4.359v21.8H840V440Z" transform="translate(-744.092 -344.092)" fill-rule="evenodd"/>
        <path id="Caminho_1186" data-name="Caminho 1186" d="M560,480h4.359v8.719H560V480Z" transform="translate(-525.124 -375.373)" fill-rule="evenodd"/>
        <path id="Caminho_1187" data-name="Caminho 1187" d="M580,520h4.359v13.078H580V520Z" transform="translate(-540.765 -406.654)" fill-rule="evenodd"/>
        <path id="Caminho_1188" data-name="Caminho 1188" d="M860,540h4.359v30.516H860V540Z" transform="translate(-759.733 -422.295)" fill-rule="evenodd"/>
        <path id="Caminho_1189" data-name="Caminho 1189" d="M600,580h4.359v8.719H600V580Z" transform="translate(-556.406 -453.576)" fill-rule="evenodd"/>
        <path id="Caminho_1190" data-name="Caminho 1190" d="M620,620h4.359v4.359H620Z" transform="translate(-572.046 -484.857)" fill-rule="evenodd"/>
        <path id="Caminho_1191" data-name="Caminho 1191" d="M640,640h4.359v8.719H640V640Z" transform="translate(-587.687 -500.498)" fill-rule="evenodd"/>
        <path id="Caminho_1192" data-name="Caminho 1192" d="M660,680h4.359v8.719H660V680Z" transform="translate(-603.327 -531.779)" fill-rule="evenodd"/>
        <path id="Caminho_1193" data-name="Caminho 1193" d="M880,680h4.359v56.673H880V680Z" transform="translate(-775.373 -531.779)" fill-rule="evenodd"/>
        <path id="Caminho_1194" data-name="Caminho 1194" d="M680,720h4.359v8.719H680V720Z" transform="translate(-618.968 -563.06)" fill-rule="evenodd"/>
        <path id="Caminho_1195" data-name="Caminho 1195" d="M700,760h4.359v8.719H700V760Z" transform="translate(-634.608 -594.341)" fill-rule="evenodd"/>
        <path id="Caminho_1196" data-name="Caminho 1196" d="M720,800h4.359v4.359H720Z" transform="translate(-650.249 -625.622)" fill-rule="evenodd"/>
        <path id="Caminho_1197" data-name="Caminho 1197" d="M740,820h4.359v8.719H740V820Z" transform="translate(-665.889 -641.263)" fill-rule="evenodd"/>
        <path id="Caminho_1198" data-name="Caminho 1198" d="M760,860h4.359v8.719H760V860Z" transform="translate(-681.53 -672.544)" fill-rule="evenodd"/>
        <path id="Caminho_1199" data-name="Caminho 1199" d="M780,900h4.359v4.359H780Z" transform="translate(-697.171 -703.825)" fill-rule="evenodd"/>
        <path id="Caminho_1200" data-name="Caminho 1200" d="M800,920h4.359v4.359H800Z" transform="translate(-712.811 -719.465)" fill-rule="evenodd"/>
        <path id="Caminho_1201" data-name="Caminho 1201" d="M820,944.359V940h13.078v4.359Z" transform="translate(-728.452 -735.106)" fill-rule="evenodd"/>
      </g>
      <g id="Grupo_140" data-name="Grupo 140" transform="translate(4.359 4.359)">
        <path id="Caminho_1202" data-name="Caminho 1202" d="M500,20h13.078v8.719h-4.359v8.719h-4.359V33.078H500V28.719h4.359V24.359H500Z" transform="translate(-482.562 -20)" fill="#92c270" fill-rule="evenodd"/>
        <path id="Caminho_1203" data-name="Caminho 1203" d="M604.359,20h4.359v4.359h4.359V20h4.359v8.719h-4.359v8.719h-4.359V41.8h-4.359V33.078H600V28.719h4.359V20Z" transform="translate(-560.765 -20)" fill="#92c270" fill-rule="evenodd"/>
        <path id="Caminho_1204" data-name="Caminho 1204" d="M733.078,44.359v4.359h-4.359v4.359h-4.359v4.359h4.359V61.8H720V44.359h4.359V40h4.359v4.359Z" transform="translate(-654.608 -35.641)" fill="#92c270" fill-rule="evenodd"/>
        <path id="Caminho_1205" data-name="Caminho 1205" d="M420,104.359V100h8.719v8.719h4.359v4.359h4.359v13.078h-4.359V121.8h-4.359v-4.359H420v-4.359h4.359v-8.719Z" transform="translate(-420 -82.562)" fill="#92c270" fill-rule="evenodd"/>
        <path id="Caminho_1206" data-name="Caminho 1206" d="M540,120h4.359v4.359h4.359v13.078h-4.359v-8.719H540V120Z" transform="translate(-513.843 -98.203)" fill="#92c270" fill-rule="evenodd"/>
        <path id="Caminho_1207" data-name="Caminho 1207" d="M640,140h4.359v13.078H640V140Z" transform="translate(-592.046 -113.843)" fill="#92c270" fill-rule="evenodd"/>
        <path id="Caminho_1208" data-name="Caminho 1208" d="M700,208.719V200h4.359v8.719Z" transform="translate(-638.968 -160.765)" fill="#92c270" fill-rule="evenodd"/>
        <path id="Caminho_1209" data-name="Caminho 1209" d="M500,220h4.359v4.359H500Z" transform="translate(-482.562 -176.406)" fill="#92c270" fill-rule="evenodd"/>
        <path id="Caminho_1210" data-name="Caminho 1210" d="M580,224.359V220h4.359v4.359Z" transform="translate(-545.124 -176.406)" fill="#92c270" fill-rule="evenodd"/>
        <path id="Caminho_1211" data-name="Caminho 1211" d="M520,240h4.359v4.359H520Z" transform="translate(-498.203 -192.046)" fill="#92c270" fill-rule="evenodd"/>
        <path id="Caminho_1212" data-name="Caminho 1212" d="M684.359,240v4.359H680V240Z" transform="translate(-623.327 -192.046)" fill="#92c270" fill-rule="evenodd"/>
        <path id="Caminho_1213" data-name="Caminho 1213" d="M540,264.359V260h4.359v4.359Z" transform="translate(-513.843 -207.687)" fill="#92c270" fill-rule="evenodd"/>
      </g>
      <g id="Grupo_141" data-name="Grupo 141" transform="translate(21.797 17.438)">
        <path id="Caminho_1214" data-name="Caminho 1214" d="M540,80h4.359v8.719H540V80Z" transform="translate(-531.281 -80)" fill="#548431" fill-rule="evenodd"/>
        <path id="Caminho_1215" data-name="Caminho 1215" d="M620,124.359V120h4.359v4.359Z" transform="translate(-593.843 -111.281)" fill="#548431" fill-rule="evenodd"/>
        <path id="Caminho_1216" data-name="Caminho 1216" d="M720,144.359V140h4.359v4.359Z" transform="translate(-672.046 -126.922)" fill="#548431" fill-rule="evenodd"/>
        <path id="Caminho_1217" data-name="Caminho 1217" d="M704.359,160v8.719H700V160Z" transform="translate(-656.406 -142.562)" fill="#548431" fill-rule="evenodd"/>
        <path id="Caminho_1218" data-name="Caminho 1218" d="M500,204.359V200h4.359v4.359Z" transform="translate(-500 -173.843)" fill="#548431" fill-rule="evenodd"/>
        <path id="Caminho_1219" data-name="Caminho 1219" d="M561.8,213.078v4.359h-8.719V221.8h-4.359v-4.359h-4.359v-4.359H540v-4.359h4.359V200h4.359v8.719h8.719v4.359Z" transform="translate(-531.281 -173.843)" fill="#548431" fill-rule="evenodd"/>
        <path id="Caminho_1220" data-name="Caminho 1220" d="M653.078,200v8.719h-4.359v4.359H640V200h4.359v4.359h4.359V200Z" transform="translate(-609.484 -173.843)" fill="#548431" fill-rule="evenodd"/>
        <path id="Caminho_1221" data-name="Caminho 1221" d="M520,220h4.359v4.359H520Z" transform="translate(-515.641 -189.484)" fill="#548431" fill-rule="evenodd"/>
      </g>
      <g id="Grupo_142" data-name="Grupo 142" transform="translate(30.516 65.392)">
        <path id="Caminho_1222" data-name="Caminho 1222" d="M620,304.359V300h13.078v4.359Z" transform="translate(-602.562 -300)" fill="#fffdf3" fill-rule="evenodd"/>
        <path id="Caminho_1223" data-name="Caminho 1223" d="M573.078,320v4.359h-4.359v4.359h-4.359v4.359H560v-8.719h4.359V320h8.719Z" transform="translate(-555.641 -315.641)" fill="#fffdf3" fill-rule="evenodd"/>
        <path id="Caminho_1224" data-name="Caminho 1224" d="M740,340h8.719v4.359H740Z" transform="translate(-696.406 -331.281)" fill="#fffdf3" fill-rule="evenodd"/>
        <path id="Caminho_1225" data-name="Caminho 1225" d="M540,384.359V380h4.359v4.359Z" transform="translate(-540 -362.562)" fill="#fffdf3" fill-rule="evenodd"/>
        <path id="Caminho_1226" data-name="Caminho 1226" d="M640,404.359V400h8.719v4.359Z" transform="translate(-618.203 -378.203)" fill="#fffdf3" fill-rule="evenodd"/>
        <path id="Caminho_1227" data-name="Caminho 1227" d="M608.719,420v4.359h-4.359v4.359H600V420h8.719Z" transform="translate(-586.922 -393.843)" fill="#fffdf3" fill-rule="evenodd"/>
        <path id="Caminho_1228" data-name="Caminho 1228" d="M740,460h13.078v4.359H740Z" transform="translate(-696.406 -425.124)" fill="#fffdf3" fill-rule="evenodd"/>
        <path id="Caminho_1229" data-name="Caminho 1229" d="M693.078,584.359h-4.359v4.359h-4.359v4.359H680v-8.719h4.359V580h8.719Z" transform="translate(-649.484 -518.968)" fill="#fffdf3" fill-rule="evenodd"/>
        <path id="Caminho_1230" data-name="Caminho 1230" d="M820,824.359V820h8.719v4.359H820Z" transform="translate(-758.968 -706.654)" fill="#fffdf3" fill-rule="evenodd"/>
      </g>
      <g id="Grupo_143" data-name="Grupo 143" transform="translate(30.516 61.032)">
        <path id="Caminho_1231" data-name="Caminho 1231" d="M577.438,280h21.8v4.359h8.719v4.359h4.359V301.8h4.359v4.359H599.235v4.359h17.438v4.359h4.359v17.438h-4.359v-4.359H599.235v4.359h-8.719v8.719h8.719v-4.359h8.719v-4.359h8.719v4.359h8.719v30.516h4.359v8.719h-4.359v-4.359h-8.719v4.359h-4.359v4.359h-4.359v4.359h4.359v-4.359h17.438v26.157h-8.719v4.359h-4.359v4.359h4.359v-4.359h8.719v13.078H616.673V419.5h-4.359v-4.359h-4.359v-8.719h-4.359v-4.359h4.359v-4.359h4.359v-4.359h4.359v-4.359h-8.719v4.359h-4.359v4.359h-4.359v-4.359h-4.359v-8.719h-4.359v-4.359h4.359v-4.359h4.359v-4.359h4.359v-4.359h4.359V362.83h-8.719v4.359h-8.719v4.359h-4.359v-4.359H581.8V358.47h-4.359v-4.359h-4.359v-8.719h-4.359v-4.359h4.359v-4.359h4.359v-4.359H581.8v-8.719h4.359v-4.359h8.719v-4.359h-8.719v4.359H581.8v4.359h-8.719v4.359h-4.359v4.359h-4.359v-8.719H560v-4.359h4.359v-4.359h4.359v4.359h4.359v-4.359h4.359v-4.359h8.719v-4.359H581.8V301.8h13.078v-4.359H577.438V301.8h-8.719v4.359H560V301.8h4.359v-4.359h4.359v-4.359h4.359v-4.359h13.078v-4.359h-8.719V280Zm21.8,17.438h8.719v-4.359h-8.719v4.359Zm0,26.157h13.078v-4.359H599.235v4.359Zm-8.719,30.516h4.359v-4.359h4.359v-4.359h-8.719v4.359h-4.359v8.719h4.359v-4.359Zm13.078,0h13.078v-4.359H603.595v4.359Zm13.078,47.954h8.719v-4.359h-8.719v4.359Z" transform="translate(-555.641 -280)" fill="#e5e3d5" fill-rule="evenodd"/>
        <path id="Caminho_1232" data-name="Caminho 1232" d="M604.359,304.359H600V300h4.359Z" transform="translate(-586.922 -295.641)" fill="#e5e3d5" fill-rule="evenodd"/>
        <path id="Caminho_1233" data-name="Caminho 1233" d="M540,404.359V400h4.359v4.359Z" transform="translate(-540 -373.843)" fill="#e5e3d5" fill-rule="evenodd"/>
        <path id="Caminho_1234" data-name="Caminho 1234" d="M624.359,404.359H620V400h4.359Z" transform="translate(-602.562 -373.843)" fill="#e5e3d5" fill-rule="evenodd"/>
      </g>
      <g id="Grupo_144" data-name="Grupo 144" transform="translate(30.516 78.47)">
        <path id="Caminho_1235" data-name="Caminho 1235" d="M561.8,360h17.438v4.359H566.157v4.359h-8.719v4.359h-4.359v4.359h-4.359V381.8h-4.359v-4.359H540v-4.359h4.359v-4.359h8.719v-4.359H561.8Z" transform="translate(-540 -360)" fill="#cfcbae" fill-rule="evenodd"/>
        <path id="Caminho_1236" data-name="Caminho 1236" d="M748.719,400h8.719v4.359H740V400h8.719Z" transform="translate(-696.406 -391.281)" fill="#cfcbae" fill-rule="evenodd"/>
        <path id="Caminho_1237" data-name="Caminho 1237" d="M680,444.359V440h8.719v4.359Z" transform="translate(-649.484 -422.562)" fill="#cfcbae" fill-rule="evenodd"/>
        <path id="Caminho_1238" data-name="Caminho 1238" d="M660,464.359V460h4.359v4.359Z" transform="translate(-633.843 -438.203)" fill="#cfcbae" fill-rule="evenodd"/>
        <path id="Caminho_1239" data-name="Caminho 1239" d="M613.078,480v8.719h-4.359v4.359h-4.359v4.359H600V484.359h4.359V480h8.719Z" transform="translate(-586.922 -453.843)" fill="#cfcbae" fill-rule="evenodd"/>
        <path id="Caminho_1240" data-name="Caminho 1240" d="M726.157,504.359h-8.719v4.359h-8.719v4.359H700v-8.719h8.719V500h17.438Z" transform="translate(-665.124 -469.484)" fill="#cfcbae" fill-rule="evenodd"/>
        <path id="Caminho_1241" data-name="Caminho 1241" d="M820,520h4.359v4.359H820Z" transform="translate(-758.968 -485.124)" fill="#cfcbae" fill-rule="evenodd"/>
        <path id="Caminho_1242" data-name="Caminho 1242" d="M760,600h13.078v4.359H760Z" transform="translate(-712.046 -547.687)" fill="#cfcbae" fill-rule="evenodd"/>
        <path id="Caminho_1243" data-name="Caminho 1243" d="M701.8,660v4.359h-4.359v4.359h-4.359v4.359h-4.359v4.359h-4.359v-4.359H680v-4.359h4.359v-4.359h8.719V660Z" transform="translate(-649.484 -594.608)" fill="#cfcbae" fill-rule="evenodd"/>
        <path id="Caminho_1244" data-name="Caminho 1244" d="M817.438,704.359v4.359H800v-4.359h4.359V700h8.719v4.359Z" transform="translate(-743.327 -625.889)" fill="#cfcbae" fill-rule="evenodd"/>
        <path id="Caminho_1245" data-name="Caminho 1245" d="M784.36,740v4.359H780V740Z" transform="translate(-727.687 -657.17)" fill="#cfcbae" fill-rule="evenodd"/>
        <path id="Caminho_1246" data-name="Caminho 1246" d="M764.359,793.078H760v-8.719h4.359V780h8.719v4.359h-4.359v4.359h-4.359Z" transform="translate(-712.046 -688.452)" fill="#cfcbae" fill-rule="evenodd"/>
        <path id="Caminho_1247" data-name="Caminho 1247" d="M840,864.359V860h8.719v4.359Z" transform="translate(-774.608 -751.014)" fill="#cfcbae" fill-rule="evenodd"/>
        <path id="Caminho_1248" data-name="Caminho 1248" d="M820,884.359V880h4.359v4.359Z" transform="translate(-758.968 -766.654)" fill="#cfcbae" fill-rule="evenodd"/>
      </g>
    </g>
  </g>
  <g id="carrot" transform="translate(0)">
    <g id="Grupo_152" data-name="Grupo 152">
      <g id="Grupo_146" data-name="Grupo 146">
        <path id="Caminho_1249" data-name="Caminho 1249" d="M200,4.359V0h13.078V13.078h13.078V26.157H221.8V17.438H208.719V4.359Z" transform="translate(-169.484)" fill-rule="evenodd"/>
        <path id="Caminho_1250" data-name="Caminho 1250" d="M168.719,20V33.078H160V28.719h4.359V20Z" transform="translate(-138.203 -15.641)" fill-rule="evenodd"/>
        <path id="Caminho_1251" data-name="Caminho 1251" d="M81.8,44.359H73.078V61.8H64.359v8.719H60V57.438h8.719V40H81.8Z" transform="translate(-60 -31.281)" fill-rule="evenodd"/>
        <path id="Caminho_1252" data-name="Caminho 1252" d="M237.438,120v30.516H241.8v4.359H220v-4.359h13.078V120Z" transform="translate(-185.124 -93.843)" fill-rule="evenodd"/>
        <path id="Caminho_1253" data-name="Caminho 1253" d="M80,180h4.359v8.719H80V180Z" transform="translate(-75.641 -140.765)" fill-rule="evenodd"/>
        <path id="Caminho_1254" data-name="Caminho 1254" d="M100,220h4.359v4.359H100Z" transform="translate(-91.281 -172.046)" fill-rule="evenodd"/>
        <path id="Caminho_1255" data-name="Caminho 1255" d="M120,240h8.719v4.359H120Z" transform="translate(-106.922 -187.687)" fill-rule="evenodd"/>
        <path id="Caminho_1256" data-name="Caminho 1256" d="M160,260h4.359v4.359H160Z" transform="translate(-138.203 -203.327)" fill-rule="evenodd"/>
        <path id="Caminho_1257" data-name="Caminho 1257" d="M180,284.359V280h8.719v4.359H180Z" transform="translate(-153.843 -218.968)" fill-rule="evenodd"/>
        <path id="Caminho_1258" data-name="Caminho 1258" d="M320,280h8.719v4.359H320Z" transform="translate(-263.327 -218.968)" fill-rule="evenodd"/>
        <path id="Caminho_1259" data-name="Caminho 1259" d="M160,304.359V300h4.359v4.359Z" transform="translate(-138.203 -234.608)" fill-rule="evenodd"/>
        <path id="Caminho_1260" data-name="Caminho 1260" d="M360,300h4.359v4.359H360Z" transform="translate(-294.608 -234.608)" fill-rule="evenodd"/>
        <path id="Caminho_1261" data-name="Caminho 1261" d="M140,324.359V320h4.359v4.359Z" transform="translate(-122.562 -250.249)" fill-rule="evenodd"/>
        <path id="Caminho_1262" data-name="Caminho 1262" d="M380,320h4.359v13.078H380V320Z" transform="translate(-310.249 -250.249)" fill-rule="evenodd"/>
        <path id="Caminho_1263" data-name="Caminho 1263" d="M124.359,340v8.719H120V340Z" transform="translate(-106.922 -265.889)" fill-rule="evenodd"/>
        <path id="Caminho_1264" data-name="Caminho 1264" d="M104.359,380v13.078H100V380Z" transform="translate(-91.281 -297.17)" fill-rule="evenodd"/>
        <path id="Caminho_1265" data-name="Caminho 1265" d="M400,380h4.359v13.078H400V380Z" transform="translate(-325.889 -297.17)" fill-rule="evenodd"/>
        <path id="Caminho_1266" data-name="Caminho 1266" d="M120,440h4.359v8.719H120V440Z" transform="translate(-106.922 -344.092)" fill-rule="evenodd"/>
        <path id="Caminho_1267" data-name="Caminho 1267" d="M420,440h4.359v21.8H420V440Z" transform="translate(-341.53 -344.092)" fill-rule="evenodd"/>
        <path id="Caminho_1268" data-name="Caminho 1268" d="M140,480h4.359v8.719H140V480Z" transform="translate(-122.562 -375.373)" fill-rule="evenodd"/>
        <path id="Caminho_1269" data-name="Caminho 1269" d="M160,520h4.359v13.078H160V520Z" transform="translate(-138.203 -406.654)" fill-rule="evenodd"/>
        <path id="Caminho_1270" data-name="Caminho 1270" d="M440,540h4.359v30.516H440V540Z" transform="translate(-357.17 -422.295)" fill-rule="evenodd"/>
        <path id="Caminho_1271" data-name="Caminho 1271" d="M180,580h4.359v8.719H180V580Z" transform="translate(-153.843 -453.576)" fill-rule="evenodd"/>
        <path id="Caminho_1272" data-name="Caminho 1272" d="M200,620h4.359v4.359H200Z" transform="translate(-169.484 -484.857)" fill-rule="evenodd"/>
        <path id="Caminho_1273" data-name="Caminho 1273" d="M220,640h4.359v8.719H220V640Z" transform="translate(-185.124 -500.498)" fill-rule="evenodd"/>
        <path id="Caminho_1274" data-name="Caminho 1274" d="M240,680h4.359v8.719H240V680Z" transform="translate(-200.765 -531.779)" fill-rule="evenodd"/>
        <path id="Caminho_1275" data-name="Caminho 1275" d="M460,680h4.359v56.673H460V680Z" transform="translate(-372.811 -531.779)" fill-rule="evenodd"/>
        <path id="Caminho_1276" data-name="Caminho 1276" d="M260,720h4.359v8.719H260V720Z" transform="translate(-216.406 -563.06)" fill-rule="evenodd"/>
        <path id="Caminho_1277" data-name="Caminho 1277" d="M280,760h4.359v8.719H280V760Z" transform="translate(-232.046 -594.341)" fill-rule="evenodd"/>
        <path id="Caminho_1278" data-name="Caminho 1278" d="M300,800h4.359v4.359H300Z" transform="translate(-247.687 -625.622)" fill-rule="evenodd"/>
        <path id="Caminho_1279" data-name="Caminho 1279" d="M320,820h4.359v8.719H320V820Z" transform="translate(-263.327 -641.263)" fill-rule="evenodd"/>
        <path id="Caminho_1280" data-name="Caminho 1280" d="M340,860h4.359v8.719H340V860Z" transform="translate(-278.968 -672.544)" fill-rule="evenodd"/>
        <path id="Caminho_1281" data-name="Caminho 1281" d="M360,900h4.359v4.359H360Z" transform="translate(-294.608 -703.825)" fill-rule="evenodd"/>
        <path id="Caminho_1282" data-name="Caminho 1282" d="M380,920h4.359v4.359H380Z" transform="translate(-310.249 -719.465)" fill-rule="evenodd"/>
        <path id="Caminho_1283" data-name="Caminho 1283" d="M400,944.359V940h13.078v4.359Z" transform="translate(-325.889 -735.106)" fill-rule="evenodd"/>
      </g>
      <g id="Grupo_147" data-name="Grupo 147" transform="translate(4.359 4.359)">
        <path id="Caminho_1284" data-name="Caminho 1284" d="M106.157,20h8.719V33.078h13.078V41.8h-4.359V54.876h-4.359V37.438h-4.359V50.516h-4.359V41.8h-4.359V37.438H101.8V50.516h4.359V63.594H101.8V59.235H97.438V54.876H88.719v4.359h4.359v4.359h4.359v4.359H88.719V63.594H84.359V54.876H80V46.157h8.719V28.719h8.719v4.359h8.719V20Z" transform="translate(-80 -20)" fill="#92c270" fill-rule="evenodd"/>
        <path id="Caminho_1285" data-name="Caminho 1285" d="M160,240h4.359v4.359H160Z" transform="translate(-142.562 -192.046)" fill="#92c270" fill-rule="evenodd"/>
        <path id="Caminho_1286" data-name="Caminho 1286" d="M180,264.359V260h4.359v4.359Z" transform="translate(-158.203 -207.687)" fill="#92c270" fill-rule="evenodd"/>
      </g>
      <g id="Grupo_148" data-name="Grupo 148" transform="translate(13.078 21.797)">
        <path id="Caminho_1287" data-name="Caminho 1287" d="M133.078,100h4.359v4.359H141.8v8.719h4.359V100h4.359v17.438h4.359v17.438H141.8v4.359h-4.359v-4.359h-4.359v-4.359h-4.359v-4.359h-4.359V121.8H120v-4.359h8.719V121.8h4.359v4.359h4.359V113.078h-4.359V100Z" transform="translate(-120 -100)" fill="#548431" fill-rule="evenodd"/>
      </g>
      <g id="Grupo_149" data-name="Grupo 149" transform="translate(13.078 65.392)">
        <path id="Caminho_1288" data-name="Caminho 1288" d="M200,304.359V300h13.078v4.359Z" transform="translate(-182.562 -300)" fill="#ffbc71" fill-rule="evenodd"/>
        <path id="Caminho_1289" data-name="Caminho 1289" d="M153.078,320v4.359h-4.359v4.359h-4.359v4.359H140v-8.719h4.359V320h8.719Z" transform="translate(-135.641 -315.641)" fill="#ffbc71" fill-rule="evenodd"/>
        <path id="Caminho_1290" data-name="Caminho 1290" d="M320,340h8.719v4.359H320Z" transform="translate(-276.406 -331.281)" fill="#ffbc71" fill-rule="evenodd"/>
        <path id="Caminho_1291" data-name="Caminho 1291" d="M120,384.359V380h4.359v4.359Z" transform="translate(-120 -362.562)" fill="#ffbc71" fill-rule="evenodd"/>
        <path id="Caminho_1292" data-name="Caminho 1292" d="M220,404.359V400h8.719v4.359Z" transform="translate(-198.203 -378.203)" fill="#ffbc71" fill-rule="evenodd"/>
        <path id="Caminho_1293" data-name="Caminho 1293" d="M188.719,420v4.359h-4.359v4.359H180V420h8.719Z" transform="translate(-166.922 -393.843)" fill="#ffbc71" fill-rule="evenodd"/>
        <path id="Caminho_1294" data-name="Caminho 1294" d="M320,460h13.078v4.359H320Z" transform="translate(-276.406 -425.124)" fill="#ffbc71" fill-rule="evenodd"/>
        <path id="Caminho_1295" data-name="Caminho 1295" d="M273.078,584.359h-4.359v4.359h-4.359v4.359H260v-8.719h4.359V580h8.719Z" transform="translate(-229.484 -518.968)" fill="#ffbc71" fill-rule="evenodd"/>
        <path id="Caminho_1296" data-name="Caminho 1296" d="M400,824.359V820h8.719v4.359H400Z" transform="translate(-338.968 -706.654)" fill="#ffbc71" fill-rule="evenodd"/>
      </g>
      <g id="Grupo_150" data-name="Grupo 150" transform="translate(13.078 78.47)">
        <path id="Caminho_1297" data-name="Caminho 1297" d="M141.8,360h17.438v4.359H146.157v4.359h-8.719v4.359h-4.359v4.359h-4.359V381.8h-4.359v-4.359H120v-4.359h4.359v-4.359h8.719v-4.359H141.8Z" transform="translate(-120 -360)" fill="#d8722f" fill-rule="evenodd"/>
        <path id="Caminho_1298" data-name="Caminho 1298" d="M328.719,400h8.719v4.359H320V400h8.719Z" transform="translate(-276.406 -391.281)" fill="#d8722f" fill-rule="evenodd"/>
        <path id="Caminho_1299" data-name="Caminho 1299" d="M260,444.359V440h8.719v4.359Z" transform="translate(-229.484 -422.562)" fill="#d8722f" fill-rule="evenodd"/>
        <path id="Caminho_1300" data-name="Caminho 1300" d="M240,464.359V460h4.359v4.359Z" transform="translate(-213.843 -438.203)" fill="#d8722f" fill-rule="evenodd"/>
        <path id="Caminho_1301" data-name="Caminho 1301" d="M193.078,480v8.719h-4.359v4.359h-4.359v4.359H180V484.359h4.359V480h8.719Z" transform="translate(-166.922 -453.843)" fill="#d8722f" fill-rule="evenodd"/>
        <path id="Caminho_1302" data-name="Caminho 1302" d="M306.157,504.359h-8.719v4.359h-8.719v4.359H280v-8.719h8.719V500h17.438Z" transform="translate(-245.124 -469.484)" fill="#d8722f" fill-rule="evenodd"/>
        <path id="Caminho_1303" data-name="Caminho 1303" d="M400,520h4.359v4.359H400Z" transform="translate(-338.968 -485.124)" fill="#d8722f" fill-rule="evenodd"/>
        <path id="Caminho_1304" data-name="Caminho 1304" d="M340,600h13.078v4.359H340Z" transform="translate(-292.046 -547.687)" fill="#d8722f" fill-rule="evenodd"/>
        <path id="Caminho_1305" data-name="Caminho 1305" d="M281.8,660v4.359h-4.359v4.359h-4.359v4.359h-4.359v4.359h-4.359v-4.359H260v-4.359h4.359v-4.359h8.719V660Z" transform="translate(-229.484 -594.608)" fill="#d8722f" fill-rule="evenodd"/>
        <path id="Caminho_1306" data-name="Caminho 1306" d="M397.438,704.359v4.359H380v-4.359h4.359V700h8.719v4.359Z" transform="translate(-323.327 -625.889)" fill="#d8722f" fill-rule="evenodd"/>
        <path id="Caminho_1307" data-name="Caminho 1307" d="M364.359,740v4.359H360V740Z" transform="translate(-307.687 -657.17)" fill="#d8722f" fill-rule="evenodd"/>
        <path id="Caminho_1308" data-name="Caminho 1308" d="M344.359,793.078H340v-8.719h4.359V780h8.719v4.359h-4.359v4.359h-4.359Z" transform="translate(-292.046 -688.452)" fill="#d8722f" fill-rule="evenodd"/>
        <path id="Caminho_1309" data-name="Caminho 1309" d="M420,864.359V860h8.719v4.359Z" transform="translate(-354.608 -751.014)" fill="#d8722f" fill-rule="evenodd"/>
        <path id="Caminho_1310" data-name="Caminho 1310" d="M400,884.359V880h4.359v4.359Z" transform="translate(-338.968 -766.654)" fill="#d8722f" fill-rule="evenodd"/>
      </g>
      <g id="Grupo_151" data-name="Grupo 151" transform="translate(13.078 61.032)">
        <path id="Caminho_1311" data-name="Caminho 1311" d="M157.438,280h21.8v4.359h8.719v4.359h4.359V301.8h4.359v4.359H179.235v4.359h17.438v4.359h4.359v17.438h-4.359v-4.359H179.235v4.359h-8.719v8.719h8.719v-4.359h8.719v-4.359h8.719v4.359h8.719v30.516h4.359v8.719h-4.359v-4.359h-8.719v4.359h-4.359v4.359h-4.359v4.359h4.359v-4.359h17.438v26.157h-8.719v4.359h-4.359v4.359h4.359v-4.359h8.719v13.078H196.673V419.5h-4.359v-4.359h-4.359v-8.719h-4.359v-4.359h4.359v-4.359h4.359v-4.359h4.359v-4.359h-8.719v4.359h-4.359v4.359h-4.359v-4.359h-4.359v-8.719h-4.359v-4.359h4.359v-4.359h4.359v-4.359h4.359v-4.359h4.359V362.83h-8.719v4.359h-8.719v4.359h-4.359v-4.359H161.8V358.47h-4.359v-4.359h-4.359v-8.719h-4.359v-4.359h4.359v-4.359h4.359v-4.359H161.8v-8.719h4.359v-4.359h8.719v-4.359h-8.719v4.359H161.8v4.359h-8.719v4.359h-4.359v4.359h-4.359v-8.719H140v-4.359h4.359v-4.359h4.359v4.359h4.359v-4.359h4.359v-4.359h8.719v-4.359H161.8V301.8h13.078v-4.359H157.438V301.8h-8.719v4.359H140V301.8h4.359v-4.359h4.359v-4.359h4.359v-4.359h13.078v-4.359h-8.719V280Zm21.8,17.438h8.719v-4.359h-8.719v4.359Zm0,26.157h13.078v-4.359H179.235v4.359Zm-8.719,30.516h4.359v-4.359h4.359v-4.359h-8.719v4.359h-4.359v8.719h4.359v-4.359Zm13.078,0h13.078v-4.359H183.594v4.359Zm13.078,47.954h8.719v-4.359h-8.719v4.359Z" transform="translate(-135.641 -280)" fill="#ff924a" fill-rule="evenodd"/>
        <path id="Caminho_1312" data-name="Caminho 1312" d="M184.359,304.359H180V300h4.359Z" transform="translate(-166.922 -295.641)" fill="#ff924a" fill-rule="evenodd"/>
        <path id="Caminho_1313" data-name="Caminho 1313" d="M120,404.359V400h4.359v4.359Z" transform="translate(-120 -373.843)" fill="#ff924a" fill-rule="evenodd"/>
        <path id="Caminho_1314" data-name="Caminho 1314" d="M204.359,404.359H200V400h4.359Z" transform="translate(-182.562 -373.843)" fill="#ff924a" fill-rule="evenodd"/>
      </g>
    </g>
  </g>
</svg>
