<svg id="Donut" xmlns="http://www.w3.org/2000/svg" width="194.956" height="190.894" viewBox="0 0 194.956 190.894">
  <g id="Grupo_153" data-name="Grupo 153" transform="translate(0 0)">
    <path id="Caminho_1315" data-name="Caminho 1315" d="M440,24.062V20h20.308v4.062H440Z" transform="translate(-350.645 -20)" fill-rule="evenodd"/>
    <path id="Caminho_1316" data-name="Caminho 1316" d="M360,44.062V40h16.246v4.062Z" transform="translate(-286.892 -35.938)" fill-rule="evenodd"/>
    <path id="Caminho_1317" data-name="Caminho 1317" d="M540,40h16.246v4.062H540Z" transform="translate(-430.337 -35.938)" fill-rule="evenodd"/>
    <path id="Caminho_1318" data-name="Caminho 1318" d="M340,64.062V60h4.062v4.062Z" transform="translate(-270.953 -51.877)" fill-rule="evenodd"/>
    <path id="Caminho_1319" data-name="Caminho 1319" d="M620,60h12.185v4.062H620Z" transform="translate(-494.091 -51.877)" fill-rule="evenodd"/>
    <path id="Caminho_1320" data-name="Caminho 1320" d="M324.062,80v20.308H320V80Z" transform="translate(-255.015 -67.815)" fill-rule="evenodd"/>
    <path id="Caminho_1321" data-name="Caminho 1321" d="M680,80h8.123v4.062H680Z" transform="translate(-541.906 -67.815)" fill-rule="evenodd"/>
    <path id="Caminho_1322" data-name="Caminho 1322" d="M720,100h4.062v4.062H720Z" transform="translate(-573.783 -83.754)" fill-rule="evenodd"/>
    <path id="Caminho_1323" data-name="Caminho 1323" d="M740,120h4.062v4.062H740Z" transform="translate(-589.722 -99.692)" fill-rule="evenodd"/>
    <path id="Caminho_1324" data-name="Caminho 1324" d="M760,140h4.062v4.062H760Z" transform="translate(-605.66 -115.631)" fill-rule="evenodd"/>
    <path id="Caminho_1325" data-name="Caminho 1325" d="M780,160h4.062v4.062H780Z" transform="translate(-621.599 -131.569)" fill-rule="evenodd"/>
    <path id="Caminho_1326" data-name="Caminho 1326" d="M304.062,180v8.123H300V180Z" transform="translate(-239.076 -147.507)" fill-rule="evenodd"/>
    <path id="Caminho_1327" data-name="Caminho 1327" d="M800,180h4.062v4.062H800Z" transform="translate(-637.537 -147.507)" fill-rule="evenodd"/>
    <path id="Caminho_1328" data-name="Caminho 1328" d="M820,200h4.062v4.062H820Z" transform="translate(-653.475 -163.446)" fill-rule="evenodd"/>
    <path id="Caminho_1329" data-name="Caminho 1329" d="M284.062,220v8.123H280V220Z" transform="translate(-223.138 -179.384)" fill-rule="evenodd"/>
    <path id="Caminho_1330" data-name="Caminho 1330" d="M840,220h4.062v4.062H840Z" transform="translate(-669.414 -179.384)" fill-rule="evenodd"/>
    <path id="Caminho_1331" data-name="Caminho 1331" d="M860,240h4.062v8.123H860V240Z" transform="translate(-685.352 -195.323)" fill-rule="evenodd"/>
    <path id="Caminho_1332" data-name="Caminho 1332" d="M260,264.062V260h4.062v4.062Z" transform="translate(-207.2 -211.261)" fill-rule="evenodd"/>
    <path id="Caminho_1333" data-name="Caminho 1333" d="M240,284.062V280h4.062v4.062Z" transform="translate(-191.261 -227.2)" fill-rule="evenodd"/>
    <path id="Caminho_1334" data-name="Caminho 1334" d="M880,280h4.062v12.185H880V280Z" transform="translate(-701.291 -227.2)" fill-rule="evenodd"/>
    <path id="Caminho_1335" data-name="Caminho 1335" d="M220,304.062V300h4.062v4.062Z" transform="translate(-175.323 -243.138)" fill-rule="evenodd"/>
    <path id="Caminho_1336" data-name="Caminho 1336" d="M200,324.062V320h4.062v4.062Z" transform="translate(-159.384 -259.076)" fill-rule="evenodd"/>
    <path id="Caminho_1337" data-name="Caminho 1337" d="M160,344.062V340h8.123v4.062H160Z" transform="translate(-127.507 -275.015)" fill-rule="evenodd"/>
    <path id="Caminho_1338" data-name="Caminho 1338" d="M900,340h4.062v8.123H900V340Z" transform="translate(-717.229 -275.015)" fill-rule="evenodd"/>
    <path id="Caminho_1339" data-name="Caminho 1339" d="M120,364.062V360h8.123v4.062H120Z" transform="translate(-95.631 -290.953)" fill-rule="evenodd"/>
    <path id="Caminho_1340" data-name="Caminho 1340" d="M80,384.062V380h8.123v4.062H80Z" transform="translate(-63.754 -306.892)" fill-rule="evenodd"/>
    <path id="Caminho_1341" data-name="Caminho 1341" d="M460,384.062V380h12.185v4.062Z" transform="translate(-366.584 -306.892)" fill-rule="evenodd"/>
    <path id="Caminho_1342" data-name="Caminho 1342" d="M920,380h4.062v12.185H920V380Z" transform="translate(-733.168 -306.892)" fill-rule="evenodd"/>
    <path id="Caminho_1343" data-name="Caminho 1343" d="M40,404.062V400h8.123v4.062H40Z" transform="translate(-31.877 -322.83)" fill-rule="evenodd"/>
    <path id="Caminho_1344" data-name="Caminho 1344" d="M420,404.062V400h8.123v4.062H420Z" transform="translate(-334.707 -322.83)" fill-rule="evenodd"/>
    <path id="Caminho_1345" data-name="Caminho 1345" d="M520,400h8.123v4.062H520Z" transform="translate(-414.399 -322.83)" fill-rule="evenodd"/>
    <path id="Caminho_1346" data-name="Caminho 1346" d="M24.062,420v12.185H20V420Z" transform="translate(-15.938 -338.768)" fill-rule="evenodd"/>
    <path id="Caminho_1347" data-name="Caminho 1347" d="M400,424.062V420h4.062v4.062Z" transform="translate(-318.768 -338.768)" fill-rule="evenodd"/>
    <path id="Caminho_1348" data-name="Caminho 1348" d="M560,420h4.062v8.123H560V420Z" transform="translate(-446.276 -338.768)" fill-rule="evenodd"/>
    <path id="Caminho_1349" data-name="Caminho 1349" d="M380,444.062V440h4.062v4.062Z" transform="translate(-302.83 -354.707)" fill-rule="evenodd"/>
    <path id="Caminho_1350" data-name="Caminho 1350" d="M940,440h4.062v20.308H940Z" transform="translate(-749.106 -354.707)" fill-rule="evenodd"/>
    <path id="Caminho_1351" data-name="Caminho 1351" d="M364.062,460v20.308H360V460Z" transform="translate(-286.892 -370.645)" fill-rule="evenodd"/>
    <path id="Caminho_1352" data-name="Caminho 1352" d="M580,460h4.062v12.185H580V460Z" transform="translate(-462.214 -370.645)" fill-rule="evenodd"/>
    <path id="Caminho_1353" data-name="Caminho 1353" d="M0,480H4.062v16.246H0Z" transform="translate(0 -386.584)" fill-rule="evenodd"/>
    <path id="Caminho_1354" data-name="Caminho 1354" d="M600,520h12.185v4.062h-8.123v8.123H600Z" transform="translate(-478.153 -418.461)" fill-rule="evenodd"/>
    <path id="Caminho_1355" data-name="Caminho 1355" d="M800,524.062V520h8.123v4.062Z" transform="translate(-637.537 -418.461)" fill-rule="evenodd"/>
    <path id="Caminho_1356" data-name="Caminho 1356" d="M660,540h4.062v8.123H660V540Z" transform="translate(-525.968 -434.399)" fill-rule="evenodd"/>
    <path id="Caminho_1357" data-name="Caminho 1357" d="M784.062,540v40.616H780V540Z" transform="translate(-621.599 -434.399)" fill-rule="evenodd"/>
    <path id="Caminho_1358" data-name="Caminho 1358" d="M840,540h4.062v8.123H840V540Z" transform="translate(-669.414 -434.399)" fill-rule="evenodd"/>
    <path id="Caminho_1359" data-name="Caminho 1359" d="M924.062,540v8.123H920V540Z" transform="translate(-733.168 -434.399)" fill-rule="evenodd"/>
    <path id="Caminho_1360" data-name="Caminho 1360" d="M20,560h8.123v4.062H24.062v8.123H20V560Z" transform="translate(-15.938 -450.337)" fill-rule="evenodd"/>
    <path id="Caminho_1361" data-name="Caminho 1361" d="M80,564.062V560h4.062v4.062Z" transform="translate(-63.754 -450.337)" fill-rule="evenodd"/>
    <path id="Caminho_1362" data-name="Caminho 1362" d="M200,564.062V560h8.123v4.062Z" transform="translate(-159.384 -450.337)" fill-rule="evenodd"/>
    <path id="Caminho_1363" data-name="Caminho 1363" d="M380,560h4.062v4.062H380Z" transform="translate(-302.83 -450.337)" fill-rule="evenodd"/>
    <path id="Caminho_1364" data-name="Caminho 1364" d="M60,580h4.062v4.062H60Z" transform="translate(-47.815 -466.276)" fill-rule="evenodd"/>
    <path id="Caminho_1365" data-name="Caminho 1365" d="M100,580h4.062v20.308H100V580Z" transform="translate(-79.692 -466.276)" fill-rule="evenodd"/>
    <path id="Caminho_1366" data-name="Caminho 1366" d="M160,584.062V580h8.123v4.062H160Z" transform="translate(-127.507 -466.276)" fill-rule="evenodd"/>
    <path id="Caminho_1367" data-name="Caminho 1367" d="M240,580h4.062v4.062H240Z" transform="translate(-191.261 -466.276)" fill-rule="evenodd"/>
    <path id="Caminho_1368" data-name="Caminho 1368" d="M400,580h4.062v4.062H400Z" transform="translate(-318.768 -466.276)" fill-rule="evenodd"/>
    <path id="Caminho_1369" data-name="Caminho 1369" d="M584.062,580v8.123H580V580Z" transform="translate(-462.214 -466.276)" fill-rule="evenodd"/>
    <path id="Caminho_1370" data-name="Caminho 1370" d="M680,580h8.123v4.062H680Z" transform="translate(-541.906 -466.276)" fill-rule="evenodd"/>
    <path id="Caminho_1371" data-name="Caminho 1371" d="M860,580h12.185v12.185h-4.062v-8.123H860Z" transform="translate(-685.352 -466.276)" fill-rule="evenodd"/>
    <path id="Caminho_1372" data-name="Caminho 1372" d="M144.062,600v16.246H140V600Z" transform="translate(-111.569 -482.214)" fill-rule="evenodd"/>
    <path id="Caminho_1373" data-name="Caminho 1373" d="M260,600h4.062v4.062H260Z" transform="translate(-207.2 -482.214)" fill-rule="evenodd"/>
    <path id="Caminho_1374" data-name="Caminho 1374" d="M420,600h12.185v4.062H420Z" transform="translate(-334.707 -482.214)" fill-rule="evenodd"/>
    <path id="Caminho_1375" data-name="Caminho 1375" d="M720,600h4.062v36.554H720V600Z" transform="translate(-573.783 -482.214)" fill-rule="evenodd"/>
    <path id="Caminho_1376" data-name="Caminho 1376" d="M40,620h4.062v12.185H40V620Z" transform="translate(-31.877 -498.153)" fill-rule="evenodd"/>
    <path id="Caminho_1377" data-name="Caminho 1377" d="M280,620h4.062v8.123H280V620Z" transform="translate(-223.138 -498.153)" fill-rule="evenodd"/>
    <path id="Caminho_1378" data-name="Caminho 1378" d="M480,620h4.062v4.062h8.123v4.062h-8.123v16.246H480Z" transform="translate(-382.522 -498.153)" fill-rule="evenodd"/>
    <path id="Caminho_1379" data-name="Caminho 1379" d="M540,624.062V620h8.123v4.062H540Z" transform="translate(-430.337 -498.153)" fill-rule="evenodd"/>
    <path id="Caminho_1380" data-name="Caminho 1380" d="M884.062,640v8.123H880V640Z" transform="translate(-701.291 -514.091)" fill-rule="evenodd"/>
    <path id="Caminho_1381" data-name="Caminho 1381" d="M300,660h4.062v16.246H300V660Z" transform="translate(-239.076 -530.03)" fill-rule="evenodd"/>
    <path id="Caminho_1382" data-name="Caminho 1382" d="M60,680h4.062v8.123H60V680Z" transform="translate(-47.815 -545.968)" fill-rule="evenodd"/>
    <path id="Caminho_1383" data-name="Caminho 1383" d="M120,680h4.062v4.062H120Z" transform="translate(-95.631 -545.968)" fill-rule="evenodd"/>
    <path id="Caminho_1384" data-name="Caminho 1384" d="M380,684.062V680h8.123v4.062Z" transform="translate(-302.83 -545.968)" fill-rule="evenodd"/>
    <path id="Caminho_1385" data-name="Caminho 1385" d="M864.062,680v8.123H860V680Z" transform="translate(-685.352 -545.968)" fill-rule="evenodd"/>
    <path id="Caminho_1386" data-name="Caminho 1386" d="M364.062,700v8.123H360V700Z" transform="translate(-286.892 -561.906)" fill-rule="evenodd"/>
    <path id="Caminho_1387" data-name="Caminho 1387" d="M420,700h4.062v16.246H420V700Z" transform="translate(-334.707 -561.906)" fill-rule="evenodd"/>
    <path id="Caminho_1388" data-name="Caminho 1388" d="M80,720h4.062v8.123H80V720Z" transform="translate(-63.754 -577.845)" fill-rule="evenodd"/>
    <path id="Caminho_1389" data-name="Caminho 1389" d="M844.062,720v8.123H840V720Z" transform="translate(-669.414 -577.845)" fill-rule="evenodd"/>
    <path id="Caminho_1390" data-name="Caminho 1390" d="M320,740h8.123v4.062H320Z" transform="translate(-255.015 -593.783)" fill-rule="evenodd"/>
    <path id="Caminho_1391" data-name="Caminho 1391" d="M464.062,740v8.123H460V740Z" transform="translate(-366.584 -593.783)" fill-rule="evenodd"/>
    <path id="Caminho_1392" data-name="Caminho 1392" d="M764.062,740v8.123H760V740Z" transform="translate(-605.66 -593.783)" fill-rule="evenodd"/>
    <path id="Caminho_1393" data-name="Caminho 1393" d="M100,760h4.062v4.062H100Z" transform="translate(-79.692 -609.722)" fill-rule="evenodd"/>
    <path id="Caminho_1394" data-name="Caminho 1394" d="M824.062,760v8.123H820V760Z" transform="translate(-653.475 -609.722)" fill-rule="evenodd"/>
    <path id="Caminho_1395" data-name="Caminho 1395" d="M120,780h4.062v4.062H120Z" transform="translate(-95.631 -625.66)" fill-rule="evenodd"/>
    <path id="Caminho_1396" data-name="Caminho 1396" d="M440,780h4.062v4.062H440Z" transform="translate(-350.645 -625.66)" fill-rule="evenodd"/>
    <path id="Caminho_1397" data-name="Caminho 1397" d="M740,780h4.062v4.062H740Z" transform="translate(-589.722 -625.66)" fill-rule="evenodd"/>
    <path id="Caminho_1398" data-name="Caminho 1398" d="M140,800h4.062v4.062H140Z" transform="translate(-111.569 -641.599)" fill-rule="evenodd"/>
    <path id="Caminho_1399" data-name="Caminho 1399" d="M800,804.062V800h4.062v4.062Z" transform="translate(-637.537 -641.599)" fill-rule="evenodd"/>
    <path id="Caminho_1400" data-name="Caminho 1400" d="M160,820h4.062v4.062H160Z" transform="translate(-127.507 -657.537)" fill-rule="evenodd"/>
    <path id="Caminho_1401" data-name="Caminho 1401" d="M780,824.062V820h4.062v4.062Z" transform="translate(-621.599 -657.537)" fill-rule="evenodd"/>
    <path id="Caminho_1402" data-name="Caminho 1402" d="M180,840h4.062v4.062H180Z" transform="translate(-143.446 -673.475)" fill-rule="evenodd"/>
    <path id="Caminho_1403" data-name="Caminho 1403" d="M760,844.062V840h4.062v4.062Z" transform="translate(-605.66 -673.475)" fill-rule="evenodd"/>
    <path id="Caminho_1404" data-name="Caminho 1404" d="M200,860h4.062v4.062H200Z" transform="translate(-159.384 -689.414)" fill-rule="evenodd"/>
    <path id="Caminho_1405" data-name="Caminho 1405" d="M740,864.062V860h4.062v4.062Z" transform="translate(-589.722 -689.414)" fill-rule="evenodd"/>
    <path id="Caminho_1406" data-name="Caminho 1406" d="M220,880h8.123v4.062H220Z" transform="translate(-175.323 -705.352)" fill-rule="evenodd"/>
    <path id="Caminho_1407" data-name="Caminho 1407" d="M700,884.062V880h8.123v4.062H700Z" transform="translate(-557.845 -705.352)" fill-rule="evenodd"/>
    <path id="Caminho_1408" data-name="Caminho 1408" d="M260,900h8.123v4.062H260Z" transform="translate(-207.2 -721.291)" fill-rule="evenodd"/>
    <path id="Caminho_1409" data-name="Caminho 1409" d="M660,904.062V900h8.123v4.062H660Z" transform="translate(-525.968 -721.291)" fill-rule="evenodd"/>
    <path id="Caminho_1410" data-name="Caminho 1410" d="M300,920h12.185v4.062H300Z" transform="translate(-239.076 -737.229)" fill-rule="evenodd"/>
    <path id="Caminho_1411" data-name="Caminho 1411" d="M600,924.062V920h12.185v4.062H600Z" transform="translate(-478.153 -737.229)" fill-rule="evenodd"/>
    <path id="Caminho_1412" data-name="Caminho 1412" d="M360,944.062V940h48.739v4.062H360Z" transform="translate(-286.892 -753.167)" fill-rule="evenodd"/>
  </g>
  <g id="Grupo_154" data-name="Grupo 154" transform="translate(56.862 36.554)">
    <path id="Caminho_1413" data-name="Caminho 1413" d="M760,200h4.062v8.123H760V200Z" transform="translate(-662.522 -200)" fill="#d554aa" fill-rule="evenodd"/>
    <path id="Caminho_1414" data-name="Caminho 1414" d="M440,344.062V340h8.123v4.062H440Z" transform="translate(-407.507 -311.569)" fill="#d554aa" fill-rule="evenodd"/>
    <path id="Caminho_1415" data-name="Caminho 1415" d="M300,524.062V520h4.062v4.062Z" transform="translate(-295.938 -455.015)" fill="#d554aa" fill-rule="evenodd"/>
    <path id="Caminho_1416" data-name="Caminho 1416" d="M280,540h4.062v4.062H280Z" transform="translate(-280 -470.953)" fill="#d554aa" fill-rule="evenodd"/>
  </g>
  <g id="Grupo_155" data-name="Grupo 155" transform="translate(32.493 28.431)">
    <path id="Caminho_1417" data-name="Caminho 1417" d="M620,160h8.123v4.062H620Z" transform="translate(-526.584 -160)" fill="#4bcb6f" fill-rule="evenodd"/>
    <path id="Caminho_1418" data-name="Caminho 1418" d="M704.062,300v8.123H700V300Z" transform="translate(-590.337 -271.569)" fill="#4bcb6f" fill-rule="evenodd"/>
    <path id="Caminho_1419" data-name="Caminho 1419" d="M160,420h8.123v4.062H160Z" transform="translate(-160 -367.199)" fill="#4bcb6f" fill-rule="evenodd"/>
  </g>
  <g id="Grupo_156" data-name="Grupo 156" transform="translate(60.924 16.246)">
    <path id="Caminho_1420" data-name="Caminho 1420" d="M420,100h4.062v8.123H420V100Z" transform="translate(-395.631 -100)" fill="#6798d5" fill-rule="evenodd"/>
    <path id="Caminho_1421" data-name="Caminho 1421" d="M320,284.062V280h4.062v4.062Z" transform="translate(-315.938 -243.446)" fill="#6798d5" fill-rule="evenodd"/>
    <path id="Caminho_1422" data-name="Caminho 1422" d="M300,304.062V300h4.062v4.062Z" transform="translate(-300 -259.384)" fill="#6798d5" fill-rule="evenodd"/>
    <path id="Caminho_1423" data-name="Caminho 1423" d="M860,444.062V440h8.123v4.062H860Z" transform="translate(-746.276 -370.953)" fill="#6798d5" fill-rule="evenodd"/>
  </g>
  <g id="Grupo_157" data-name="Grupo 157" transform="translate(8.123 4.062)">
    <path id="Caminho_1424" data-name="Caminho 1424" d="M121.232,40h20.308v4.062h16.246v4.062H169.97v4.062h8.123v4.062h4.062v4.062h4.062v4.062h4.062v4.062h4.062v4.062H198.4v4.062h4.062v4.062h4.062v20.308h-4.062v12.185H198.4v4.062H194.34v4.062h-4.062v8.123h-4.062V169.97h-4.062V145.6h-4.062V133.416h-4.062v-4.062h-8.123v-4.062h-4.062v-4.062h-4.062v-8.123h-4.062v-8.123h-4.062v-4.062h-8.123V96.862h-8.123V92.8H117.17v4.062h-8.123v4.062h-4.062v4.062h-4.062v4.062H96.862v4.062H92.8v8.123H88.739v8.123H72.493v4.062H64.369v8.123H60.308v16.246H56.246V137.478H52.185v-4.062H48.123v8.123H44.062V125.293H40V117.17h8.123v-4.062h8.123v-4.062h8.123v-4.062h8.123v-4.062h4.062V96.862h4.062V92.8h4.062V88.739h4.062V84.677H92.8V76.554h4.062V68.431h4.062V48.123h4.062V44.062h16.246V40ZM117.17,60.308h4.062V52.185H117.17v8.123Zm44.677,8.123h4.062V64.369h-8.123v4.062Zm24.369,12.185h4.062V72.493h-4.062v8.123ZM96.862,92.8H92.8v4.062h4.062V92.8h4.062V88.739H96.862V92.8Zm77.17,8.123h4.062V92.8h-4.062v8.123Zm-105.6,20.308h4.062V117.17H64.369v4.062Z" transform="translate(-40 -40)" fill="#9a4b4b" fill-rule="evenodd"/>
  </g>
  <g id="Grupo_158" data-name="Grupo 158" transform="translate(4.062 52.801)">
    <path id="Caminho_1425" data-name="Caminho 1425" d="M764.37,280h4.062v12.185h4.062v8.123h4.062v12.185h4.062V332.8h-4.062v8.123H764.37V332.8h-4.062v-4.062h-8.123V332.8h-4.062v40.616h-4.062v8.123H740V361.232h4.062V320.616h4.062v-8.123h4.062v-4.062h4.062v-4.062h4.062V292.185h4.062V280Zm4.062,36.554h4.062v-4.062H764.37v4.062Z" transform="translate(-593.783 -280)" fill="#7b2b2b" fill-rule="evenodd"/>
    <path id="Caminho_1426" data-name="Caminho 1426" d="M204.985,397.478h-4.062V381.232h-4.062V377.17h-8.123v4.062h-4.062v8.123h-8.123V373.108h-4.062v-8.123h-4.062v-4.062h-4.062v-4.062h-4.062V352.8h-8.123v4.062h-8.123v4.062H140V348.739h4.062v-8.123h8.123v-4.062h16.246v-8.123h4.062v-8.123h4.062v-4.062h4.062v-4.062h4.062v-4.062h4.062v-4.062h8.123V300h16.246v4.062h8.123v4.062h8.123v4.062h4.062v8.123h4.062v8.123h4.062v4.062H245.6v4.062h8.123v4.062h4.062V352.8h4.062v8.123h-4.062v-4.062h-8.123v-8.123H245.6v-4.062H233.416V332.493h-4.062v-8.123h-4.062v-4.062H217.17v-4.062H204.985v4.062h-8.123v4.062H192.8v4.062h-4.062v4.062h-4.062V352.8h4.062v4.062H192.8v4.062h4.062v4.062h12.185v24.369h-4.062v8.123Zm0-85.293h4.062v-4.062h-8.123v4.062Zm-32.493,36.554h-4.062V352.8h4.062v-4.062h4.062v-4.062h-4.062v4.062Z" transform="translate(-115.631 -295.938)" fill="#7b2b2b" fill-rule="evenodd"/>
    <path id="Caminho_1427" data-name="Caminho 1427" d="M20,480.308V464.062h4.062V460h4.062v16.246h4.062v-8.123h4.062v4.062h4.062v12.185H36.246v-4.062H32.185v4.062H28.123v-4.062H20Z" transform="translate(-20 -423.446)" fill="#7b2b2b" fill-rule="evenodd"/>
    <path id="Caminho_1428" data-name="Caminho 1428" d="M120,624.062V620h4.062v12.185H120v-8.123Z" transform="translate(-99.692 -550.953)" fill="#7b2b2b" fill-rule="evenodd"/>
  </g>
  <g id="Grupo_159" data-name="Grupo 159" transform="translate(36.554 121.847)">
    <path id="Caminho_1429" data-name="Caminho 1429" d="M184.062,620h8.123v8.123h4.062v8.123h4.062v16.246h-8.123v-4.062h-4.062v-4.062h-4.062v-4.062H180V624.062h4.062Z" transform="translate(-180 -620)" fill="#d7c47f" fill-rule="evenodd"/>
    <path id="Caminho_1430" data-name="Caminho 1430" d="M412.8,620h8.123v4.062h4.062v20.308h-4.062v8.123h-4.062v4.062h-8.123v4.062h-8.123v4.061H388.431v4.062H376.246v-4.062H360v-4.061h24.369v-4.062h8.123v-8.123h4.062v-8.123h4.062v-8.123h4.062v-4.062h4.062v-4.062H412.8Z" transform="translate(-323.446 -620)" fill="#d7c47f" fill-rule="evenodd"/>
  </g>
  <g id="Grupo_160" data-name="Grupo 160" transform="translate(8.123 105.601)">
    <path id="Caminho_1431" data-name="Caminho 1431" d="M157.786,540h8.123v8.123h4.062v4.062h8.123v36.554h4.062V592.8h4.062v-4.062h4.062v-8.123h4.062V540h8.123v8.123h4.062v4.062h8.123v8.123h-4.062v8.123h-4.062v8.123h-4.062v8.123H198.4V592.8H194.34v4.062h-4.062v4.062h-4.062v4.062h-4.062v4.062h-8.123v4.062h-8.123v4.062H153.724v4.062H104.985V617.17H92.8v-4.062H84.677v-4.062H76.554v-4.062H72.493v-4.062H68.431v-4.062H64.369V592.8H60.308v-4.062H56.246v-4.062H52.185v-8.123H48.123v-8.123H44.062V556.246H40v-8.123h4.062v4.062h4.062v-4.062h4.062v20.308h4.062v4.062h4.062v-4.062h4.062V552.185h8.123v-4.062h8.123v4.062h4.062v4.062h4.062v8.123H92.8v16.246h4.062v4.062h8.123v-4.062h4.062v-8.123h8.123v16.246h4.062V592.8h4.062v-4.062h4.062v-8.123h4.062V564.369h8.123v-4.062h8.123v-4.062h4.062v-8.123h4.062V540ZM88.739,584.677V572.493H84.677v-8.123H80.616v-8.123H72.493v4.062H68.431v16.246h4.062v4.062h4.062v4.062h4.062v4.062h8.123v-4.062Zm32.493,16.246v4.062h12.185v-4.062H145.6v-4.062h8.123V592.8h8.123v-4.062h4.062v-8.123h4.062V560.308h-4.062v-4.062h-8.123v4.062h-4.062v4.062h-4.062v4.062H145.6v8.123h-4.062v8.123h-4.062V592.8h-8.123v4.062H104.985v4.062h16.246Z" transform="translate(-40 -540)" fill="#bb9354" fill-rule="evenodd"/>
  </g>
</svg>
