<svg id="Hamburguer" xmlns="http://www.w3.org/2000/svg" width="209.254" height="130.783" viewBox="0 0 209.254 130.783">
  <g id="Grupo_161" data-name="Grupo 161" transform="translate(0 0)">
    <path id="Caminho_1432" data-name="Caminho 1432" d="M378.47,184.359V180H300v4.359h78.47Z" transform="translate(-234.608 -180)" fill-rule="evenodd"/>
    <path id="Caminho_1433" data-name="Caminho 1433" d="M673.078,204.359V200H660v4.359Z" transform="translate(-516.138 -195.641)" fill-rule="evenodd"/>
    <path id="Caminho_1434" data-name="Caminho 1434" d="M253.078,200H240v4.359h13.078Z" transform="translate(-187.687 -195.641)" fill-rule="evenodd"/>
    <path id="Caminho_1435" data-name="Caminho 1435" d="M728.719,224.359V220H720v4.359h8.719Z" transform="translate(-563.06 -211.281)" fill-rule="evenodd"/>
    <path id="Caminho_1436" data-name="Caminho 1436" d="M208.719,220H200v4.359h8.719Z" transform="translate(-156.406 -211.281)" fill-rule="evenodd"/>
    <path id="Caminho_1437" data-name="Caminho 1437" d="M764.359,244.359V240H760v4.359Z" transform="translate(-594.341 -226.922)" fill-rule="evenodd"/>
    <path id="Caminho_1438" data-name="Caminho 1438" d="M184.359,240H180v4.359h4.359Z" transform="translate(-140.765 -226.922)" fill-rule="evenodd"/>
    <path id="Caminho_1439" data-name="Caminho 1439" d="M784.36,264.359V260H780v4.359Z" transform="translate(-609.982 -242.562)" fill-rule="evenodd"/>
    <path id="Caminho_1440" data-name="Caminho 1440" d="M164.359,260H160v4.359h4.359Z" transform="translate(-125.124 -242.562)" fill-rule="evenodd"/>
    <path id="Caminho_1441" data-name="Caminho 1441" d="M804.359,284.359V280H800v4.359Z" transform="translate(-625.622 -258.203)" fill-rule="evenodd"/>
    <path id="Caminho_1442" data-name="Caminho 1442" d="M144.359,280H140v4.359h4.359Z" transform="translate(-109.484 -258.203)" fill-rule="evenodd"/>
    <path id="Caminho_1443" data-name="Caminho 1443" d="M820,300v8.719h4.359V300Z" transform="translate(-641.263 -273.843)" fill-rule="evenodd"/>
    <path id="Caminho_1444" data-name="Caminho 1444" d="M124.359,300H120v8.719h4.359V300Z" transform="translate(-93.843 -273.843)" fill-rule="evenodd"/>
    <path id="Caminho_1445" data-name="Caminho 1445" d="M840,340v8.719h4.359V340Z" transform="translate(-656.903 -305.124)" fill-rule="evenodd"/>
    <path id="Caminho_1446" data-name="Caminho 1446" d="M104.359,340H100v8.719h4.359Z" transform="translate(-78.203 -305.124)" fill-rule="evenodd"/>
    <path id="Caminho_1447" data-name="Caminho 1447" d="M276.94,384.359V380H120v4.359h39.235v4.359h4.359v-4.359H202.83v4.359h8.719v-4.359H276.94Z" transform="translate(-93.843 -336.405)" fill-rule="evenodd"/>
    <path id="Caminho_1448" data-name="Caminho 1448" d="M844.359,404.359V400H840v4.359Z" transform="translate(-656.903 -352.046)" fill-rule="evenodd"/>
    <path id="Caminho_1449" data-name="Caminho 1449" d="M104.359,400H100v8.719h4.359V400Z" transform="translate(-78.203 -352.046)" fill-rule="evenodd"/>
    <path id="Caminho_1450" data-name="Caminho 1450" d="M860,420v4.359h4.359V420Z" transform="translate(-672.544 -367.687)" fill-rule="evenodd"/>
    <path id="Caminho_1451" data-name="Caminho 1451" d="M697.438,424.359V420H680v4.359Z" transform="translate(-531.779 -367.687)" fill-rule="evenodd"/>
    <path id="Caminho_1452" data-name="Caminho 1452" d="M544.359,424.359V420H540v4.359Z" transform="translate(-422.295 -367.687)" fill-rule="evenodd"/>
    <path id="Caminho_1453" data-name="Caminho 1453" d="M484.359,420H480v4.359h4.359Z" transform="translate(-375.373 -367.687)" fill-rule="evenodd"/>
    <path id="Caminho_1454" data-name="Caminho 1454" d="M324.359,424.359V420H320v4.359Z" transform="translate(-250.249 -367.687)" fill-rule="evenodd"/>
    <path id="Caminho_1455" data-name="Caminho 1455" d="M284.359,420H280v4.359h4.359Z" transform="translate(-218.968 -367.687)" fill-rule="evenodd"/>
    <path id="Caminho_1456" data-name="Caminho 1456" d="M180,424.359h4.359v4.359h4.359V420H180Z" transform="translate(-140.765 -367.687)" fill-rule="evenodd"/>
    <path id="Caminho_1457" data-name="Caminho 1457" d="M813.078,440h-4.359v4.359H800v4.359h13.078Z" transform="translate(-625.622 -383.327)" fill-rule="evenodd"/>
    <path id="Caminho_1458" data-name="Caminho 1458" d="M768.719,444.359V440H760v4.359h8.719Z" transform="translate(-594.341 -383.327)" fill-rule="evenodd"/>
    <path id="Caminho_1459" data-name="Caminho 1459" d="M664.359,440H660v4.359h4.359Z" transform="translate(-516.138 -383.327)" fill-rule="evenodd"/>
    <path id="Caminho_1460" data-name="Caminho 1460" d="M564.359,444.359V440H560v4.359Z" transform="translate(-437.935 -383.327)" fill-rule="evenodd"/>
    <path id="Caminho_1461" data-name="Caminho 1461" d="M448.719,440H440v4.359h8.719Z" transform="translate(-344.092 -383.327)" fill-rule="evenodd"/>
    <path id="Caminho_1462" data-name="Caminho 1462" d="M344.359,444.359V440H340v4.359Z" transform="translate(-265.889 -383.327)" fill-rule="evenodd"/>
    <path id="Caminho_1463" data-name="Caminho 1463" d="M264.359,440H260v4.359h4.359Z" transform="translate(-203.327 -383.327)" fill-rule="evenodd"/>
    <path id="Caminho_1464" data-name="Caminho 1464" d="M164.359,440H160v4.359h4.359Z" transform="translate(-125.124 -383.327)" fill-rule="evenodd"/>
    <path id="Caminho_1465" data-name="Caminho 1465" d="M84.359,440H80v8.719H93.078v4.359h13.078v4.359h4.359v-4.359h4.359v4.359h4.359v-4.359h34.876v-4.359h-8.719v-4.359h-4.359v4.359h-21.8v-4.359h-8.719v4.359H97.438v-4.359H84.359Z" transform="translate(-62.562 -383.327)" fill-rule="evenodd"/>
    <path id="Caminho_1466" data-name="Caminho 1466" d="M597.438,460H580v4.359h8.719v4.359h39.235v-4.359H597.438Z" transform="translate(-453.576 -398.968)" fill-rule="evenodd"/>
    <path id="Caminho_1467" data-name="Caminho 1467" d="M424.359,460H420v4.359h4.359Z" transform="translate(-328.452 -398.968)" fill-rule="evenodd"/>
    <path id="Caminho_1468" data-name="Caminho 1468" d="M864.359,484.359V480H860v4.359Z" transform="translate(-672.544 -414.608)" fill-rule="evenodd"/>
    <path id="Caminho_1469" data-name="Caminho 1469" d="M770.516,500v4.359h-4.359v8.719H748.719v-4.359h-4.359v4.359H740v4.359h4.359V521.8h4.359v-4.359h21.8v-8.719h4.359V500Z" transform="translate(-578.7 -430.249)" fill-rule="evenodd"/>
    <path id="Caminho_1470" data-name="Caminho 1470" d="M813.078,504.359V500H800v4.359h13.078Z" transform="translate(-625.622 -430.249)" fill-rule="evenodd"/>
    <path id="Caminho_1471" data-name="Caminho 1471" d="M573.078,504.359V500H560v4.359Z" transform="translate(-437.935 -430.249)" fill-rule="evenodd"/>
    <path id="Caminho_1472" data-name="Caminho 1472" d="M433.078,504.359V500H420v4.359Z" transform="translate(-328.452 -430.249)" fill-rule="evenodd"/>
    <path id="Caminho_1473" data-name="Caminho 1473" d="M124.359,500H120v4.359h4.359Z" transform="translate(-93.843 -430.249)" fill-rule="evenodd"/>
    <path id="Caminho_1474" data-name="Caminho 1474" d="M784.36,520H780v4.359h4.359Z" transform="translate(-609.982 -445.889)" fill-rule="evenodd"/>
    <path id="Caminho_1475" data-name="Caminho 1475" d="M624.359,524.359V520H620v4.359Z" transform="translate(-484.857 -445.889)" fill-rule="evenodd"/>
    <path id="Caminho_1476" data-name="Caminho 1476" d="M497.438,520H480v4.359h17.438Z" transform="translate(-375.373 -445.889)" fill-rule="evenodd"/>
    <path id="Caminho_1477" data-name="Caminho 1477" d="M404.359,520H400v4.359h4.359Z" transform="translate(-312.811 -445.889)" fill-rule="evenodd"/>
    <path id="Caminho_1478" data-name="Caminho 1478" d="M213.078,520v4.359H200v4.359h21.8v-4.359h-4.359V520Z" transform="translate(-156.406 -445.889)" fill-rule="evenodd"/>
    <path id="Caminho_1479" data-name="Caminho 1479" d="M168.719,524.359V520H160v4.359Z" transform="translate(-125.124 -445.889)" fill-rule="evenodd"/>
    <path id="Caminho_1480" data-name="Caminho 1480" d="M104.359,520H100v13.078h4.359V541.8h4.359v-8.719h8.719v4.359H121.8v-8.719h-8.719v-4.359h-4.359v4.359h-4.359V520Z" transform="translate(-78.203 -445.889)" fill-rule="evenodd"/>
    <path id="Caminho_1481" data-name="Caminho 1481" d="M648.719,544.359V540H640v4.359Z" transform="translate(-500.498 -461.53)" fill-rule="evenodd"/>
    <path id="Caminho_1482" data-name="Caminho 1482" d="M368.719,544.359V540H360v4.359Z" transform="translate(-281.53 -461.53)" fill-rule="evenodd"/>
    <path id="Caminho_1483" data-name="Caminho 1483" d="M684.359,564.359V560H680v4.359Z" transform="translate(-531.779 -477.17)" fill-rule="evenodd"/>
    <path id="Caminho_1484" data-name="Caminho 1484" d="M561.8,560H540v4.359h21.8Z" transform="translate(-422.295 -477.17)" fill-rule="evenodd"/>
    <path id="Caminho_1485" data-name="Caminho 1485" d="M426.157,564.359V560H400v4.359Z" transform="translate(-312.811 -477.17)" fill-rule="evenodd"/>
    <path id="Caminho_1486" data-name="Caminho 1486" d="M344.359,560H340v4.359h4.359Z" transform="translate(-265.889 -477.17)" fill-rule="evenodd"/>
    <path id="Caminho_1487" data-name="Caminho 1487" d="M304.359,564.359V560H300v4.359Z" transform="translate(-234.608 -477.17)" fill-rule="evenodd"/>
    <path id="Caminho_1488" data-name="Caminho 1488" d="M880,580v8.719h4.359V580Z" transform="translate(-688.184 -492.811)" fill-rule="evenodd"/>
    <path id="Caminho_1489" data-name="Caminho 1489" d="M708.719,580H700v4.359h8.719Z" transform="translate(-547.419 -492.811)" fill-rule="evenodd"/>
    <path id="Caminho_1490" data-name="Caminho 1490" d="M524.359,584.359V580H520v4.359Z" transform="translate(-406.654 -492.811)" fill-rule="evenodd"/>
    <path id="Caminho_1491" data-name="Caminho 1491" d="M384.359,580H380v4.359h4.359Z" transform="translate(-297.17 -492.811)" fill-rule="evenodd"/>
    <path id="Caminho_1492" data-name="Caminho 1492" d="M324.359,580H320v4.359h4.359Z" transform="translate(-250.249 -492.811)" fill-rule="evenodd"/>
    <path id="Caminho_1493" data-name="Caminho 1493" d="M84.359,580H80v13.078h8.719v-4.359H84.359V580Z" transform="translate(-62.562 -492.811)" fill-rule="evenodd"/>
    <path id="Caminho_1494" data-name="Caminho 1494" d="M788.719,604.359V600H780v4.359h8.719Z" transform="translate(-609.982 -508.452)" fill-rule="evenodd"/>
    <path id="Caminho_1495" data-name="Caminho 1495" d="M668.719,600H660v4.359h8.719Z" transform="translate(-516.138 -508.452)" fill-rule="evenodd"/>
    <path id="Caminho_1496" data-name="Caminho 1496" d="M352.313,600v4.359h4.359v4.359H313.078v-4.359h-4.359v4.359H300v4.359H417.705V621.8h4.359V608.719h-4.359v-4.359h-4.359v4.359H378.47v-4.359h-8.719v4.359h-8.719V600h-8.719Z" transform="translate(-234.608 -508.452)" fill-rule="evenodd"/>
    <path id="Caminho_1497" data-name="Caminho 1497" d="M364.359,600H360v4.359h4.359Z" transform="translate(-281.53 -508.452)" fill-rule="evenodd"/>
    <path id="Caminho_1498" data-name="Caminho 1498" d="M204.359,604.359V600H200v4.359Z" transform="translate(-156.406 -508.452)" fill-rule="evenodd"/>
    <path id="Caminho_1499" data-name="Caminho 1499" d="M864.359,620H860v4.359h4.359Z" transform="translate(-672.544 -524.092)" fill-rule="evenodd"/>
    <path id="Caminho_1500" data-name="Caminho 1500" d="M141.8,620v4.359H120v4.359h30.516v-4.359h-4.359V620Z" transform="translate(-93.843 -524.092)" fill-rule="evenodd"/>
    <path id="Caminho_1501" data-name="Caminho 1501" d="M268.719,660H260v4.359h8.719Z" transform="translate(-203.327 -555.373)" fill-rule="evenodd"/>
    <path id="Caminho_1502" data-name="Caminho 1502" d="M104.359,660H100v8.719h4.359Z" transform="translate(-78.203 -555.373)" fill-rule="evenodd"/>
    <path id="Caminho_1503" data-name="Caminho 1503" d="M868.719,704.359V700H860v4.359h8.719Z" transform="translate(-672.544 -586.654)" fill-rule="evenodd"/>
    <path id="Caminho_1504" data-name="Caminho 1504" d="M824.359,700H820v4.359h4.359Z" transform="translate(-641.263 -586.654)" fill-rule="evenodd"/>
    <path id="Caminho_1505" data-name="Caminho 1505" d="M124.359,704.359V700H120v4.359Z" transform="translate(-93.843 -586.654)" fill-rule="evenodd"/>
    <path id="Caminho_1506" data-name="Caminho 1506" d="M68.719,700H60v4.359h8.719Z" transform="translate(-46.922 -586.654)" fill-rule="evenodd"/>
    <path id="Caminho_1507" data-name="Caminho 1507" d="M908.719,724.359V720H900v4.359h8.719Z" transform="translate(-703.825 -602.295)" fill-rule="evenodd"/>
    <path id="Caminho_1508" data-name="Caminho 1508" d="M288.221,720H140v4.359H288.221Z" transform="translate(-109.484 -602.295)" fill-rule="evenodd"/>
    <path id="Caminho_1509" data-name="Caminho 1509" d="M28.719,720H20v4.359h8.719Z" transform="translate(-15.641 -602.295)" fill-rule="evenodd"/>
    <path id="Caminho_1510" data-name="Caminho 1510" d="M209.254,740h-4.359v4.359H4.359V740H0v8.719H209.254V740Z" transform="translate(0 -617.935)" fill-rule="evenodd"/>
  </g>
  <g id="Grupo_162" data-name="Grupo 162" transform="translate(61.032 4.359)">
    <path id="Caminho_1511" data-name="Caminho 1511" d="M588.719,200H580v4.359h8.719Z" transform="translate(-514.608 -200)" fill="#f5e5cb" fill-rule="evenodd"/>
    <path id="Caminho_1512" data-name="Caminho 1512" d="M408.719,200H400v4.359h8.719Z" transform="translate(-373.843 -200)" fill="#f5e5cb" fill-rule="evenodd"/>
    <path id="Caminho_1513" data-name="Caminho 1513" d="M528.719,220H520v4.359h8.719Z" transform="translate(-467.687 -215.641)" fill="#f5e5cb" fill-rule="evenodd"/>
    <path id="Caminho_1514" data-name="Caminho 1514" d="M328.719,220H320v4.359h8.719Z" transform="translate(-311.281 -215.641)" fill="#f5e5cb" fill-rule="evenodd"/>
    <path id="Caminho_1515" data-name="Caminho 1515" d="M628.719,244.359V240H620v4.359h8.719Z" transform="translate(-545.889 -231.281)" fill="#f5e5cb" fill-rule="evenodd"/>
    <path id="Caminho_1516" data-name="Caminho 1516" d="M448.719,240H440v4.359h8.719Z" transform="translate(-405.124 -231.281)" fill="#f5e5cb" fill-rule="evenodd"/>
    <path id="Caminho_1517" data-name="Caminho 1517" d="M288.719,264.359V260H280v4.359h8.719Z" transform="translate(-280 -246.922)" fill="#f5e5cb" fill-rule="evenodd"/>
  </g>
  <g id="Grupo_163" data-name="Grupo 163" transform="translate(26.157 47.954)">
    <path id="Caminho_1518" data-name="Caminho 1518" d="M760,400v4.359h8.719v4.359h8.719V400Z" transform="translate(-620.498 -400)" fill="#a63817" fill-rule="evenodd"/>
    <path id="Caminho_1519" data-name="Caminho 1519" d="M594.876,400H577.438v4.359h-8.719V400H560v4.359h4.359v4.359H581.8v-4.359h13.078Z" transform="translate(-464.092 -400)" fill="#a63817" fill-rule="evenodd"/>
    <path id="Caminho_1520" data-name="Caminho 1520" d="M453.078,404.359V400H440v4.359Z" transform="translate(-370.249 -400)" fill="#a63817" fill-rule="evenodd"/>
    <path id="Caminho_1521" data-name="Caminho 1521" d="M333.078,400H320v4.359h8.719v4.359h4.359v4.359H341.8v-4.359h4.359v-4.359H333.078Z" transform="translate(-276.406 -400)" fill="#a63817" fill-rule="evenodd"/>
    <path id="Caminho_1522" data-name="Caminho 1522" d="M233.078,400h-8.719v4.359H220v4.359h8.719v-4.359h4.359Z" transform="translate(-198.203 -400)" fill="#a63817" fill-rule="evenodd"/>
    <path id="Caminho_1523" data-name="Caminho 1523" d="M137.438,400H124.359v4.359H120v4.359h8.719v-4.359h8.719Z" transform="translate(-120 -400)" fill="#a63817" fill-rule="evenodd"/>
    <path id="Caminho_1524" data-name="Caminho 1524" d="M500,420v8.719h8.719V420H500Z" transform="translate(-417.171 -415.641)" fill="#a63817" fill-rule="evenodd"/>
    <path id="Caminho_1525" data-name="Caminho 1525" d="M288.719,420h-4.359v4.359H280v4.359h13.078v-4.359h-4.359Z" transform="translate(-245.124 -415.641)" fill="#a63817" fill-rule="evenodd"/>
    <path id="Caminho_1526" data-name="Caminho 1526" d="M688.719,440H680v4.359h17.438V440h-8.719Z" transform="translate(-557.935 -431.281)" fill="#a63817" fill-rule="evenodd"/>
    <path id="Caminho_1527" data-name="Caminho 1527" d="M184.359,444.359V440H180v4.359Z" transform="translate(-166.922 -431.281)" fill="#a63817" fill-rule="evenodd"/>
    <path id="Caminho_1528" data-name="Caminho 1528" d="M461.8,460v4.359h-8.719V460H440v4.359h8.719v4.359h21.8V460Z" transform="translate(-370.249 -446.922)" fill="#a63817" fill-rule="evenodd"/>
    <path id="Caminho_1529" data-name="Caminho 1529" d="M264.359,460H260v4.359h4.359Z" transform="translate(-229.484 -446.922)" fill="#a63817" fill-rule="evenodd"/>
    <path id="Caminho_1530" data-name="Caminho 1530" d="M200,460v4.359h4.359V460Z" transform="translate(-182.562 -446.922)" fill="#a63817" fill-rule="evenodd"/>
  </g>
  <g id="Grupo_164" data-name="Grupo 164" transform="translate(21.797 47.954)">
    <path id="Caminho_1531" data-name="Caminho 1531" d="M728.719,404.359V400H720v4.359h8.719Z" transform="translate(-584.857 -400)" fill="#d55f3b" fill-rule="evenodd"/>
    <path id="Caminho_1532" data-name="Caminho 1532" d="M608.719,400H600v4.359h8.719Z" transform="translate(-491.014 -400)" fill="#d55f3b" fill-rule="evenodd"/>
    <path id="Caminho_1533" data-name="Caminho 1533" d="M544.359,404.359V400H540v4.359Z" transform="translate(-444.092 -400)" fill="#d55f3b" fill-rule="evenodd"/>
    <path id="Caminho_1534" data-name="Caminho 1534" d="M393.078,404.359V400H380v4.359Z" transform="translate(-318.968 -400)" fill="#d55f3b" fill-rule="evenodd"/>
    <path id="Caminho_1535" data-name="Caminho 1535" d="M284.359,400H280v4.359h4.359Z" transform="translate(-240.765 -400)" fill="#d55f3b" fill-rule="evenodd"/>
    <path id="Caminho_1536" data-name="Caminho 1536" d="M208.719,400H200v4.359h8.719Z" transform="translate(-178.203 -400)" fill="#d55f3b" fill-rule="evenodd"/>
    <path id="Caminho_1537" data-name="Caminho 1537" d="M124.359,400H120v4.359h4.359Z" transform="translate(-115.641 -400)" fill="#d55f3b" fill-rule="evenodd"/>
    <path id="Caminho_1538" data-name="Caminho 1538" d="M844.359,424.359V420H840v4.359Z" transform="translate(-678.7 -415.641)" fill="#d55f3b" fill-rule="evenodd"/>
    <path id="Caminho_1539" data-name="Caminho 1539" d="M768.719,424.359V420H760v4.359h8.719Z" transform="translate(-616.138 -415.641)" fill="#d55f3b" fill-rule="evenodd"/>
    <path id="Caminho_1540" data-name="Caminho 1540" d="M660,424.359h4.359V420H660Z" transform="translate(-537.935 -415.641)" fill="#d55f3b" fill-rule="evenodd"/>
    <path id="Caminho_1541" data-name="Caminho 1541" d="M564.359,424.359V420H560v4.359Z" transform="translate(-459.733 -415.641)" fill="#d55f3b" fill-rule="evenodd"/>
    <path id="Caminho_1542" data-name="Caminho 1542" d="M448.719,424.359V420H440v4.359Z" transform="translate(-365.889 -415.641)" fill="#d55f3b" fill-rule="evenodd"/>
    <path id="Caminho_1543" data-name="Caminho 1543" d="M344.359,424.359V420H340v4.359Z" transform="translate(-287.687 -415.641)" fill="#d55f3b" fill-rule="evenodd"/>
    <path id="Caminho_1544" data-name="Caminho 1544" d="M264.359,420H260v4.359h4.359Z" transform="translate(-225.124 -415.641)" fill="#d55f3b" fill-rule="evenodd"/>
    <path id="Caminho_1545" data-name="Caminho 1545" d="M160,424.359h4.359V420H160Z" transform="translate(-146.922 -415.641)" fill="#d55f3b" fill-rule="evenodd"/>
    <path id="Caminho_1546" data-name="Caminho 1546" d="M808.719,440H800v4.359h8.719Z" transform="translate(-647.419 -431.281)" fill="#d55f3b" fill-rule="evenodd"/>
    <path id="Caminho_1547" data-name="Caminho 1547" d="M597.438,444.359V440H580v4.359h17.438Z" transform="translate(-475.373 -431.281)" fill="#d55f3b" fill-rule="evenodd"/>
    <path id="Caminho_1548" data-name="Caminho 1548" d="M544.359,440H540v4.359h4.359Z" transform="translate(-444.092 -431.281)" fill="#d55f3b" fill-rule="evenodd"/>
    <path id="Caminho_1549" data-name="Caminho 1549" d="M484.359,444.359V440H480v4.359Z" transform="translate(-397.17 -431.281)" fill="#d55f3b" fill-rule="evenodd"/>
    <path id="Caminho_1550" data-name="Caminho 1550" d="M424.359,440H420v4.359h4.359Z" transform="translate(-350.249 -431.281)" fill="#d55f3b" fill-rule="evenodd"/>
    <path id="Caminho_1551" data-name="Caminho 1551" d="M364.359,444.359V440H360v4.359Z" transform="translate(-303.327 -431.281)" fill="#d55f3b" fill-rule="evenodd"/>
    <path id="Caminho_1552" data-name="Caminho 1552" d="M228.719,440H220v4.359h8.719Z" transform="translate(-193.843 -431.281)" fill="#d55f3b" fill-rule="evenodd"/>
    <path id="Caminho_1553" data-name="Caminho 1553" d="M113.078,444.359V440H100v4.359Z" transform="translate(-100 -431.281)" fill="#d55f3b" fill-rule="evenodd"/>
    <path id="Caminho_1554" data-name="Caminho 1554" d="M690.516,460H660v4.359h30.516Z" transform="translate(-537.935 -446.922)" fill="#d55f3b" fill-rule="evenodd"/>
    <path id="Caminho_1555" data-name="Caminho 1555" d="M508.719,460H500v4.359h8.719Z" transform="translate(-412.811 -446.922)" fill="#d55f3b" fill-rule="evenodd"/>
    <path id="Caminho_1556" data-name="Caminho 1556" d="M388.719,464.359V460H380v4.359h8.719Z" transform="translate(-318.968 -446.922)" fill="#d55f3b" fill-rule="evenodd"/>
    <path id="Caminho_1557" data-name="Caminho 1557" d="M297.438,460H280v4.359h17.438Z" transform="translate(-240.765 -446.922)" fill="#d55f3b" fill-rule="evenodd"/>
    <path id="Caminho_1558" data-name="Caminho 1558" d="M160,460v4.359h8.719V460H160Z" transform="translate(-146.922 -446.922)" fill="#d55f3b" fill-rule="evenodd"/>
    <path id="Caminho_1559" data-name="Caminho 1559" d="M588.719,480H580v4.359h8.719Z" transform="translate(-475.373 -462.562)" fill="#d55f3b" fill-rule="evenodd"/>
    <path id="Caminho_1560" data-name="Caminho 1560" d="M433.078,484.359V480H420v4.359h13.078Z" transform="translate(-350.249 -462.562)" fill="#d55f3b" fill-rule="evenodd"/>
    <path id="Caminho_1561" data-name="Caminho 1561" d="M497.438,504.359V500H480v4.359Z" transform="translate(-397.17 -478.203)" fill="#d55f3b" fill-rule="evenodd"/>
  </g>
  <g id="Grupo_165" data-name="Grupo 165" transform="translate(21.797 65.392)">
    <path id="Caminho_1562" data-name="Caminho 1562" d="M813.078,484.359V480H800v4.359h13.078Z" transform="translate(-647.419 -480)" fill="#ffcd03" fill-rule="evenodd"/>
    <path id="Caminho_1563" data-name="Caminho 1563" d="M864.359,504.359V500H860v4.359Z" transform="translate(-694.341 -495.641)" fill="#ffcd03" fill-rule="evenodd"/>
    <path id="Caminho_1564" data-name="Caminho 1564" d="M659.235,500H620v4.359h4.359v4.359h8.719v4.359h4.359v4.359h8.719v-4.359h4.359v-4.359h4.359v-4.359h4.359Z" transform="translate(-506.654 -495.641)" fill="#ffcd03" fill-rule="evenodd"/>
    <path id="Caminho_1565" data-name="Caminho 1565" d="M268.719,513.078h4.359v4.359h4.359v-4.359H281.8v-4.359h8.719v-4.359h4.359V500H260v4.359h4.359v4.359h4.359Z" transform="translate(-225.124 -495.641)" fill="#ffcd03" fill-rule="evenodd"/>
    <path id="Caminho_1566" data-name="Caminho 1566" d="M137.438,504.359V500H124.359v4.359H120v8.719h4.359v-4.359h4.359v-4.359h8.719Z" transform="translate(-115.641 -495.641)" fill="#ffcd03" fill-rule="evenodd"/>
    <path id="Caminho_1567" data-name="Caminho 1567" d="M570.516,560H561.8v4.359H540v4.359h8.719v8.719h8.719v-4.359h8.719v-4.359h8.719v-4.359h-4.359Z" transform="translate(-444.092 -542.562)" fill="#ffcd03" fill-rule="evenodd"/>
    <path id="Caminho_1568" data-name="Caminho 1568" d="M234.876,560v4.359h-4.359v4.359h-4.359v-4.359H221.8V560H200v8.719h4.359v4.359h4.359v4.359h4.359V581.8H221.8v-4.359h8.719v-4.359h4.359v-4.359h4.359v-4.359h4.359V560h-8.719Z" transform="translate(-178.203 -542.562)" fill="#ffcd03" fill-rule="evenodd"/>
    <path id="Caminho_1569" data-name="Caminho 1569" d="M801.8,580H780v4.359h8.719v4.359h4.359v4.359h4.359v-4.359H801.8Z" transform="translate(-631.779 -558.203)" fill="#ffcd03" fill-rule="evenodd"/>
    <path id="Caminho_1570" data-name="Caminho 1570" d="M100,580v8.719h4.359V580Z" transform="translate(-100 -558.203)" fill="#ffcd03" fill-rule="evenodd"/>
  </g>
  <g id="Grupo_166" data-name="Grupo 166" transform="translate(30.516 74.111)">
    <path id="Caminho_1571" data-name="Caminho 1571" d="M844.359,524.359V520H840v4.359Z" transform="translate(-687.419 -520)" fill="#c47f48" fill-rule="evenodd"/>
    <path id="Caminho_1572" data-name="Caminho 1572" d="M204.359,520H200v4.359h4.359Z" transform="translate(-186.922 -520)" fill="#c47f48" fill-rule="evenodd"/>
    <path id="Caminho_1573" data-name="Caminho 1573" d="M804.359,544.359V540H800v4.359Z" transform="translate(-656.138 -535.641)" fill="#c47f48" fill-rule="evenodd"/>
    <path id="Caminho_1574" data-name="Caminho 1574" d="M604.359,544.359V540H600v4.359Z" transform="translate(-499.733 -535.641)" fill="#c47f48" fill-rule="evenodd"/>
    <path id="Caminho_1575" data-name="Caminho 1575" d="M464.359,544.359V540H460v4.359Z" transform="translate(-390.249 -535.641)" fill="#c47f48" fill-rule="evenodd"/>
    <path id="Caminho_1576" data-name="Caminho 1576" d="M164.359,544.359V540H160v4.359Z" transform="translate(-155.641 -535.641)" fill="#c47f48" fill-rule="evenodd"/>
    <path id="Caminho_1577" data-name="Caminho 1577" d="M140,580v4.359h4.359V580Z" transform="translate(-140 -566.922)" fill="#c47f48" fill-rule="evenodd"/>
    <path id="Caminho_1578" data-name="Caminho 1578" d="M744.359,604.359V600H740v4.359Z" transform="translate(-609.217 -582.562)" fill="#c47f48" fill-rule="evenodd"/>
    <path id="Caminho_1579" data-name="Caminho 1579" d="M484.359,604.359V600H480v4.359Z" transform="translate(-405.889 -582.562)" fill="#c47f48" fill-rule="evenodd"/>
    <path id="Caminho_1580" data-name="Caminho 1580" d="M784.36,624.359V620H780v4.359Z" transform="translate(-640.498 -598.203)" fill="#c47f48" fill-rule="evenodd"/>
    <path id="Caminho_1581" data-name="Caminho 1581" d="M684.359,624.359V620H680v4.359Z" transform="translate(-562.295 -598.203)" fill="#c47f48" fill-rule="evenodd"/>
    <path id="Caminho_1582" data-name="Caminho 1582" d="M424.359,624.359V620H420v4.359Z" transform="translate(-358.968 -598.203)" fill="#c47f48" fill-rule="evenodd"/>
    <path id="Caminho_1583" data-name="Caminho 1583" d="M184.359,624.359V620H180v4.359Z" transform="translate(-171.281 -598.203)" fill="#c47f48" fill-rule="evenodd"/>
  </g>
  <g id="Grupo_167" data-name="Grupo 167" transform="translate(30.516 74.111)">
    <path id="Caminho_1584" data-name="Caminho 1584" d="M824.359,524.359V520H820v4.359Z" transform="translate(-671.779 -520)" fill="#734724" fill-rule="evenodd"/>
    <path id="Caminho_1585" data-name="Caminho 1585" d="M584.359,520H580v4.359h4.359Z" transform="translate(-484.092 -520)" fill="#734724" fill-rule="evenodd"/>
    <path id="Caminho_1586" data-name="Caminho 1586" d="M224.359,520H220v4.359h4.359Z" transform="translate(-202.562 -520)" fill="#734724" fill-rule="evenodd"/>
    <path id="Caminho_1587" data-name="Caminho 1587" d="M524.359,544.359V540H520v4.359Z" transform="translate(-437.17 -535.641)" fill="#734724" fill-rule="evenodd"/>
    <path id="Caminho_1588" data-name="Caminho 1588" d="M424.359,544.359V540H420v4.359Z" transform="translate(-358.968 -535.641)" fill="#734724" fill-rule="evenodd"/>
    <path id="Caminho_1589" data-name="Caminho 1589" d="M184.359,544.359V540H180v4.359Z" transform="translate(-171.281 -535.641)" fill="#734724" fill-rule="evenodd"/>
    <path id="Caminho_1590" data-name="Caminho 1590" d="M464.359,584.359V580H460v4.359Z" transform="translate(-390.249 -566.922)" fill="#734724" fill-rule="evenodd"/>
    <path id="Caminho_1591" data-name="Caminho 1591" d="M704.359,604.359V600H700v4.359Z" transform="translate(-577.935 -582.562)" fill="#734724" fill-rule="evenodd"/>
    <path id="Caminho_1592" data-name="Caminho 1592" d="M160,604.359h4.359V600H160Z" transform="translate(-155.641 -582.562)" fill="#734724" fill-rule="evenodd"/>
    <path id="Caminho_1593" data-name="Caminho 1593" d="M744.359,624.359V620H740v4.359Z" transform="translate(-609.217 -598.203)" fill="#734724" fill-rule="evenodd"/>
    <path id="Caminho_1594" data-name="Caminho 1594" d="M544.359,624.359V620H540v4.359Z" transform="translate(-452.811 -598.203)" fill="#734724" fill-rule="evenodd"/>
    <path id="Caminho_1595" data-name="Caminho 1595" d="M444.359,624.359V620H440v4.359Z" transform="translate(-374.608 -598.203)" fill="#734724" fill-rule="evenodd"/>
    <path id="Caminho_1596" data-name="Caminho 1596" d="M384.359,624.359V620H380v4.359Z" transform="translate(-327.687 -598.203)" fill="#734724" fill-rule="evenodd"/>
    <path id="Caminho_1597" data-name="Caminho 1597" d="M144.359,624.359V620H140v4.359Z" transform="translate(-140 -598.203)" fill="#734724" fill-rule="evenodd"/>
  </g>
  <g id="Grupo_168" data-name="Grupo 168" transform="translate(26.157 69.751)">
    <path id="Caminho_1598" data-name="Caminho 1598" d="M224.359,504.359V500H220v4.359Z" transform="translate(-198.203 -500)" fill="#a56634" fill-rule="evenodd"/>
    <path id="Caminho_1599" data-name="Caminho 1599" d="M804.359,524.359V520H800v4.359Z" transform="translate(-651.779 -515.641)" fill="#a56634" fill-rule="evenodd"/>
    <path id="Caminho_1600" data-name="Caminho 1600" d="M604.359,524.359V520H600v4.359Z" transform="translate(-495.373 -515.641)" fill="#a56634" fill-rule="evenodd"/>
    <path id="Caminho_1601" data-name="Caminho 1601" d="M540,528.719h13.078v-4.359h-4.359V520h-4.359v4.359H540Z" transform="translate(-448.452 -515.641)" fill="#a56634" fill-rule="evenodd"/>
    <path id="Caminho_1602" data-name="Caminho 1602" d="M433.078,524.359V520H420v4.359h4.359v4.359h4.359v-4.359Z" transform="translate(-354.608 -515.641)" fill="#a56634" fill-rule="evenodd"/>
    <path id="Caminho_1603" data-name="Caminho 1603" d="M240,520v4.359h4.359V520Z" transform="translate(-213.843 -515.641)" fill="#a56634" fill-rule="evenodd"/>
    <path id="Caminho_1604" data-name="Caminho 1604" d="M828.719,544.359V540H820v4.359h8.719Z" transform="translate(-667.419 -531.281)" fill="#a56634" fill-rule="evenodd"/>
    <path id="Caminho_1605" data-name="Caminho 1605" d="M784.36,540H780v4.359h4.359Z" transform="translate(-636.138 -531.281)" fill="#a56634" fill-rule="evenodd"/>
    <path id="Caminho_1606" data-name="Caminho 1606" d="M620,540v4.359h4.359V540Z" transform="translate(-511.014 -531.281)" fill="#a56634" fill-rule="evenodd"/>
    <path id="Caminho_1607" data-name="Caminho 1607" d="M488.719,544.359V540H480v4.359h8.719Z" transform="translate(-401.53 -531.281)" fill="#a56634" fill-rule="evenodd"/>
    <path id="Caminho_1608" data-name="Caminho 1608" d="M404.359,540H400v4.359h4.359Z" transform="translate(-338.968 -531.281)" fill="#a56634" fill-rule="evenodd"/>
    <path id="Caminho_1609" data-name="Caminho 1609" d="M524.359,560H520v4.359h4.359Z" transform="translate(-432.811 -546.922)" fill="#a56634" fill-rule="evenodd"/>
    <path id="Caminho_1610" data-name="Caminho 1610" d="M744.359,584.359V580H740v4.359Z" transform="translate(-604.857 -562.562)" fill="#a56634" fill-rule="evenodd"/>
    <path id="Caminho_1611" data-name="Caminho 1611" d="M410.516,580H401.8v4.359h4.359v4.359H401.8v-4.359h-4.359V580H384.359v4.359H380v4.359h4.359v4.359h4.359v-4.359h8.719v4.359h17.438v-8.719h-4.359Z" transform="translate(-323.327 -562.562)" fill="#a56634" fill-rule="evenodd"/>
    <path id="Caminho_1612" data-name="Caminho 1612" d="M164.359,584.359V580H160v4.359Z" transform="translate(-151.281 -562.562)" fill="#a56634" fill-rule="evenodd"/>
    <path id="Caminho_1613" data-name="Caminho 1613" d="M760,600v8.719h4.359V600Z" transform="translate(-620.498 -578.203)" fill="#a56634" fill-rule="evenodd"/>
    <path id="Caminho_1614" data-name="Caminho 1614" d="M708.719,600h-4.359v4.359H700v4.359h8.719Z" transform="translate(-573.576 -578.203)" fill="#a56634" fill-rule="evenodd"/>
    <path id="Caminho_1615" data-name="Caminho 1615" d="M184.359,604.359V600H180v4.359Z" transform="translate(-166.922 -578.203)" fill="#a56634" fill-rule="evenodd"/>
    <path id="Caminho_1616" data-name="Caminho 1616" d="M144.359,604.359V600H140v4.359Z" transform="translate(-135.641 -578.203)" fill="#a56634" fill-rule="evenodd"/>
    <path id="Caminho_1617" data-name="Caminho 1617" d="M804.359,624.359V620H800v4.359Z" transform="translate(-651.779 -593.843)" fill="#a56634" fill-rule="evenodd"/>
    <path id="Caminho_1618" data-name="Caminho 1618" d="M664.359,624.359V620H660v4.359Z" transform="translate(-542.295 -593.843)" fill="#a56634" fill-rule="evenodd"/>
    <path id="Caminho_1619" data-name="Caminho 1619" d="M364.359,624.359V620H360v4.359Z" transform="translate(-307.687 -593.843)" fill="#a56634" fill-rule="evenodd"/>
    <path id="Caminho_1620" data-name="Caminho 1620" d="M204.359,624.359V620H200v4.359Z" transform="translate(-182.562 -593.843)" fill="#a56634" fill-rule="evenodd"/>
    <path id="Caminho_1621" data-name="Caminho 1621" d="M164.359,624.359V620H160v4.359Z" transform="translate(-151.281 -593.843)" fill="#a56634" fill-rule="evenodd"/>
    <path id="Caminho_1622" data-name="Caminho 1622" d="M124.359,624.359V620H120v4.359Z" transform="translate(-120 -593.843)" fill="#a56634" fill-rule="evenodd"/>
  </g>
  <g id="Grupo_169" data-name="Grupo 169" transform="translate(26.157 4.359)">
    <path id="Caminho_1623" data-name="Caminho 1623" d="M237.705,200v4.359h13.078v4.359H259.5v4.359h4.359v4.359h4.359V221.8h4.359v8.719h4.359v8.719H120v-8.719h4.359V221.8h4.359v-4.359h4.359v-4.359h4.359v-4.359h8.719v-4.359h13.078V200h21.8v4.359h8.719V200h30.516v4.359h8.719V200Zm-21.8,8.719v-4.359h-8.719v4.359h8.719Zm-43.594,0v-4.359h-8.719v4.359h8.719Zm65.392,4.359v-4.359h-8.719v4.359h8.719Zm-39.235,0v-4.359h-8.719v4.359h8.719Zm-34.876,4.359v-4.359h-8.719v4.359h8.719Z" transform="translate(-120 -200)" fill="#e9a359" fill-rule="evenodd"/>
    <path id="Caminho_1624" data-name="Caminho 1624" d="M276.94,660H159.235v4.359h-8.719V660H120v8.719h4.359v4.359H272.581v-4.359h4.359Z" transform="translate(-120 -559.733)" fill="#e9a359" fill-rule="evenodd"/>
  </g>
  <g id="Grupo_170" data-name="Grupo 170" transform="translate(4.359 113.346)">
    <path id="Caminho_1625" data-name="Caminho 1625" d="M203.1,700h-4.359v4.359h-4.359v4.359H46.157v-4.359H41.8V700H37.438v4.359H28.719v4.359H20v4.359H220.535v-4.359h-8.719v-4.359H203.1Z" transform="translate(-20 -700)" fill="#c0d9e8" fill-rule="evenodd"/>
  </g>
</svg>
