<svg id="Laranja" xmlns="http://www.w3.org/2000/svg" width="209.254" height="209.254" viewBox="0 0 209.254 209.254">
  <g id="Grupo_171" data-name="Grupo 171">
    <path id="Caminho_1626" data-name="Caminho 1626" d="M540,4.359V0h13.078V4.359Z" transform="translate(-422.295)" fill-rule="evenodd"/>
    <path id="Caminho_1627" data-name="Caminho 1627" d="M520,24.359V20h4.359v4.359Z" transform="translate(-406.654 -15.641)" fill-rule="evenodd"/>
    <path id="Caminho_1628" data-name="Caminho 1628" d="M600,20h8.719v4.359H600Z" transform="translate(-469.217 -15.641)" fill-rule="evenodd"/>
    <path id="Caminho_1629" data-name="Caminho 1629" d="M500,44.359V40h4.359v4.359Z" transform="translate(-391.014 -31.281)" fill-rule="evenodd"/>
    <path id="Caminho_1630" data-name="Caminho 1630" d="M640,40h4.359v4.359H640Z" transform="translate(-500.498 -31.281)" fill-rule="evenodd"/>
    <path id="Caminho_1631" data-name="Caminho 1631" d="M484.359,60v8.719H480V60Z" transform="translate(-375.373 -46.922)" fill-rule="evenodd"/>
    <path id="Caminho_1632" data-name="Caminho 1632" d="M660,60h4.359v4.359H660Z" transform="translate(-516.138 -46.922)" fill-rule="evenodd"/>
    <path id="Caminho_1633" data-name="Caminho 1633" d="M680,80h8.719v4.359H680Z" transform="translate(-531.779 -62.562)" fill-rule="evenodd"/>
    <path id="Caminho_1634" data-name="Caminho 1634" d="M464.359,100v8.719H460V100Z" transform="translate(-359.733 -78.203)" fill-rule="evenodd"/>
    <path id="Caminho_1635" data-name="Caminho 1635" d="M720,100h4.359v4.359H720Z" transform="translate(-563.06 -78.203)" fill-rule="evenodd"/>
    <path id="Caminho_1636" data-name="Caminho 1636" d="M740,120h4.359v4.359H740Z" transform="translate(-578.7 -93.843)" fill-rule="evenodd"/>
    <path id="Caminho_1637" data-name="Caminho 1637" d="M319.235,140v26.157H280V161.8h34.876V140Z" transform="translate(-218.968 -109.484)" fill-rule="evenodd"/>
    <path id="Caminho_1638" data-name="Caminho 1638" d="M760,140h4.359v4.359H760Z" transform="translate(-594.341 -109.484)" fill-rule="evenodd"/>
    <path id="Caminho_1639" data-name="Caminho 1639" d="M780,160h4.359v4.359H780Z" transform="translate(-609.982 -125.124)" fill-rule="evenodd"/>
    <path id="Caminho_1640" data-name="Caminho 1640" d="M800,180h4.359v4.359H800Z" transform="translate(-625.622 -140.765)" fill-rule="evenodd"/>
    <path id="Caminho_1641" data-name="Caminho 1641" d="M820,200h4.359v4.359H820Z" transform="translate(-641.263 -156.406)" fill-rule="evenodd"/>
    <path id="Caminho_1642" data-name="Caminho 1642" d="M840,220h4.359v8.719H840V220Z" transform="translate(-656.903 -172.046)" fill-rule="evenodd"/>
    <path id="Caminho_1643" data-name="Caminho 1643" d="M220,264.359V260h13.078v4.359Z" transform="translate(-172.046 -203.327)" fill-rule="evenodd"/>
    <path id="Caminho_1644" data-name="Caminho 1644" d="M460,260h13.078v4.359H460Z" transform="translate(-359.733 -203.327)" fill-rule="evenodd"/>
    <path id="Caminho_1645" data-name="Caminho 1645" d="M860,260h4.359v4.359H860Z" transform="translate(-672.544 -203.327)" fill-rule="evenodd"/>
    <path id="Caminho_1646" data-name="Caminho 1646" d="M180,284.359V280h8.719v4.359H180Z" transform="translate(-140.765 -218.968)" fill-rule="evenodd"/>
    <path id="Caminho_1647" data-name="Caminho 1647" d="M520,280h8.719v4.359H520Z" transform="translate(-406.654 -218.968)" fill-rule="evenodd"/>
    <path id="Caminho_1648" data-name="Caminho 1648" d="M880,280h4.359v4.359H880Z" transform="translate(-688.184 -218.968)" fill-rule="evenodd"/>
    <path id="Caminho_1649" data-name="Caminho 1649" d="M140,304.359V300h8.719v4.359H140Z" transform="translate(-109.484 -234.608)" fill-rule="evenodd"/>
    <path id="Caminho_1650" data-name="Caminho 1650" d="M560,300h8.719v4.359H560Z" transform="translate(-437.935 -234.608)" fill-rule="evenodd"/>
    <path id="Caminho_1651" data-name="Caminho 1651" d="M900,300h4.359v4.359H900Z" transform="translate(-703.825 -234.608)" fill-rule="evenodd"/>
    <path id="Caminho_1652" data-name="Caminho 1652" d="M120,324.359V320h4.359v4.359Z" transform="translate(-93.843 -250.249)" fill-rule="evenodd"/>
    <path id="Caminho_1653" data-name="Caminho 1653" d="M600,320h4.359v4.359H600Z" transform="translate(-469.217 -250.249)" fill-rule="evenodd"/>
    <path id="Caminho_1654" data-name="Caminho 1654" d="M920,320h4.359v8.719H920Z" transform="translate(-719.465 -250.249)" fill-rule="evenodd"/>
    <path id="Caminho_1655" data-name="Caminho 1655" d="M100,344.359V340h4.359v4.359Z" transform="translate(-78.203 -265.889)" fill-rule="evenodd"/>
    <path id="Caminho_1656" data-name="Caminho 1656" d="M620,340h4.359v4.359H620Z" transform="translate(-484.857 -265.889)" fill-rule="evenodd"/>
    <path id="Caminho_1657" data-name="Caminho 1657" d="M80,364.359V360h4.359v4.359Z" transform="translate(-62.562 -281.53)" fill-rule="evenodd"/>
    <path id="Caminho_1658" data-name="Caminho 1658" d="M640,360h4.359v8.719H640V360Z" transform="translate(-500.498 -281.53)" fill-rule="evenodd"/>
    <path id="Caminho_1659" data-name="Caminho 1659" d="M904.359,360v13.078H900V360Z" transform="translate(-703.825 -281.53)" fill-rule="evenodd"/>
    <path id="Caminho_1660" data-name="Caminho 1660" d="M940,360h4.359v30.516H940Z" transform="translate(-735.106 -281.53)" fill-rule="evenodd"/>
    <path id="Caminho_1661" data-name="Caminho 1661" d="M60,384.359V380h4.359v4.359Z" transform="translate(-46.922 -297.17)" fill-rule="evenodd"/>
    <path id="Caminho_1662" data-name="Caminho 1662" d="M44.359,400v8.719H40V400Z" transform="translate(-31.281 -312.811)" fill-rule="evenodd"/>
    <path id="Caminho_1663" data-name="Caminho 1663" d="M660,400h4.359v8.719H660V400Z" transform="translate(-516.138 -312.811)" fill-rule="evenodd"/>
    <path id="Caminho_1664" data-name="Caminho 1664" d="M884.359,420v8.719H880V420Z" transform="translate(-688.184 -328.452)" fill-rule="evenodd"/>
    <path id="Caminho_1665" data-name="Caminho 1665" d="M8.719,440v26.157H4.359v26.157H0V448.719H4.359V440Z" transform="translate(0 -344.092)" fill-rule="evenodd"/>
    <path id="Caminho_1666" data-name="Caminho 1666" d="M680,440h4.359v17.438h4.359V461.8H701.8v4.359H688.719v8.719h26.157v4.359H688.719v8.719h-4.359V474.876H680Z" transform="translate(-531.779 -344.092)" fill-rule="evenodd"/>
    <path id="Caminho_1667" data-name="Caminho 1667" d="M860,464.359V460h4.359v4.359Z" transform="translate(-672.544 -359.733)" fill-rule="evenodd"/>
    <path id="Caminho_1668" data-name="Caminho 1668" d="M840,484.359V480h4.359v4.359Z" transform="translate(-656.903 -375.373)" fill-rule="evenodd"/>
    <path id="Caminho_1669" data-name="Caminho 1669" d="M820,504.359V500h4.359v4.359Z" transform="translate(-641.263 -391.014)" fill-rule="evenodd"/>
    <path id="Caminho_1670" data-name="Caminho 1670" d="M924.359,500v8.719H920V500Z" transform="translate(-719.465 -391.014)" fill-rule="evenodd"/>
    <path id="Caminho_1671" data-name="Caminho 1671" d="M780,524.359V520h8.719v4.359H780Z" transform="translate(-609.982 -406.654)" fill-rule="evenodd"/>
    <path id="Caminho_1672" data-name="Caminho 1672" d="M900,544.359V540h4.359v4.359Z" transform="translate(-703.825 -422.295)" fill-rule="evenodd"/>
    <path id="Caminho_1673" data-name="Caminho 1673" d="M40,560h4.359v13.078H40V560Z" transform="translate(-31.281 -437.935)" fill-rule="evenodd"/>
    <path id="Caminho_1674" data-name="Caminho 1674" d="M880,564.359V560h4.359v4.359Z" transform="translate(-688.184 -437.935)" fill-rule="evenodd"/>
    <path id="Caminho_1675" data-name="Caminho 1675" d="M840,584.359V580h8.719v4.359H840Z" transform="translate(-656.903 -453.576)" fill-rule="evenodd"/>
    <path id="Caminho_1676" data-name="Caminho 1676" d="M664.359,600v13.078H660V600Z" transform="translate(-516.138 -469.217)" fill-rule="evenodd"/>
    <path id="Caminho_1677" data-name="Caminho 1677" d="M60,620h4.359v8.719H60V620Z" transform="translate(-46.922 -484.857)" fill-rule="evenodd"/>
    <path id="Caminho_1678" data-name="Caminho 1678" d="M80,660h4.359v8.719H80V660Z" transform="translate(-62.562 -516.138)" fill-rule="evenodd"/>
    <path id="Caminho_1679" data-name="Caminho 1679" d="M644.359,660v8.719H640V660Z" transform="translate(-500.498 -516.138)" fill-rule="evenodd"/>
    <path id="Caminho_1680" data-name="Caminho 1680" d="M680,660h4.359v13.078H680Z" transform="translate(-531.779 -516.138)" fill-rule="evenodd"/>
    <path id="Caminho_1681" data-name="Caminho 1681" d="M20,680h4.359v13.078H20V680Z" transform="translate(-15.641 -531.779)" fill-rule="evenodd"/>
    <path id="Caminho_1682" data-name="Caminho 1682" d="M100,700h4.359v4.359H100Z" transform="translate(-78.203 -547.419)" fill-rule="evenodd"/>
    <path id="Caminho_1683" data-name="Caminho 1683" d="M620,704.359V700h4.359v4.359Z" transform="translate(-484.857 -547.419)" fill-rule="evenodd"/>
    <path id="Caminho_1684" data-name="Caminho 1684" d="M120,720h4.359v4.359H120Z" transform="translate(-93.843 -563.06)" fill-rule="evenodd"/>
    <path id="Caminho_1685" data-name="Caminho 1685" d="M600,724.359V720h4.359v4.359Z" transform="translate(-469.217 -563.06)" fill-rule="evenodd"/>
    <path id="Caminho_1686" data-name="Caminho 1686" d="M664.359,720v13.078H660V720Z" transform="translate(-516.138 -563.06)" fill-rule="evenodd"/>
    <path id="Caminho_1687" data-name="Caminho 1687" d="M40,740h4.359v8.719H40V740Z" transform="translate(-31.281 -578.7)" fill-rule="evenodd"/>
    <path id="Caminho_1688" data-name="Caminho 1688" d="M140,740h4.359v4.359H140Z" transform="translate(-109.484 -578.7)" fill-rule="evenodd"/>
    <path id="Caminho_1689" data-name="Caminho 1689" d="M580,744.359V740h4.359v4.359Z" transform="translate(-453.576 -578.7)" fill-rule="evenodd"/>
    <path id="Caminho_1690" data-name="Caminho 1690" d="M160,760h8.719v4.359H160Z" transform="translate(-125.124 -594.341)" fill-rule="evenodd"/>
    <path id="Caminho_1691" data-name="Caminho 1691" d="M540,764.359V760h8.719v4.359H540Z" transform="translate(-422.295 -594.341)" fill-rule="evenodd"/>
    <path id="Caminho_1692" data-name="Caminho 1692" d="M60,780h4.359v4.359H60Z" transform="translate(-46.922 -609.982)" fill-rule="evenodd"/>
    <path id="Caminho_1693" data-name="Caminho 1693" d="M200,780h8.719v4.359H200Z" transform="translate(-156.406 -609.982)" fill-rule="evenodd"/>
    <path id="Caminho_1694" data-name="Caminho 1694" d="M500,784.359V780h8.719v4.359H500Z" transform="translate(-391.014 -609.982)" fill-rule="evenodd"/>
    <path id="Caminho_1695" data-name="Caminho 1695" d="M644.359,780v8.719H640V780Z" transform="translate(-500.498 -609.982)" fill-rule="evenodd"/>
    <path id="Caminho_1696" data-name="Caminho 1696" d="M80,800h4.359v4.359H80Z" transform="translate(-62.562 -625.622)" fill-rule="evenodd"/>
    <path id="Caminho_1697" data-name="Caminho 1697" d="M240,800h13.078v4.359H240Z" transform="translate(-187.687 -625.622)" fill-rule="evenodd"/>
    <path id="Caminho_1698" data-name="Caminho 1698" d="M440,804.359V800h13.078v4.359H440Z" transform="translate(-344.092 -625.622)" fill-rule="evenodd"/>
    <path id="Caminho_1699" data-name="Caminho 1699" d="M100,820h4.359v4.359H100Z" transform="translate(-78.203 -641.263)" fill-rule="evenodd"/>
    <path id="Caminho_1700" data-name="Caminho 1700" d="M300,820h30.516v4.359H300Z" transform="translate(-234.608 -641.263)" fill-rule="evenodd"/>
    <path id="Caminho_1701" data-name="Caminho 1701" d="M620,824.359V820h4.359v4.359Z" transform="translate(-484.857 -641.263)" fill-rule="evenodd"/>
    <path id="Caminho_1702" data-name="Caminho 1702" d="M120,840h4.359v4.359H120Z" transform="translate(-93.843 -656.903)" fill-rule="evenodd"/>
    <path id="Caminho_1703" data-name="Caminho 1703" d="M600,844.359V840h4.359v4.359Z" transform="translate(-469.217 -656.903)" fill-rule="evenodd"/>
    <path id="Caminho_1704" data-name="Caminho 1704" d="M140,860h4.359v4.359H140Z" transform="translate(-109.484 -672.544)" fill-rule="evenodd"/>
    <path id="Caminho_1705" data-name="Caminho 1705" d="M580,864.359V860h4.359v4.359Z" transform="translate(-453.576 -672.544)" fill-rule="evenodd"/>
    <path id="Caminho_1706" data-name="Caminho 1706" d="M160,880h8.719v4.359H160Z" transform="translate(-125.124 -688.184)" fill-rule="evenodd"/>
    <path id="Caminho_1707" data-name="Caminho 1707" d="M540,884.359V880h8.719v4.359H540Z" transform="translate(-422.295 -688.184)" fill-rule="evenodd"/>
    <path id="Caminho_1708" data-name="Caminho 1708" d="M200,900h8.719v4.359H200Z" transform="translate(-156.406 -703.825)" fill-rule="evenodd"/>
    <path id="Caminho_1709" data-name="Caminho 1709" d="M500,904.359V900h8.719v4.359H500Z" transform="translate(-391.014 -703.825)" fill-rule="evenodd"/>
    <path id="Caminho_1710" data-name="Caminho 1710" d="M240,920h13.078v4.359H240Z" transform="translate(-187.687 -719.465)" fill-rule="evenodd"/>
    <path id="Caminho_1711" data-name="Caminho 1711" d="M440,924.359V920h13.078v4.359H440Z" transform="translate(-344.092 -719.465)" fill-rule="evenodd"/>
    <path id="Caminho_1712" data-name="Caminho 1712" d="M300,944.359V940h30.516v4.359Z" transform="translate(-234.608 -735.106)" fill-rule="evenodd"/>
  </g>
  <g id="Grupo_172" data-name="Grupo 172" transform="translate(17.438 4.359)">
    <path id="Caminho_1713" data-name="Caminho 1713" d="M560,20h8.719v4.359H560Z" transform="translate(-455.373 -20)" fill="#f6b739" fill-rule="evenodd"/>
    <path id="Caminho_1714" data-name="Caminho 1714" d="M600,40h8.719v4.359H600Z" transform="translate(-486.654 -35.641)" fill="#f6b739" fill-rule="evenodd"/>
    <path id="Caminho_1715" data-name="Caminho 1715" d="M640,60h4.359v4.359h4.359v8.719h4.359v4.359h4.359V81.8h-4.359v4.359h4.359v4.359h8.719V86.157h4.359v4.359h4.359v4.359h8.719v8.719h4.359v4.359h-8.719v-4.359h-8.719V99.235h-4.359V94.876h-8.719v4.359h-4.359V90.516h-8.719V86.157H640V81.8h4.359V68.719H640V60Z" transform="translate(-517.935 -51.281)" fill="#f6b739" fill-rule="evenodd"/>
    <path id="Caminho_1716" data-name="Caminho 1716" d="M488.719,228.719H480V220h4.359v4.359h4.359Z" transform="translate(-392.811 -176.406)" fill="#f6b739" fill-rule="evenodd"/>
    <path id="Caminho_1717" data-name="Caminho 1717" d="M520,260h4.359v4.359H520Z" transform="translate(-424.092 -207.687)" fill="#f6b739" fill-rule="evenodd"/>
    <path id="Caminho_1718" data-name="Caminho 1718" d="M171.548,319.235v4.359H162.83v4.359H158.47v4.359h8.719v4.359h13.078v4.359h-21.8v4.359h4.359v4.359h4.359v4.359h4.359v4.359H162.83v-4.359H158.47v-4.359h-8.719v17.438h-4.359V354.111h-4.359v-4.359h-8.719v8.719h-4.359v4.359h-4.359v4.359h-4.359v4.359h-4.359V362.83h4.359V358.47h4.359v-8.719h4.359v-4.359h4.359v-4.359h4.359v-4.359h4.359v8.719h8.719v-4.359h-4.359v-4.359h4.359v-4.359h4.359v-4.359h-8.719v4.359h-4.359v-8.719h-4.359v4.359h-4.359v13.078h-4.359v4.359h-4.359v-8.719H106.157v4.359H80v-4.359h21.8v-4.359h17.438v-4.359h8.719v-4.359h-4.359v-4.359h-4.359v-4.359h-4.359v-4.359h-4.359v-4.359h8.719v4.359h4.359v4.359h8.719v4.359h4.359V280h4.359v30.516h4.359v8.719h4.359v4.359h4.359v-4.359h17.438Z" transform="translate(-80 -223.327)" fill="#f6b739" fill-rule="evenodd"/>
    <path id="Caminho_1719" data-name="Caminho 1719" d="M560,284.359V280h4.359v4.359Z" transform="translate(-455.373 -223.327)" fill="#f6b739" fill-rule="evenodd"/>
    <path id="Caminho_1720" data-name="Caminho 1720" d="M860,280h4.359v4.359H860Z" transform="translate(-689.982 -223.327)" fill="#f6b739" fill-rule="evenodd"/>
    <path id="Caminho_1721" data-name="Caminho 1721" d="M880,300h4.359v4.359H880Z" transform="translate(-705.622 -238.968)" fill="#f6b739" fill-rule="evenodd"/>
    <path id="Caminho_1722" data-name="Caminho 1722" d="M168.719,364.359H160V360h8.719Z" transform="translate(-142.562 -285.889)" fill="#f6b739" fill-rule="evenodd"/>
    <path id="Caminho_1723" data-name="Caminho 1723" d="M200,380h4.359v4.359H200Z" transform="translate(-173.843 -301.53)" fill="#f6b739" fill-rule="evenodd"/>
    <path id="Caminho_1724" data-name="Caminho 1724" d="M664.359,384.359H660V380h4.359Z" transform="translate(-533.576 -301.53)" fill="#f6b739" fill-rule="evenodd"/>
    <path id="Caminho_1725" data-name="Caminho 1725" d="M680,400h4.359v4.359h8.719v4.359h17.438v-4.359h8.719v4.359h-4.359v4.359h-4.359v4.359h-4.359V421.8h-8.719v4.359H684.359V408.719H680V400Z" transform="translate(-549.217 -317.17)" fill="#f6b739" fill-rule="evenodd"/>
    <path id="Caminho_1726" data-name="Caminho 1726" d="M560,424.359V420h13.078v4.359H560Z" transform="translate(-455.373 -332.811)" fill="#f6b739" fill-rule="evenodd"/>
    <path id="Caminho_1727" data-name="Caminho 1727" d="M500,444.359V440h13.078v4.359H500Z" transform="translate(-408.452 -348.452)" fill="#f6b739" fill-rule="evenodd"/>
    <path id="Caminho_1728" data-name="Caminho 1728" d="M540,560h21.8v4.359H540Z" transform="translate(-439.733 -442.295)" fill="#f6b739" fill-rule="evenodd"/>
    <path id="Caminho_1729" data-name="Caminho 1729" d="M500,640h4.359v4.359H500Z" transform="translate(-408.452 -504.857)" fill="#f6b739" fill-rule="evenodd"/>
    <path id="Caminho_1730" data-name="Caminho 1730" d="M520,660h4.359v4.359H520Z" transform="translate(-424.092 -520.498)" fill="#f6b739" fill-rule="evenodd"/>
    <path id="Caminho_1731" data-name="Caminho 1731" d="M400,680h4.359v21.8H400V680Z" transform="translate(-330.249 -536.138)" fill="#f6b739" fill-rule="evenodd"/>
    <path id="Caminho_1732" data-name="Caminho 1732" d="M540,680h4.359v4.359H540Z" transform="translate(-439.733 -536.138)" fill="#f6b739" fill-rule="evenodd"/>
    <path id="Caminho_1733" data-name="Caminho 1733" d="M220,704.359V700h4.359v4.359Z" transform="translate(-189.484 -551.779)" fill="#f6b739" fill-rule="evenodd"/>
    <path id="Caminho_1734" data-name="Caminho 1734" d="M560,700h4.359v4.359H560Z" transform="translate(-455.373 -551.779)" fill="#f6b739" fill-rule="evenodd"/>
    <path id="Caminho_1735" data-name="Caminho 1735" d="M204.359,720v4.359H200V720Z" transform="translate(-173.843 -567.419)" fill="#f6b739" fill-rule="evenodd"/>
  </g>
  <g id="Grupo_173" data-name="Grupo 173" transform="translate(13.078 8.719)">
    <path id="Caminho_1736" data-name="Caminho 1736" d="M497.438,40h8.719v4.359h8.719v8.719h4.359V66.157h-4.359v4.359h4.359v4.359h8.719v8.719h4.359V79.235h8.719v4.359h4.359v4.359h8.719v4.359h8.719v4.359h4.359v4.359h4.359v8.719h-4.359v8.719H562.83v4.359h-8.719v4.359H536.673V122.83h-8.719V118.47h-4.359v-4.359h-4.359v-4.359h-4.359v-4.359h-4.359v-4.359h-4.359V96.673H501.8V92.313h-8.719V87.954h-4.359V83.594h-4.359V79.235H480V66.157h4.359V57.438h4.359V48.719h4.359V44.359h4.359V40ZM501.8,57.438V61.8h4.359V57.438H501.8V53.078h-4.359v4.359Zm-13.078,21.8H501.8V74.876H488.719v4.359Zm26.157,17.438V92.313h-4.359v4.359Zm13.078,8.719h-4.359v4.359h4.359v-4.359h4.359v-4.359h-4.359v4.359Zm17.438,13.078v4.359h4.359V109.751h-4.359v8.719Z" transform="translate(-388.452 -40)" fill="#ffda59" fill-rule="evenodd"/>
    <path id="Caminho_1737" data-name="Caminho 1737" d="M173.078,306.157V301.8h-4.359v-4.359H160v-4.359h8.719v-4.359h8.719v-4.359h13.078V280h8.719v39.235h-4.359v-4.359h-8.719v-4.359H181.8v-4.359h-8.719Zm13.078-8.719V301.8h4.359v-4.359h-4.359v-4.359H181.8v4.359Z" transform="translate(-138.203 -227.687)" fill="#ffda59" fill-rule="evenodd"/>
    <path id="Caminho_1738" data-name="Caminho 1738" d="M416.673,310.516H403.595v4.359H390.516v4.359H373.078v4.359h-4.359v-4.359h-4.359v-8.719H360V280h17.438v4.359h13.078v4.359h8.719v4.359h8.719v4.359h4.359V301.8h4.359v8.719Zm-43.594-17.438v-4.359h-4.359v4.359Zm8.719,13.078V301.8h-4.359v4.359Z" transform="translate(-294.608 -227.687)" fill="#ffda59" fill-rule="evenodd"/>
    <path id="Caminho_1739" data-name="Caminho 1739" d="M81.8,360v4.359h8.719v4.359h4.359v4.359h4.359v4.359h4.359V381.8h4.359v4.359h4.359v4.359h-8.719v4.359H86.157v4.359H60V381.8h4.359v-8.719h4.359v-4.359h4.359v-4.359h4.359V360Zm0,30.516v-4.359H77.438v4.359Z" transform="translate(-60 -290.249)" fill="#ffda59" fill-rule="evenodd"/>
    <path id="Caminho_1740" data-name="Caminho 1740" d="M479.235,420h4.359v8.719h4.359v26.157h-4.359v-4.359H461.8v-4.359H448.719V441.8H440v-4.359h4.359v-4.359h8.719v-4.359h13.078v-4.359h13.078V420Zm0,17.438v-4.359h-4.359v4.359ZM461.8,441.8v-4.359h-4.359V441.8Z" transform="translate(-357.17 -337.17)" fill="#ffda59" fill-rule="evenodd"/>
    <path id="Caminho_1741" data-name="Caminho 1741" d="M114.876,574.876h-4.359v4.359h-4.359v4.359H101.8v-4.359H97.438v-4.359H93.078v-4.359H88.719V561.8H84.359v-8.719H80v-8.719h26.157V540h17.438v8.719h4.359v4.359h-4.359V561.8h-4.359v4.359h-4.359v8.719ZM101.8,561.8h4.359v-4.359H97.438V561.8Z" transform="translate(-75.641 -431.014)" fill="#ffda59" fill-rule="evenodd"/>
    <path id="Caminho_1742" data-name="Caminho 1742" d="M461.8,560v4.359h21.8v13.078h-4.359v8.719h-4.359v4.359h-8.719v-4.359H461.8V581.8h-4.359v-4.359h-4.359v-4.359h-4.359v-4.359h-4.359v-4.359H440V560h21.8Zm8.719,17.438v-4.359h-4.359v4.359Z" transform="translate(-357.17 -446.654)" fill="#ffda59" fill-rule="evenodd"/>
    <path id="Caminho_1743" data-name="Caminho 1743" d="M250.516,604.359h-4.359v4.359h4.359v-4.359h4.359v13.078h4.359v21.8h4.359v4.359H241.8v-4.359H228.719v-4.359H220v-8.719h4.359V621.8h4.359v-4.359h4.359v-4.359h4.359v-4.359H241.8V600h8.719v4.359Zm-17.438,26.157h4.359V621.8h-4.359v8.719Z" transform="translate(-185.124 -477.935)" fill="#ffda59" fill-rule="evenodd"/>
    <path id="Caminho_1744" data-name="Caminho 1744" d="M421.8,608.719v4.359h4.359v4.359h4.359V621.8h4.359v8.719h-8.719v4.359h-8.719v4.359H404.359v-21.8H400V600h8.719v4.359h4.359v4.359H421.8ZM413.078,621.8v4.359h4.359V621.8h-4.359v-4.359h-4.359V621.8Z" transform="translate(-325.889 -477.935)" fill="#ffda59" fill-rule="evenodd"/>
  </g>
  <g id="Grupo_174" data-name="Grupo 174" transform="translate(156.94 87.189)">
    <path id="Caminho_1745" data-name="Caminho 1745" d="M880,404.359V400h4.359v4.359Z" transform="translate(-845.124 -400)" fill="#edde94" fill-rule="evenodd"/>
    <path id="Caminho_1746" data-name="Caminho 1746" d="M754.876,420v8.719h-4.359v4.359h-4.359v4.359H741.8V441.8h-8.719v4.359H720V441.8h8.719v-4.359h8.719v-4.359H741.8v-4.359h4.359v-4.359h4.359V420Z" transform="translate(-720 -415.641)" fill="#edde94" fill-rule="evenodd"/>
  </g>
  <g id="Grupo_175" data-name="Grupo 175" transform="translate(8.719 4.359)">
    <path id="Caminho_1747" data-name="Caminho 1747" d="M477.438,20H481.8v8.719h-4.359v4.359h-4.359V41.8h-4.359v8.719h-4.359v21.8H460V46.157h4.359V37.438h4.359V28.719h4.359V24.359h4.359Z" transform="translate(-368.452 -20)" fill="#fff7ac" fill-rule="evenodd"/>
    <path id="Caminho_1748" data-name="Caminho 1748" d="M564.359,104.359H560V100h4.359Z" transform="translate(-446.654 -82.562)" fill="#fff7ac" fill-rule="evenodd"/>
    <path id="Caminho_1749" data-name="Caminho 1749" d="M701.8,117.438h-4.359V121.8h-8.719v-4.359h-4.359v-4.359h4.359v-4.359h-4.359v-4.359H680V100h8.719v4.359h4.359v4.359h4.359v4.359H701.8Z" transform="translate(-540.498 -82.562)" fill="#fff7ac" fill-rule="evenodd"/>
    <path id="Caminho_1750" data-name="Caminho 1750" d="M580,120h4.359v4.359H580Z" transform="translate(-462.295 -98.203)" fill="#fff7ac" fill-rule="evenodd"/>
    <path id="Caminho_1751" data-name="Caminho 1751" d="M780,180h4.359v4.359H780Z" transform="translate(-618.701 -145.124)" fill="#fff7ac" fill-rule="evenodd"/>
    <path id="Caminho_1752" data-name="Caminho 1752" d="M520,200h13.078v4.359H520Z" transform="translate(-415.373 -160.765)" fill="#fff7ac" fill-rule="evenodd"/>
    <path id="Caminho_1753" data-name="Caminho 1753" d="M800,200h4.359v4.359H800Z" transform="translate(-634.341 -160.765)" fill="#fff7ac" fill-rule="evenodd"/>
    <path id="Caminho_1754" data-name="Caminho 1754" d="M131.548,260v4.359h13.078v4.359h8.719v4.359h8.719v4.359h4.359V281.8h4.359v8.719h4.359v8.719H179.5v34.876h-4.359v13.078h-4.359v8.719h-4.359v4.359h-4.359v4.359h-4.359v4.359h-8.719v4.359h-8.719v4.359H127.189v4.359H96.673v-4.359H83.594v-4.359H74.876v-4.359H66.157v-4.359H61.8v-4.359H57.438v-4.359H53.078v-8.719H48.719V338.47H44.359V325.392H40V299.235h4.359v-8.719h4.359v-4.359h4.359V281.8h4.359v-4.359H61.8v-4.359h8.719v-4.359h8.719v-4.359H92.313V260h39.235Zm-39.235,8.719H83.594v4.359H74.876v4.359H66.157V281.8H61.8v4.359H57.438v4.359H53.078v4.359H48.719v8.719H44.359v17.438h4.359v13.078h4.359v8.719h4.359v8.719H61.8v4.359h4.359v4.359h4.359v4.359h8.719v4.359h8.719v4.359h13.078v4.359h21.8v-4.359h13.078v-4.359h8.719v-4.359h8.719v-4.359h4.359v-4.359h4.359v-4.359h4.359V342.83h4.359V329.751h4.359V303.594h-4.359v-8.719h-4.359v-8.719h-4.359V281.8h-4.359v-4.359h-8.719v-4.359h-8.719v-4.359H127.189v-4.359H96.673v4.359Z" transform="translate(-40 -207.687)" fill="#fff7ac" fill-rule="evenodd"/>
    <path id="Caminho_1755" data-name="Caminho 1755" d="M620,284.359V280h4.359v4.359Z" transform="translate(-493.576 -223.327)" fill="#fff7ac" fill-rule="evenodd"/>
    <path id="Caminho_1756" data-name="Caminho 1756" d="M400,324.359V320h4.359v4.359Z" transform="translate(-321.53 -254.608)" fill="#fff7ac" fill-rule="evenodd"/>
    <path id="Caminho_1757" data-name="Caminho 1757" d="M700,324.359V320h4.359v4.359Z" transform="translate(-556.138 -254.608)" fill="#fff7ac" fill-rule="evenodd"/>
    <path id="Caminho_1758" data-name="Caminho 1758" d="M904.359,320v8.719H900V320Z" transform="translate(-712.544 -254.608)" fill="#fff7ac" fill-rule="evenodd"/>
    <path id="Caminho_1759" data-name="Caminho 1759" d="M264.359,344.359H260V340h4.359Z" transform="translate(-212.046 -270.249)" fill="#fff7ac" fill-rule="evenodd"/>
    <path id="Caminho_1760" data-name="Caminho 1760" d="M684.359,340v4.359H680V340Z" transform="translate(-540.498 -270.249)" fill="#fff7ac" fill-rule="evenodd"/>
    <path id="Caminho_1761" data-name="Caminho 1761" d="M280,360h4.359v4.359H280Z" transform="translate(-227.687 -285.889)" fill="#fff7ac" fill-rule="evenodd"/>
    <path id="Caminho_1762" data-name="Caminho 1762" d="M780,364.359V360h4.359v13.078H780v-8.719Z" transform="translate(-618.701 -285.889)" fill="#fff7ac" fill-rule="evenodd"/>
    <path id="Caminho_1763" data-name="Caminho 1763" d="M884.359,360v8.719H880V360Z" transform="translate(-696.903 -285.889)" fill="#fff7ac" fill-rule="evenodd"/>
    <path id="Caminho_1764" data-name="Caminho 1764" d="M440,384.359V380h4.359v4.359Z" transform="translate(-352.811 -301.53)" fill="#fff7ac" fill-rule="evenodd"/>
    <path id="Caminho_1765" data-name="Caminho 1765" d="M864.359,400v4.359H860V400Z" transform="translate(-681.263 -317.17)" fill="#fff7ac" fill-rule="evenodd"/>
    <path id="Caminho_1766" data-name="Caminho 1766" d="M140,484.359V480h4.359v4.359Z" transform="translate(-118.203 -379.733)" fill="#fff7ac" fill-rule="evenodd"/>
    <path id="Caminho_1767" data-name="Caminho 1767" d="M320,497.438V484.359h4.359V480h4.359v8.719h4.359v-4.359H341.8v4.359h-4.359v4.359h-4.359v4.359h4.359V501.8h-8.719v-8.719h-4.359v4.359Z" transform="translate(-258.968 -379.733)" fill="#fff7ac" fill-rule="evenodd"/>
    <path id="Caminho_1768" data-name="Caminho 1768" d="M600,484.359V480h4.359v4.359Z" transform="translate(-477.935 -379.733)" fill="#fff7ac" fill-rule="evenodd"/>
    <path id="Caminho_1769" data-name="Caminho 1769" d="M520,504.359V500h4.359v4.359Z" transform="translate(-415.373 -395.373)" fill="#fff7ac" fill-rule="evenodd"/>
    <path id="Caminho_1770" data-name="Caminho 1770" d="M304.359,560v4.359H300V560Z" transform="translate(-243.327 -442.295)" fill="#fff7ac" fill-rule="evenodd"/>
    <path id="Caminho_1771" data-name="Caminho 1771" d="M160,624.359V620h8.719v4.359H160Z" transform="translate(-133.843 -489.217)" fill="#fff7ac" fill-rule="evenodd"/>
    <path id="Caminho_1772" data-name="Caminho 1772" d="M340,624.359V620h4.359v4.359Z" transform="translate(-274.608 -489.217)" fill="#fff7ac" fill-rule="evenodd"/>
    <path id="Caminho_1773" data-name="Caminho 1773" d="M560,624.359V620h4.359v4.359Z" transform="translate(-446.654 -489.217)" fill="#fff7ac" fill-rule="evenodd"/>
    <path id="Caminho_1774" data-name="Caminho 1774" d="M444.359,684.359H440V680h4.359Z" transform="translate(-352.811 -536.138)" fill="#fff7ac" fill-rule="evenodd"/>
    <path id="Caminho_1775" data-name="Caminho 1775" d="M280,704.359V700h4.359v8.719H280Z" transform="translate(-227.687 -551.779)" fill="#fff7ac" fill-rule="evenodd"/>
    <path id="Caminho_1776" data-name="Caminho 1776" d="M460,700h4.359v4.359H460Z" transform="translate(-368.452 -551.779)" fill="#fff7ac" fill-rule="evenodd"/>
  </g>
  <g id="Grupo_176" data-name="Grupo 176" transform="translate(4.359 78.47)">
    <path id="Caminho_1777" data-name="Caminho 1777" d="M920,360h4.359v8.719H920V360Z" transform="translate(-723.825 -360)" fill="#f9ba35" fill-rule="evenodd"/>
    <path id="Caminho_1778" data-name="Caminho 1778" d="M900,428.719V420h4.359v8.719Z" transform="translate(-708.184 -406.922)" fill="#f9ba35" fill-rule="evenodd"/>
    <path id="Caminho_1779" data-name="Caminho 1779" d="M837.438,460v8.719h-4.359v4.359h-4.359v4.359H820v-4.359h4.359v-4.359h4.359v-4.359h4.359V460Z" transform="translate(-645.622 -438.203)" fill="#f9ba35" fill-rule="evenodd"/>
    <path id="Caminho_1780" data-name="Caminho 1780" d="M788.719,540v4.359H780V540h8.719Z" transform="translate(-614.341 -500.765)" fill="#f9ba35" fill-rule="evenodd"/>
    <path id="Caminho_1781" data-name="Caminho 1781" d="M20,560h4.359v13.078h4.359V581.8h4.359v8.719h4.359v4.359H41.8v4.359h4.359v4.359h4.359v4.359h8.719v4.359h8.719v4.359H54.876v-4.359H46.157v-4.359H41.8v-4.359H33.078v-4.359H28.719v-4.359H24.359v-8.719H20Z" transform="translate(-20 -516.406)" fill="#f9ba35" fill-rule="evenodd"/>
    <path id="Caminho_1782" data-name="Caminho 1782" d="M660,668.719V660h4.359v8.719Z" transform="translate(-520.498 -594.608)" fill="#f9ba35" fill-rule="evenodd"/>
    <path id="Caminho_1783" data-name="Caminho 1783" d="M640,704.359V700h4.359v4.359Z" transform="translate(-504.857 -625.889)" fill="#f9ba35" fill-rule="evenodd"/>
    <path id="Caminho_1784" data-name="Caminho 1784" d="M620,724.359V720h4.359v4.359Z" transform="translate(-489.217 -641.53)" fill="#f9ba35" fill-rule="evenodd"/>
    <path id="Caminho_1785" data-name="Caminho 1785" d="M600,744.359V740h4.359v4.359Z" transform="translate(-473.576 -657.17)" fill="#f9ba35" fill-rule="evenodd"/>
    <path id="Caminho_1786" data-name="Caminho 1786" d="M580,764.359V760h4.359v4.359Z" transform="translate(-457.935 -672.811)" fill="#f9ba35" fill-rule="evenodd"/>
    <path id="Caminho_1787" data-name="Caminho 1787" d="M540,784.359V780h8.719v4.359H540Z" transform="translate(-426.654 -688.452)" fill="#f9ba35" fill-rule="evenodd"/>
    <path id="Caminho_1788" data-name="Caminho 1788" d="M500,804.359V800h8.719v4.359H500Z" transform="translate(-395.373 -704.092)" fill="#f9ba35" fill-rule="evenodd"/>
    <path id="Caminho_1789" data-name="Caminho 1789" d="M240,820h13.078v4.359H240Z" transform="translate(-192.046 -719.733)" fill="#f9ba35" fill-rule="evenodd"/>
    <path id="Caminho_1790" data-name="Caminho 1790" d="M440,824.359V820h13.078v4.359H440Z" transform="translate(-348.452 -719.733)" fill="#f9ba35" fill-rule="evenodd"/>
    <path id="Caminho_1791" data-name="Caminho 1791" d="M300,844.359V840h30.516v4.359Z" transform="translate(-238.968 -735.373)" fill="#f9ba35" fill-rule="evenodd"/>
  </g>
  <g id="Grupo_177" data-name="Grupo 177" transform="translate(8.719 87.189)">
    <path id="Caminho_1792" data-name="Caminho 1792" d="M763.595,400h4.359v21.8h-4.359v8.719h-4.359v4.359h-4.359v4.359h-8.719v4.359H720v-8.719h21.8v-4.359h8.719v-4.359h4.359V421.8h4.359v-8.719h4.359V400Z" transform="translate(-571.779 -400)" fill="#df9722" fill-rule="evenodd"/>
    <path id="Caminho_1793" data-name="Caminho 1793" d="M680,604.359V600h4.359v13.078H680v-8.719Z" transform="translate(-540.498 -556.406)" fill="#df9722" fill-rule="evenodd"/>
    <path id="Caminho_1794" data-name="Caminho 1794" d="M660,704.359V700h4.359v4.359Z" transform="translate(-524.857 -634.608)" fill="#df9722" fill-rule="evenodd"/>
    <path id="Caminho_1795" data-name="Caminho 1795" d="M40,724.359V720h4.359v4.359Z" transform="translate(-40 -650.249)" fill="#df9722" fill-rule="evenodd"/>
    <path id="Caminho_1796" data-name="Caminho 1796" d="M190.783,720v13.078h-4.359V741.8h-4.359v4.359h-4.359v4.359h-4.359v4.359h-8.719v4.359h-8.719v4.359H142.83v4.359H112.313v-4.359H99.235v-4.359H90.516v-4.359H81.8v-4.359H77.438v-4.359H73.078V741.8H68.719v-4.359H64.359v-4.359H60v-8.719h4.359v4.359h8.719v4.359h4.359v4.359h8.719V741.8H99.235v4.359h13.078v4.359H142.83v-4.359h13.078V741.8h8.719v-4.359h8.719v-4.359h4.359v-4.359h4.359v-4.359h4.359V720Z" transform="translate(-55.641 -650.249)" fill="#df9722" fill-rule="evenodd"/>
  </g>
</svg>
