<svg id="Melancia" xmlns="http://www.w3.org/2000/svg" width="209.254" height="165.659" viewBox="0 0 209.254 165.659">
  <g id="Grupo_178" data-name="Grupo 178" transform="translate(0 0)">
    <path id="Caminho_1797" data-name="Caminho 1797" d="M160,100h8.719v4.359h-4.359v8.719H160V100Z" transform="translate(-125.124 -100)" fill-rule="evenodd"/>
    <path id="Caminho_1798" data-name="Caminho 1798" d="M200,120h4.359v4.359H200Z" transform="translate(-156.406 -115.641)" fill-rule="evenodd"/>
    <path id="Caminho_1799" data-name="Caminho 1799" d="M220,140h4.359v8.719H220Z" transform="translate(-172.046 -131.281)" fill-rule="evenodd"/>
    <path id="Caminho_1800" data-name="Caminho 1800" d="M180,160h4.359v4.359h4.359v4.359H180V160Z" transform="translate(-140.765 -146.922)" fill-rule="evenodd"/>
    <path id="Caminho_1801" data-name="Caminho 1801" d="M700,164.359V160h8.719v4.359Z" transform="translate(-547.419 -146.922)" fill-rule="evenodd"/>
    <path id="Caminho_1802" data-name="Caminho 1802" d="M684.359,180v8.719h4.359v4.359H680V180Z" transform="translate(-531.779 -162.562)" fill-rule="evenodd"/>
    <path id="Caminho_1803" data-name="Caminho 1803" d="M724.359,180h4.359v8.719H720v-4.359h4.359Z" transform="translate(-563.06 -162.562)" fill-rule="evenodd"/>
    <path id="Caminho_1804" data-name="Caminho 1804" d="M80,224.359V220h4.359v4.359Z" transform="translate(-62.562 -193.843)" fill-rule="evenodd"/>
    <path id="Caminho_1805" data-name="Caminho 1805" d="M368.719,224.359h-4.359v8.719H360V220h8.719Z" transform="translate(-281.53 -193.843)" fill-rule="evenodd"/>
    <path id="Caminho_1806" data-name="Caminho 1806" d="M820,224.359V220h8.719v8.719h-4.359v-4.359Z" transform="translate(-641.263 -193.843)" fill-rule="evenodd"/>
    <path id="Caminho_1807" data-name="Caminho 1807" d="M64.359,240v4.359h4.359v4.359H60V240Z" transform="translate(-46.922 -209.484)" fill-rule="evenodd"/>
    <path id="Caminho_1808" data-name="Caminho 1808" d="M100,244.359V240h4.359v4.359Z" transform="translate(-78.203 -209.484)" fill-rule="evenodd"/>
    <path id="Caminho_1809" data-name="Caminho 1809" d="M400,240h4.359v8.719H400Z" transform="translate(-312.811 -209.484)" fill-rule="evenodd"/>
    <path id="Caminho_1810" data-name="Caminho 1810" d="M804.359,240v4.359h4.359v4.359H800V240Z" transform="translate(-625.622 -209.484)" fill-rule="evenodd"/>
    <path id="Caminho_1811" data-name="Caminho 1811" d="M208.719,288.719v-4.359h-4.359v4.359H200V280h13.078v8.719Z" transform="translate(-156.406 -240.765)" fill-rule="evenodd"/>
    <path id="Caminho_1812" data-name="Caminho 1812" d="M380,280h4.359v4.359H380Z" transform="translate(-297.17 -240.765)" fill-rule="evenodd"/>
    <path id="Caminho_1813" data-name="Caminho 1813" d="M480,304.359V300h13.078v4.359Z" transform="translate(-375.373 -256.405)" fill-rule="evenodd"/>
    <path id="Caminho_1814" data-name="Caminho 1814" d="M220,320h4.359v4.359H220Z" transform="translate(-172.046 -272.046)" fill-rule="evenodd"/>
    <path id="Caminho_1815" data-name="Caminho 1815" d="M464.359,320v13.078h8.719v4.359H460V320Z" transform="translate(-359.733 -272.046)" fill-rule="evenodd"/>
    <path id="Caminho_1816" data-name="Caminho 1816" d="M540,320h4.359v8.719H540Z" transform="translate(-422.295 -272.046)" fill-rule="evenodd"/>
    <path id="Caminho_1817" data-name="Caminho 1817" d="M853.078,324.359h-8.719v4.359H840V320h13.078Z" transform="translate(-656.903 -272.046)" fill-rule="evenodd"/>
    <path id="Caminho_1818" data-name="Caminho 1818" d="M800,344.359V340h4.359v4.359Z" transform="translate(-625.622 -287.687)" fill-rule="evenodd"/>
    <path id="Caminho_1819" data-name="Caminho 1819" d="M900,344.359V340h4.359v4.359Z" transform="translate(-703.825 -287.687)" fill-rule="evenodd"/>
    <path id="Caminho_1820" data-name="Caminho 1820" d="M248.719,364.359h-4.359v4.359h4.359v-4.359h4.359v8.719H240V360h8.719Z" transform="translate(-187.687 -303.327)" fill-rule="evenodd"/>
    <path id="Caminho_1821" data-name="Caminho 1821" d="M520,364.359V360h4.359v4.359Z" transform="translate(-406.654 -303.327)" fill-rule="evenodd"/>
    <path id="Caminho_1822" data-name="Caminho 1822" d="M600,364.359V360h13.078v4.359Z" transform="translate(-469.217 -303.327)" fill-rule="evenodd"/>
    <path id="Caminho_1823" data-name="Caminho 1823" d="M700,364.359V360h8.719v4.359Z" transform="translate(-547.419 -303.327)" fill-rule="evenodd"/>
    <path id="Caminho_1824" data-name="Caminho 1824" d="M780,364.359V360h4.359v4.359Z" transform="translate(-609.982 -303.327)" fill-rule="evenodd"/>
    <path id="Caminho_1825" data-name="Caminho 1825" d="M820,360h4.359v4.359H820Z" transform="translate(-641.263 -303.327)" fill-rule="evenodd"/>
    <path id="Caminho_1826" data-name="Caminho 1826" d="M884.359,360v8.719H880V360Z" transform="translate(-688.184 -303.327)" fill-rule="evenodd"/>
    <path id="Caminho_1827" data-name="Caminho 1827" d="M920,360h4.359v4.359h4.359v30.516h-4.359V368.719H920Z" transform="translate(-719.465 -303.327)" fill-rule="evenodd"/>
    <path id="Caminho_1828" data-name="Caminho 1828" d="M0,380H8.719v4.359H4.359v21.8H0Z" transform="translate(0 -318.968)" fill-rule="evenodd"/>
    <path id="Caminho_1829" data-name="Caminho 1829" d="M560,384.359V380h8.719v4.359H560Z" transform="translate(-437.935 -318.968)" fill-rule="evenodd"/>
    <path id="Caminho_1830" data-name="Caminho 1830" d="M660,380h8.719v4.359H660Z" transform="translate(-516.138 -318.968)" fill-rule="evenodd"/>
    <path id="Caminho_1831" data-name="Caminho 1831" d="M740,380h8.719v4.359H740Z" transform="translate(-578.7 -318.968)" fill-rule="evenodd"/>
    <path id="Caminho_1832" data-name="Caminho 1832" d="M40,400h8.719v4.359H44.359v8.719H40V400Z" transform="translate(-31.281 -334.608)" fill-rule="evenodd"/>
    <path id="Caminho_1833" data-name="Caminho 1833" d="M497.438,400v17.438H484.359V421.8H480v-8.719h13.078V400Z" transform="translate(-375.373 -334.608)" fill-rule="evenodd"/>
    <path id="Caminho_1834" data-name="Caminho 1834" d="M860,404.359V400h4.359v4.359Z" transform="translate(-672.544 -334.608)" fill-rule="evenodd"/>
    <path id="Caminho_1835" data-name="Caminho 1835" d="M900,404.359V400h4.359v4.359Z" transform="translate(-703.825 -334.608)" fill-rule="evenodd"/>
    <path id="Caminho_1836" data-name="Caminho 1836" d="M80,420h8.719v4.359H84.359v4.359H80Z" transform="translate(-62.562 -350.249)" fill-rule="evenodd"/>
    <path id="Caminho_1837" data-name="Caminho 1837" d="M840,424.359V420h4.359v4.359Z" transform="translate(-656.903 -350.249)" fill-rule="evenodd"/>
    <path id="Caminho_1838" data-name="Caminho 1838" d="M880,424.359V420h4.359v4.359Z" transform="translate(-688.184 -350.249)" fill-rule="evenodd"/>
    <path id="Caminho_1839" data-name="Caminho 1839" d="M120,444.359V440h21.8v4.359H120Z" transform="translate(-93.843 -365.889)" fill-rule="evenodd"/>
    <path id="Caminho_1840" data-name="Caminho 1840" d="M820,444.359V440h4.359v4.359Z" transform="translate(-641.263 -365.889)" fill-rule="evenodd"/>
    <path id="Caminho_1841" data-name="Caminho 1841" d="M860,444.359V440h4.359v4.359Z" transform="translate(-672.544 -365.889)" fill-rule="evenodd"/>
    <path id="Caminho_1842" data-name="Caminho 1842" d="M60,460h4.359v8.719H60V460Z" transform="translate(-46.922 -381.53)" fill-rule="evenodd"/>
    <path id="Caminho_1843" data-name="Caminho 1843" d="M100,460h4.359v8.719H100Z" transform="translate(-78.203 -381.53)" fill-rule="evenodd"/>
    <path id="Caminho_1844" data-name="Caminho 1844" d="M220,460h4.359v8.719H220Z" transform="translate(-172.046 -381.53)" fill-rule="evenodd"/>
    <path id="Caminho_1845" data-name="Caminho 1845" d="M380,464.359V460h4.359v4.359Z" transform="translate(-297.17 -381.53)" fill-rule="evenodd"/>
    <path id="Caminho_1846" data-name="Caminho 1846" d="M640,464.359V460h4.359v4.359Z" transform="translate(-500.498 -381.53)" fill-rule="evenodd"/>
    <path id="Caminho_1847" data-name="Caminho 1847" d="M700,464.359V460h4.359v4.359Z" transform="translate(-547.419 -381.53)" fill-rule="evenodd"/>
    <path id="Caminho_1848" data-name="Caminho 1848" d="M800,464.359V460h4.359v4.359Z" transform="translate(-625.622 -381.53)" fill-rule="evenodd"/>
    <path id="Caminho_1849" data-name="Caminho 1849" d="M840,464.359V460h4.359v4.359Z" transform="translate(-656.903 -381.53)" fill-rule="evenodd"/>
    <path id="Caminho_1850" data-name="Caminho 1850" d="M184.359,484.359H180V480h4.359Z" transform="translate(-140.765 -397.17)" fill-rule="evenodd"/>
    <path id="Caminho_1851" data-name="Caminho 1851" d="M320,484.359V480h13.078v4.359H320Z" transform="translate(-250.249 -397.17)" fill-rule="evenodd"/>
    <path id="Caminho_1852" data-name="Caminho 1852" d="M400,480h8.719v4.359H400Z" transform="translate(-312.811 -397.17)" fill-rule="evenodd"/>
    <path id="Caminho_1853" data-name="Caminho 1853" d="M580,484.359V480h4.359v4.359Z" transform="translate(-453.576 -397.17)" fill-rule="evenodd"/>
    <path id="Caminho_1854" data-name="Caminho 1854" d="M780,484.359V480h4.359v4.359Z" transform="translate(-609.982 -397.17)" fill-rule="evenodd"/>
    <path id="Caminho_1855" data-name="Caminho 1855" d="M820,484.359V480h4.359v4.359Z" transform="translate(-641.263 -397.17)" fill-rule="evenodd"/>
    <path id="Caminho_1856" data-name="Caminho 1856" d="M20,500h4.359v13.078H20V500Z" transform="translate(-15.641 -412.811)" fill-rule="evenodd"/>
    <path id="Caminho_1857" data-name="Caminho 1857" d="M80,500h4.359v4.359H80Z" transform="translate(-62.562 -412.811)" fill-rule="evenodd"/>
    <path id="Caminho_1858" data-name="Caminho 1858" d="M120,504.359V500h4.359v4.359Z" transform="translate(-93.843 -412.811)" fill-rule="evenodd"/>
    <path id="Caminho_1859" data-name="Caminho 1859" d="M200,500h4.359v4.359H200Z" transform="translate(-156.406 -412.811)" fill-rule="evenodd"/>
    <path id="Caminho_1860" data-name="Caminho 1860" d="M240,500h4.359v4.359h8.719v4.359H240V500Z" transform="translate(-187.687 -412.811)" fill-rule="evenodd"/>
    <path id="Caminho_1861" data-name="Caminho 1861" d="M300,504.359V500h4.359v4.359Z" transform="translate(-234.608 -412.811)" fill-rule="evenodd"/>
    <path id="Caminho_1862" data-name="Caminho 1862" d="M440,500h8.719v4.359H440Z" transform="translate(-344.092 -412.811)" fill-rule="evenodd"/>
    <path id="Caminho_1863" data-name="Caminho 1863" d="M564.359,500v4.359H560V500Z" transform="translate(-437.935 -412.811)" fill-rule="evenodd"/>
    <path id="Caminho_1864" data-name="Caminho 1864" d="M740,504.359V500h8.719v4.359Z" transform="translate(-578.7 -412.811)" fill-rule="evenodd"/>
    <path id="Caminho_1865" data-name="Caminho 1865" d="M800,504.359V500h4.359v4.359Z" transform="translate(-625.622 -412.811)" fill-rule="evenodd"/>
    <path id="Caminho_1866" data-name="Caminho 1866" d="M100,520h4.359v4.359H100Z" transform="translate(-78.203 -428.452)" fill-rule="evenodd"/>
    <path id="Caminho_1867" data-name="Caminho 1867" d="M140,524.359V520h4.359v4.359Z" transform="translate(-109.484 -428.452)" fill-rule="evenodd"/>
    <path id="Caminho_1868" data-name="Caminho 1868" d="M720,524.359V520h4.359v4.359Z" transform="translate(-563.06 -428.452)" fill-rule="evenodd"/>
    <path id="Caminho_1869" data-name="Caminho 1869" d="M780,524.359V520h4.359v4.359Z" transform="translate(-609.982 -428.452)" fill-rule="evenodd"/>
    <path id="Caminho_1870" data-name="Caminho 1870" d="M924.359,520v13.078H920V520Z" transform="translate(-719.465 -428.452)" fill-rule="evenodd"/>
    <path id="Caminho_1871" data-name="Caminho 1871" d="M120,540h4.359v4.359H120Z" transform="translate(-93.843 -444.092)" fill-rule="evenodd"/>
    <path id="Caminho_1872" data-name="Caminho 1872" d="M160,544.359V540h8.719v4.359Z" transform="translate(-125.124 -444.092)" fill-rule="evenodd"/>
    <path id="Caminho_1873" data-name="Caminho 1873" d="M400,544.359V540h4.359v4.359Z" transform="translate(-312.811 -444.092)" fill-rule="evenodd"/>
    <path id="Caminho_1874" data-name="Caminho 1874" d="M680,544.359V540h8.719v4.359Z" transform="translate(-531.779 -444.092)" fill-rule="evenodd"/>
    <path id="Caminho_1875" data-name="Caminho 1875" d="M740,544.359V540h8.719v4.359H740Z" transform="translate(-578.7 -444.092)" fill-rule="evenodd"/>
    <path id="Caminho_1876" data-name="Caminho 1876" d="M40,560h4.359v8.719H40V560Z" transform="translate(-31.281 -459.733)" fill-rule="evenodd"/>
    <path id="Caminho_1877" data-name="Caminho 1877" d="M140,560h4.359v4.359H140Z" transform="translate(-109.484 -459.733)" fill-rule="evenodd"/>
    <path id="Caminho_1878" data-name="Caminho 1878" d="M200,564.359V560h8.719v4.359Z" transform="translate(-156.406 -459.733)" fill-rule="evenodd"/>
    <path id="Caminho_1879" data-name="Caminho 1879" d="M620,564.359V560h13.078v4.359Z" transform="translate(-484.857 -459.733)" fill-rule="evenodd"/>
    <path id="Caminho_1880" data-name="Caminho 1880" d="M720,564.359V560h4.359v4.359Z" transform="translate(-563.06 -459.733)" fill-rule="evenodd"/>
    <path id="Caminho_1881" data-name="Caminho 1881" d="M160,580h8.719v4.359H160Z" transform="translate(-125.124 -475.373)" fill-rule="evenodd"/>
    <path id="Caminho_1882" data-name="Caminho 1882" d="M240,584.359V580h13.078v4.359Z" transform="translate(-187.687 -475.373)" fill-rule="evenodd"/>
    <path id="Caminho_1883" data-name="Caminho 1883" d="M560,584.359V580h13.078v4.359Z" transform="translate(-437.935 -475.373)" fill-rule="evenodd"/>
    <path id="Caminho_1884" data-name="Caminho 1884" d="M680,584.359V580h8.719v4.359H680Z" transform="translate(-531.779 -475.373)" fill-rule="evenodd"/>
    <path id="Caminho_1885" data-name="Caminho 1885" d="M904.359,580v8.719H900V580Z" transform="translate(-703.825 -475.373)" fill-rule="evenodd"/>
    <path id="Caminho_1886" data-name="Caminho 1886" d="M60,600h4.359v8.719H60V600Z" transform="translate(-46.922 -491.014)" fill-rule="evenodd"/>
    <path id="Caminho_1887" data-name="Caminho 1887" d="M200,600h8.719v4.359H200Z" transform="translate(-156.406 -491.014)" fill-rule="evenodd"/>
    <path id="Caminho_1888" data-name="Caminho 1888" d="M300,604.359V600h56.673v4.359Z" transform="translate(-234.608 -491.014)" fill-rule="evenodd"/>
    <path id="Caminho_1889" data-name="Caminho 1889" d="M620,604.359V600h13.078v4.359H620Z" transform="translate(-484.857 -491.014)" fill-rule="evenodd"/>
    <path id="Caminho_1890" data-name="Caminho 1890" d="M240,620h13.078v4.359H240Z" transform="translate(-187.687 -506.654)" fill-rule="evenodd"/>
    <path id="Caminho_1891" data-name="Caminho 1891" d="M560,624.359V620h13.078v4.359H560Z" transform="translate(-437.935 -506.654)" fill-rule="evenodd"/>
    <path id="Caminho_1892" data-name="Caminho 1892" d="M884.359,620v8.719H880V620Z" transform="translate(-688.184 -506.654)" fill-rule="evenodd"/>
    <path id="Caminho_1893" data-name="Caminho 1893" d="M80,640h4.359v4.359H80Z" transform="translate(-62.562 -522.295)" fill-rule="evenodd"/>
    <path id="Caminho_1894" data-name="Caminho 1894" d="M300,640h56.673v4.359H300Z" transform="translate(-234.608 -522.295)" fill-rule="evenodd"/>
    <path id="Caminho_1895" data-name="Caminho 1895" d="M100,660h4.359v4.359H100Z" transform="translate(-78.203 -537.935)" fill-rule="evenodd"/>
    <path id="Caminho_1896" data-name="Caminho 1896" d="M860,664.359V660h4.359v4.359Z" transform="translate(-672.544 -537.935)" fill-rule="evenodd"/>
    <path id="Caminho_1897" data-name="Caminho 1897" d="M120,680h4.359v4.359H120Z" transform="translate(-93.843 -553.576)" fill-rule="evenodd"/>
    <path id="Caminho_1898" data-name="Caminho 1898" d="M840,684.359V680h4.359v4.359Z" transform="translate(-656.903 -553.576)" fill-rule="evenodd"/>
    <path id="Caminho_1899" data-name="Caminho 1899" d="M140,700h4.359v4.359H140Z" transform="translate(-109.484 -569.217)" fill-rule="evenodd"/>
    <path id="Caminho_1900" data-name="Caminho 1900" d="M820,704.359V700h4.359v4.359Z" transform="translate(-641.263 -569.217)" fill-rule="evenodd"/>
    <path id="Caminho_1901" data-name="Caminho 1901" d="M160,720h4.359v4.359H160Z" transform="translate(-125.124 -584.857)" fill-rule="evenodd"/>
    <path id="Caminho_1902" data-name="Caminho 1902" d="M800,724.359V720h4.359v4.359Z" transform="translate(-625.622 -584.857)" fill-rule="evenodd"/>
    <path id="Caminho_1903" data-name="Caminho 1903" d="M180,740h8.719v4.359H180Z" transform="translate(-140.765 -600.498)" fill-rule="evenodd"/>
    <path id="Caminho_1904" data-name="Caminho 1904" d="M780,744.359V740h4.359v4.359Z" transform="translate(-609.982 -600.498)" fill-rule="evenodd"/>
    <path id="Caminho_1905" data-name="Caminho 1905" d="M220,760h4.359v4.359H220Z" transform="translate(-172.046 -616.138)" fill-rule="evenodd"/>
    <path id="Caminho_1906" data-name="Caminho 1906" d="M740,764.359V760h8.719v4.359H740Z" transform="translate(-578.7 -616.138)" fill-rule="evenodd"/>
    <path id="Caminho_1907" data-name="Caminho 1907" d="M240,780h8.719v4.359H240Z" transform="translate(-187.687 -631.779)" fill-rule="evenodd"/>
    <path id="Caminho_1908" data-name="Caminho 1908" d="M700,784.359V780h8.719v4.359H700Z" transform="translate(-547.419 -631.779)" fill-rule="evenodd"/>
    <path id="Caminho_1909" data-name="Caminho 1909" d="M280,800h13.078v4.359H280Z" transform="translate(-218.968 -647.419)" fill-rule="evenodd"/>
    <path id="Caminho_1910" data-name="Caminho 1910" d="M660,804.359V800h8.719v4.359H660Z" transform="translate(-516.138 -647.419)" fill-rule="evenodd"/>
    <path id="Caminho_1911" data-name="Caminho 1911" d="M340,820h17.438v4.359H340Z" transform="translate(-265.889 -663.06)" fill-rule="evenodd"/>
    <path id="Caminho_1912" data-name="Caminho 1912" d="M580,824.359V820h17.438v4.359H580Z" transform="translate(-453.576 -663.06)" fill-rule="evenodd"/>
    <path id="Caminho_1913" data-name="Caminho 1913" d="M420,844.359V840h34.876v4.359Z" transform="translate(-328.452 -678.7)" fill-rule="evenodd"/>
  </g>
  <g id="Grupo_179" data-name="Grupo 179" transform="translate(17.438 4.359)">
    <path id="Caminho_1914" data-name="Caminho 1914" d="M180,120h4.359v8.719H180V120Z" transform="translate(-158.203 -120)" fill="#d7514c" fill-rule="evenodd"/>
    <path id="Caminho_1915" data-name="Caminho 1915" d="M700,184.359V180h8.719v4.359H700Z" transform="translate(-564.857 -166.922)" fill="#d7514c" fill-rule="evenodd"/>
    <path id="Caminho_1916" data-name="Caminho 1916" d="M80,244.359V240h4.359v4.359Z" transform="translate(-80 -213.843)" fill="#d7514c" fill-rule="evenodd"/>
    <path id="Caminho_1917" data-name="Caminho 1917" d="M380,244.359V240h4.359v4.359Z" transform="translate(-314.608 -213.843)" fill="#d7514c" fill-rule="evenodd"/>
    <path id="Caminho_1918" data-name="Caminho 1918" d="M820,244.359V240h4.359v4.359Z" transform="translate(-658.7 -213.843)" fill="#d7514c" fill-rule="evenodd"/>
    <path id="Caminho_1919" data-name="Caminho 1919" d="M220,304.359V300h4.359v4.359Z" transform="translate(-189.484 -260.765)" fill="#d7514c" fill-rule="evenodd"/>
    <path id="Caminho_1920" data-name="Caminho 1920" d="M488.719,324.359h-4.359v8.719H480V320h13.078v4.359Z" transform="translate(-392.811 -276.405)" fill="#d7514c" fill-rule="evenodd"/>
    <path id="Caminho_1921" data-name="Caminho 1921" d="M290.019,340v4.359h-4.359v4.359H281.3v4.359H276.94v4.359h-4.359V361.8h-4.359v4.359H259.5v4.359h-8.719v-4.359h-4.359v4.359h4.359v4.359h-8.719v4.359h-8.719v4.359h-21.8v4.359h-21.8v4.359H146.157v-4.359h-8.719v-4.359h-8.719v-4.359h-4.359v-4.359H120v-8.719h21.8v8.719h-4.359v-4.359h-4.359v4.359h4.359v4.359H141.8v-4.359h4.359v8.719h13.078v-4.359h4.359v-4.359h13.078v-4.359h4.359v4.359h8.719v4.359h8.719v-4.359h4.359v-4.359h13.078V353.078h8.719v-4.359h13.078v4.359h8.719v-4.359h8.719v4.359h8.719v-4.359h4.359v-4.359h4.359v4.359h4.359v-4.359H281.3V340h8.719Zm-52.313,30.516v-4.359h-4.359v4.359Zm-17.438,4.359h-4.359v4.359h4.359v-4.359h4.359v-4.359h-4.359v4.359Zm-34.876,13.078v-4.359h-4.359v4.359Z" transform="translate(-111.281 -292.046)" fill="#d7514c" fill-rule="evenodd"/>
    <path id="Caminho_1922" data-name="Caminho 1922" d="M260,384.359V380h4.359v4.359Z" transform="translate(-220.765 -323.327)" fill="#d7514c" fill-rule="evenodd"/>
    <path id="Caminho_1923" data-name="Caminho 1923" d="M104.359,444.359H100V440h4.359Z" transform="translate(-95.641 -370.249)" fill="#d7514c" fill-rule="evenodd"/>
  </g>
  <g id="Grupo_180" data-name="Grupo 180" transform="translate(43.594 8.719)">
    <path id="Caminho_1924" data-name="Caminho 1924" d="M204.359,140v8.719H200V140Z" transform="translate(-200 -140)" fill="#a82923" fill-rule="evenodd"/>
    <path id="Caminho_1925" data-name="Caminho 1925" d="M700,204.359V200h4.359v4.359Z" transform="translate(-591.014 -186.922)" fill="#a82923" fill-rule="evenodd"/>
    <path id="Caminho_1926" data-name="Caminho 1926" d="M380,264.359V260h4.359v4.359Z" transform="translate(-340.765 -233.843)" fill="#a82923" fill-rule="evenodd"/>
    <path id="Caminho_1927" data-name="Caminho 1927" d="M500,344.359V340h8.719v4.359h-4.359v4.359H500Z" transform="translate(-434.608 -296.405)" fill="#a82923" fill-rule="evenodd"/>
    <path id="Caminho_1928" data-name="Caminho 1928" d="M860,384.359V380h4.359v4.359Z" transform="translate(-716.138 -327.687)" fill="#a82923" fill-rule="evenodd"/>
    <path id="Caminho_1929" data-name="Caminho 1929" d="M840,404.359V400h4.359v4.359Z" transform="translate(-700.498 -343.327)" fill="#a82923" fill-rule="evenodd"/>
    <path id="Caminho_1930" data-name="Caminho 1930" d="M820,424.359V420h4.359v4.359Z" transform="translate(-684.857 -358.968)" fill="#a82923" fill-rule="evenodd"/>
    <path id="Caminho_1931" data-name="Caminho 1931" d="M800,444.359V440h4.359v4.359Z" transform="translate(-669.217 -374.608)" fill="#a82923" fill-rule="evenodd"/>
    <path id="Caminho_1932" data-name="Caminho 1932" d="M408.986,460v4.359h-4.359v4.359h-8.719v4.359h-4.359v4.359H382.83V481.8H369.751v4.359H356.673v4.359H300v-4.359h30.516V481.8h21.8v-4.359h21.8v-4.359h8.719v-4.359h8.719v-4.359h8.719V460h8.719Z" transform="translate(-278.203 -390.249)" fill="#a82923" fill-rule="evenodd"/>
  </g>
  <g id="Grupo_181" data-name="Grupo 181" transform="translate(13.078 56.673)">
    <path id="Caminho_1933" data-name="Caminho 1933" d="M900,360h4.359v8.719H900Z" transform="translate(-716.903 -360)" fill="#deefa0" fill-rule="evenodd"/>
    <path id="Caminho_1934" data-name="Caminho 1934" d="M884.359,400v4.359H880V400Z" transform="translate(-701.263 -391.281)" fill="#deefa0" fill-rule="evenodd"/>
    <path id="Caminho_1935" data-name="Caminho 1935" d="M60,420h4.359v8.719H60Z" transform="translate(-60 -406.922)" fill="#deefa0" fill-rule="evenodd"/>
    <path id="Caminho_1936" data-name="Caminho 1936" d="M80,460h4.359v8.719H80V460Z" transform="translate(-75.641 -438.203)" fill="#deefa0" fill-rule="evenodd"/>
    <path id="Caminho_1937" data-name="Caminho 1937" d="M100,500h4.359v4.359H100Z" transform="translate(-91.281 -469.484)" fill="#deefa0" fill-rule="evenodd"/>
    <path id="Caminho_1938" data-name="Caminho 1938" d="M160,564.359V560h4.359v4.359Z" transform="translate(-138.203 -516.406)" fill="#deefa0" fill-rule="evenodd"/>
    <path id="Caminho_1939" data-name="Caminho 1939" d="M200,584.359V580h4.359v4.359Z" transform="translate(-169.484 -532.046)" fill="#deefa0" fill-rule="evenodd"/>
    <path id="Caminho_1940" data-name="Caminho 1940" d="M240,604.359V600h4.359v4.359Z" transform="translate(-200.765 -547.687)" fill="#deefa0" fill-rule="evenodd"/>
    <path id="Caminho_1941" data-name="Caminho 1941" d="M300,624.359V620h43.595v4.359H300Z" transform="translate(-247.687 -563.327)" fill="#deefa0" fill-rule="evenodd"/>
  </g>
  <g id="Grupo_182" data-name="Grupo 182" transform="translate(26.157 69.751)">
    <path id="Caminho_1942" data-name="Caminho 1942" d="M860,424.359V420h4.359v4.359Z" transform="translate(-698.701 -420)" fill="#bbd06f" fill-rule="evenodd"/>
    <path id="Caminho_1943" data-name="Caminho 1943" d="M840,444.359V440h4.359v4.359Z" transform="translate(-683.06 -435.641)" fill="#bbd06f" fill-rule="evenodd"/>
    <path id="Caminho_1944" data-name="Caminho 1944" d="M820,464.359V460h4.359v4.359Z" transform="translate(-667.419 -451.281)" fill="#bbd06f" fill-rule="evenodd"/>
    <path id="Caminho_1945" data-name="Caminho 1945" d="M800,484.359V480h4.359v4.359Z" transform="translate(-651.779 -466.922)" fill="#bbd06f" fill-rule="evenodd"/>
    <path id="Caminho_1946" data-name="Caminho 1946" d="M780,504.359V500h4.359v4.359Z" transform="translate(-636.138 -482.562)" fill="#bbd06f" fill-rule="evenodd"/>
    <path id="Caminho_1947" data-name="Caminho 1947" d="M120,524.359V520h4.359v4.359Z" transform="translate(-120 -498.203)" fill="#bbd06f" fill-rule="evenodd"/>
    <path id="Caminho_1948" data-name="Caminho 1948" d="M740,524.359V520h8.719v4.359H740Z" transform="translate(-604.857 -498.203)" fill="#bbd06f" fill-rule="evenodd"/>
    <path id="Caminho_1949" data-name="Caminho 1949" d="M140,540h4.359v4.359H140Z" transform="translate(-135.641 -513.843)" fill="#bbd06f" fill-rule="evenodd"/>
    <path id="Caminho_1950" data-name="Caminho 1950" d="M720,544.359V540h4.359v4.359Z" transform="translate(-589.217 -513.843)" fill="#bbd06f" fill-rule="evenodd"/>
    <path id="Caminho_1951" data-name="Caminho 1951" d="M180,564.359V560h4.359v4.359Z" transform="translate(-166.922 -529.484)" fill="#bbd06f" fill-rule="evenodd"/>
    <path id="Caminho_1952" data-name="Caminho 1952" d="M680,564.359V560h8.719v4.359H680Z" transform="translate(-557.935 -529.484)" fill="#bbd06f" fill-rule="evenodd"/>
    <path id="Caminho_1953" data-name="Caminho 1953" d="M220,584.359V580h4.359v4.359Z" transform="translate(-198.203 -545.124)" fill="#bbd06f" fill-rule="evenodd"/>
    <path id="Caminho_1954" data-name="Caminho 1954" d="M620,584.359V580h13.078v4.359H620Z" transform="translate(-511.014 -545.124)" fill="#bbd06f" fill-rule="evenodd"/>
    <path id="Caminho_1955" data-name="Caminho 1955" d="M260,604.359V600h8.719v4.359H260Z" transform="translate(-229.484 -560.765)" fill="#bbd06f" fill-rule="evenodd"/>
    <path id="Caminho_1956" data-name="Caminho 1956" d="M560,604.359V600h13.078v4.359H560Z" transform="translate(-464.092 -560.765)" fill="#bbd06f" fill-rule="evenodd"/>
    <path id="Caminho_1957" data-name="Caminho 1957" d="M500,624.359V620h13.078v4.359Z" transform="translate(-417.171 -576.406)" fill="#bbd06f" fill-rule="evenodd"/>
  </g>
  <g id="Grupo_183" data-name="Grupo 183" transform="translate(4.359 65.392)">
    <path id="Caminho_1958" data-name="Caminho 1958" d="M24.359,400v13.078H20V400Z" transform="translate(-20 -400)" fill="#407839" fill-rule="evenodd"/>
    <path id="Caminho_1959" data-name="Caminho 1959" d="M820,504.359V500h4.359v4.359Z" transform="translate(-645.622 -478.203)" fill="#407839" fill-rule="evenodd"/>
    <path id="Caminho_1960" data-name="Caminho 1960" d="M84.359,524.359H80V520h4.359Z" transform="translate(-66.922 -493.843)" fill="#407839" fill-rule="evenodd"/>
    <path id="Caminho_1961" data-name="Caminho 1961" d="M800,524.359V520h4.359v4.359Z" transform="translate(-629.982 -493.843)" fill="#407839" fill-rule="evenodd"/>
    <path id="Caminho_1962" data-name="Caminho 1962" d="M100,540h4.359v4.359H100Z" transform="translate(-82.562 -509.484)" fill="#407839" fill-rule="evenodd"/>
    <path id="Caminho_1963" data-name="Caminho 1963" d="M784.36,540v4.359H780V540Z" transform="translate(-614.341 -509.484)" fill="#407839" fill-rule="evenodd"/>
    <path id="Caminho_1964" data-name="Caminho 1964" d="M120,560h4.359v4.359H120Z" transform="translate(-98.203 -525.124)" fill="#407839" fill-rule="evenodd"/>
    <path id="Caminho_1965" data-name="Caminho 1965" d="M740,564.359V560h4.359v4.359Z" transform="translate(-583.06 -525.124)" fill="#407839" fill-rule="evenodd"/>
    <path id="Caminho_1966" data-name="Caminho 1966" d="M720,584.359V580h4.359v4.359Z" transform="translate(-567.419 -540.765)" fill="#407839" fill-rule="evenodd"/>
    <path id="Caminho_1967" data-name="Caminho 1967" d="M180,604.359V600h4.359v4.359Z" transform="translate(-145.124 -556.406)" fill="#407839" fill-rule="evenodd"/>
    <path id="Caminho_1968" data-name="Caminho 1968" d="M328.986,600v4.359h-4.359v4.359h-8.719v4.359h-8.719v4.359H281.032V621.8h-4.359v-4.359h-8.719V621.8h-8.719v-4.359H233.078v-4.359H220v-8.719h4.359v4.359h13.078v4.359h56.673v-4.359h13.078v-4.359h13.078V600h8.719Z" transform="translate(-176.406 -556.406)" fill="#407839" fill-rule="evenodd"/>
  </g>
  <g id="Grupo_184" data-name="Grupo 184" transform="translate(4.359 65.392)">
    <path id="Caminho_1969" data-name="Caminho 1969" d="M920,404.359V400h4.359v4.359Z" transform="translate(-723.825 -400)" fill="#2b5927" fill-rule="evenodd"/>
    <path id="Caminho_1970" data-name="Caminho 1970" d="M900,424.359V420h4.359v4.359Z" transform="translate(-708.184 -415.641)" fill="#2b5927" fill-rule="evenodd"/>
    <path id="Caminho_1971" data-name="Caminho 1971" d="M853.078,440v8.719h-4.359v4.359h-4.359v4.359H840v-8.719h4.359v-4.359h4.359V440Z" transform="translate(-661.263 -431.281)" fill="#2b5927" fill-rule="evenodd"/>
    <path id="Caminho_1972" data-name="Caminho 1972" d="M924.359,460v8.719H920V460Z" transform="translate(-723.825 -446.922)" fill="#2b5927" fill-rule="evenodd"/>
    <path id="Caminho_1973" data-name="Caminho 1973" d="M20,484.359V480h4.359v4.359Z" transform="translate(-20 -462.562)" fill="#2b5927" fill-rule="evenodd"/>
    <path id="Caminho_1974" data-name="Caminho 1974" d="M900,504.359V500h4.359v4.359Z" transform="translate(-708.184 -478.203)" fill="#2b5927" fill-rule="evenodd"/>
    <path id="Caminho_1975" data-name="Caminho 1975" d="M808.719,520v8.719H800v-4.359h4.359V520Z" transform="translate(-629.982 -493.843)" fill="#2b5927" fill-rule="evenodd"/>
    <path id="Caminho_1976" data-name="Caminho 1976" d="M884.359,520v8.719H880V520Z" transform="translate(-692.544 -493.843)" fill="#2b5927" fill-rule="evenodd"/>
    <path id="Caminho_1977" data-name="Caminho 1977" d="M64.359,544.359H60V540h4.359Z" transform="translate(-51.281 -509.484)" fill="#2b5927" fill-rule="evenodd"/>
    <path id="Caminho_1978" data-name="Caminho 1978" d="M80,564.359V560h4.359v4.359Z" transform="translate(-66.922 -525.124)" fill="#2b5927" fill-rule="evenodd"/>
    <path id="Caminho_1979" data-name="Caminho 1979" d="M737.438,560v4.359h-4.359v4.359h-4.359v4.359H720v-4.359h4.359v-4.359h4.359V560h8.719Z" transform="translate(-567.419 -525.124)" fill="#2b5927" fill-rule="evenodd"/>
    <path id="Caminho_1980" data-name="Caminho 1980" d="M860,564.359V560h4.359v4.359Z" transform="translate(-676.903 -525.124)" fill="#2b5927" fill-rule="evenodd"/>
    <path id="Caminho_1981" data-name="Caminho 1981" d="M64.359,580v4.359H60V580Z" transform="translate(-51.281 -540.765)" fill="#2b5927" fill-rule="evenodd"/>
    <path id="Caminho_1982" data-name="Caminho 1982" d="M144.359,584.359H140V580h4.359Z" transform="translate(-113.843 -540.765)" fill="#2b5927" fill-rule="evenodd"/>
    <path id="Caminho_1983" data-name="Caminho 1983" d="M840,584.359V580h4.359v4.359Z" transform="translate(-661.263 -540.765)" fill="#2b5927" fill-rule="evenodd"/>
    <path id="Caminho_1984" data-name="Caminho 1984" d="M104.359,604.359H100V600h4.359Z" transform="translate(-82.562 -556.406)" fill="#2b5927" fill-rule="evenodd"/>
    <path id="Caminho_1985" data-name="Caminho 1985" d="M160,600h4.359v4.359H160Z" transform="translate(-129.484 -556.406)" fill="#2b5927" fill-rule="evenodd"/>
    <path id="Caminho_1986" data-name="Caminho 1986" d="M339.5,600v8.719h-4.359v4.359h-4.359v4.359h-8.719V621.8h-8.719v4.359H300.267v4.359h-8.719v4.359H278.47v4.359H252.313v-4.359h-21.8v-4.359H217.438v-4.359h-8.719V621.8H200v-4.359h13.078V621.8H221.8v4.359h21.8v4.359h43.594v-4.359h8.719V621.8h8.719v-4.359h13.078v-4.359h4.359v-4.359h8.719v-4.359h4.359V600Z" transform="translate(-160.765 -556.406)" fill="#2b5927" fill-rule="evenodd"/>
    <path id="Caminho_1987" data-name="Caminho 1987" d="M880,604.359V600h4.359v4.359Z" transform="translate(-692.544 -556.406)" fill="#2b5927" fill-rule="evenodd"/>
    <path id="Caminho_1988" data-name="Caminho 1988" d="M120,624.359V620h4.359v4.359Z" transform="translate(-98.203 -572.046)" fill="#2b5927" fill-rule="evenodd"/>
    <path id="Caminho_1989" data-name="Caminho 1989" d="M200,624.359V620h4.359v4.359Z" transform="translate(-160.765 -572.046)" fill="#2b5927" fill-rule="evenodd"/>
    <path id="Caminho_1990" data-name="Caminho 1990" d="M104.359,640v4.359H100V640Z" transform="translate(-82.562 -587.687)" fill="#2b5927" fill-rule="evenodd"/>
    <path id="Caminho_1991" data-name="Caminho 1991" d="M140,644.359V640h4.359v4.359Z" transform="translate(-113.843 -587.687)" fill="#2b5927" fill-rule="evenodd"/>
    <path id="Caminho_1992" data-name="Caminho 1992" d="M860,644.359V640h4.359v4.359Z" transform="translate(-676.903 -587.687)" fill="#2b5927" fill-rule="evenodd"/>
    <path id="Caminho_1993" data-name="Caminho 1993" d="M120,660h4.359v4.359H120Z" transform="translate(-98.203 -603.327)" fill="#2b5927" fill-rule="evenodd"/>
    <path id="Caminho_1994" data-name="Caminho 1994" d="M160,664.359V660h8.719v4.359Z" transform="translate(-129.484 -603.327)" fill="#2b5927" fill-rule="evenodd"/>
    <path id="Caminho_1995" data-name="Caminho 1995" d="M840,664.359V660h4.359v4.359Z" transform="translate(-661.263 -603.327)" fill="#2b5927" fill-rule="evenodd"/>
    <path id="Caminho_1996" data-name="Caminho 1996" d="M140,680h4.359v4.359H140Z" transform="translate(-113.843 -618.968)" fill="#2b5927" fill-rule="evenodd"/>
    <path id="Caminho_1997" data-name="Caminho 1997" d="M820,684.359V680h4.359v4.359Z" transform="translate(-645.622 -618.968)" fill="#2b5927" fill-rule="evenodd"/>
    <path id="Caminho_1998" data-name="Caminho 1998" d="M160,700h8.719v4.359h4.359v4.359h-8.719v-4.359H160Z" transform="translate(-129.484 -634.608)" fill="#2b5927" fill-rule="evenodd"/>
    <path id="Caminho_1999" data-name="Caminho 1999" d="M350.784,700v4.359h-4.359v4.359h-4.359v4.359h-8.719v4.359h-8.719V721.8h-8.719v4.359H298.47v4.359H263.594v-4.359H246.157V721.8H233.078v-4.359h-8.719v-4.359H220v-4.359h8.719v4.359h8.719v4.359h13.078V721.8h21.8v4.359h17.438V721.8h21.8v-4.359h4.359v-4.359h13.078v-4.359h8.719v-4.359h4.359V700h8.719Z" transform="translate(-176.406 -634.608)" fill="#2b5927" fill-rule="evenodd"/>
  </g>
  <g id="Grupo_185" data-name="Grupo 185" transform="translate(8.719 78.47)">
    <path id="Caminho_2000" data-name="Caminho 2000" d="M40,464.359V460h4.359v4.359Z" transform="translate(-40 -460)" fill="#0d3f0d" fill-rule="evenodd"/>
    <path id="Caminho_2001" data-name="Caminho 2001" d="M60,504.359V500h4.359v4.359Z" transform="translate(-55.641 -491.281)" fill="#0d3f0d" fill-rule="evenodd"/>
    <path id="Caminho_2002" data-name="Caminho 2002" d="M664.359,640v4.359H660V640Z" transform="translate(-524.857 -600.765)" fill="#0d3f0d" fill-rule="evenodd"/>
    <path id="Caminho_2003" data-name="Caminho 2003" d="M260,664.359V660h4.359v4.359Z" transform="translate(-212.046 -616.406)" fill="#0d3f0d" fill-rule="evenodd"/>
    <path id="Caminho_2004" data-name="Caminho 2004" d="M620,664.359V660h4.359v4.359Z" transform="translate(-493.576 -616.406)" fill="#0d3f0d" fill-rule="evenodd"/>
    <path id="Caminho_2005" data-name="Caminho 2005" d="M353.078,684.359H340V680h13.078Z" transform="translate(-274.608 -632.046)" fill="#0d3f0d" fill-rule="evenodd"/>
    <path id="Caminho_2006" data-name="Caminho 2006" d="M430.516,688.719H400v-4.359h8.719V680h8.719v4.359H421.8V680h21.8v4.359H430.516Z" transform="translate(-321.53 -632.046)" fill="#0d3f0d" fill-rule="evenodd"/>
  </g>
  <g id="Grupo_186" data-name="Grupo 186" transform="translate(4.359 69.751)">
    <path id="Caminho_2007" data-name="Caminho 2007" d="M513.346,420h4.359v8.719h-4.359v8.719h-4.359V441.8h-4.359v8.719h-4.359v4.359h-4.359v4.359h-4.359v4.359h-4.359v4.359H478.47v4.359h-4.359v4.359H461.032v4.359h-8.719v4.359h-8.719v4.359H400v-4.359h30.516v-4.359h13.078v-4.359h8.719v-4.359h8.719v-4.359h4.359v-4.359H478.47v-4.359h4.359v-4.359h4.359v-4.359h8.719V441.8h4.359v-4.359h4.359v-4.359h4.359v-8.719h4.359Z" transform="translate(-317.17 -420)" fill="#0a280a" fill-rule="evenodd"/>
    <path id="Caminho_2008" data-name="Caminho 2008" d="M20,464.359V460h4.359v4.359Z" transform="translate(-20 -451.281)" fill="#0a280a" fill-rule="evenodd"/>
    <path id="Caminho_2009" data-name="Caminho 2009" d="M40,480h4.359v8.719h4.359v4.359H44.359v4.359H40V480Z" transform="translate(-35.641 -466.922)" fill="#0a280a" fill-rule="evenodd"/>
    <path id="Caminho_2010" data-name="Caminho 2010" d="M920,504.359V500h4.359v4.359Z" transform="translate(-723.825 -482.562)" fill="#0a280a" fill-rule="evenodd"/>
    <path id="Caminho_2011" data-name="Caminho 2011" d="M352.581,520h4.359v13.078h-4.359v4.359h-4.359v8.719h-4.359v4.359H339.5v4.359h-4.359v4.359h-8.719v4.359h-4.359v4.359h-8.719v4.359H300.267v4.359h-4.359v4.359h-21.8v4.359H256.673v-4.359h-21.8v-4.359H221.8v-4.359h-8.719v-4.359h-8.719v-4.359H200v-4.359h8.719v4.359h8.719v4.359h13.078v4.359h21.8v4.359H278.47v-4.359h13.078v-4.359h8.719v-4.359h13.078v-4.359h8.719v-4.359h8.719v-4.359h4.359v-4.359H339.5v-8.719h4.359v-4.359h4.359v-4.359h4.359V520Z" transform="translate(-160.765 -498.203)" fill="#0a280a" fill-rule="evenodd"/>
    <path id="Caminho_2012" data-name="Caminho 2012" d="M80,544.359V540h4.359v4.359Z" transform="translate(-66.922 -513.843)" fill="#0a280a" fill-rule="evenodd"/>
    <path id="Caminho_2013" data-name="Caminho 2013" d="M60,560h4.359v4.359H60Z" transform="translate(-51.281 -529.484)" fill="#0a280a" fill-rule="evenodd"/>
    <path id="Caminho_2014" data-name="Caminho 2014" d="M84.359,560h4.359v4.359h4.359v4.359h4.359v4.359h8.719v4.359h4.359V581.8h8.719v4.359H106.157V581.8H97.438v-4.359H93.078v-4.359H88.719v-4.359H84.359v4.359h4.359v4.359H80V564.359h4.359Z" transform="translate(-66.922 -529.484)" fill="#0a280a" fill-rule="evenodd"/>
    <path id="Caminho_2015" data-name="Caminho 2015" d="M120,640h4.359v4.359H120Z" transform="translate(-98.203 -592.046)" fill="#0a280a" fill-rule="evenodd"/>
    <path id="Caminho_2016" data-name="Caminho 2016" d="M140,660h4.359v4.359H140Z" transform="translate(-113.843 -607.687)" fill="#0a280a" fill-rule="evenodd"/>
    <path id="Caminho_2017" data-name="Caminho 2017" d="M160,680h8.719v4.359H160Z" transform="translate(-129.484 -623.327)" fill="#0a280a" fill-rule="evenodd"/>
    <path id="Caminho_2018" data-name="Caminho 2018" d="M260,680h17.438v4.359h13.078v4.359h-21.8v-4.359H260Z" transform="translate(-207.687 -623.327)" fill="#0a280a" fill-rule="evenodd"/>
  </g>
</svg>
