<svg id="Refrigerante" xmlns="http://www.w3.org/2000/svg" width="130.783" height="209.254" viewBox="0 0 130.783 209.254">
  <g id="can" transform="translate(26.157 13.078)">
    <g id="Grupo_191" data-name="Grupo 191">
      <g id="Grupo_187" data-name="Grupo 187">
        <path id="Caminho_2019" data-name="Caminho 2019" d="M540,63.359V59h4.359v4.359Z" transform="translate(-474.608 -59)" fill-rule="evenodd"/>
        <path id="Caminho_2020" data-name="Caminho 2020" d="M414.876,79v8.719h-4.359v8.719h-4.359V87.719H380V83.359h30.516V79Z" transform="translate(-349.484 -74.641)" fill-rule="evenodd"/>
        <path id="Caminho_2021" data-name="Caminho 2021" d="M560,79h4.359v4.359H560Z" transform="translate(-490.249 -74.641)" fill-rule="evenodd"/>
        <path id="Caminho_2022" data-name="Caminho 2022" d="M564.359,99h4.359v4.359h8.719v4.359h-8.719v4.359h-4.359v4.359H560v-8.719h4.359V99Z" transform="translate(-490.249 -90.281)" fill-rule="evenodd"/>
        <path id="Caminho_2023" data-name="Caminho 2023" d="M320,123.359V119h13.078v4.359Z" transform="translate(-302.562 -105.922)" fill-rule="evenodd"/>
        <path id="Caminho_2024" data-name="Caminho 2024" d="M540,119h4.359v4.359H540Z" transform="translate(-474.608 -105.922)" fill-rule="evenodd"/>
        <path id="Caminho_2025" data-name="Caminho 2025" d="M300,143.359V139h4.359v4.359Z" transform="translate(-286.922 -121.562)" fill-rule="evenodd"/>
        <path id="Caminho_2026" data-name="Caminho 2026" d="M400,143.359V139h17.438v4.359Z" transform="translate(-365.124 -121.562)" fill-rule="evenodd"/>
        <path id="Caminho_2027" data-name="Caminho 2027" d="M640,139h4.359v4.359H640Z" transform="translate(-552.811 -121.562)" fill-rule="evenodd"/>
        <path id="Caminho_2028" data-name="Caminho 2028" d="M280,163.359V159h4.359v4.359Z" transform="translate(-271.281 -137.203)" fill-rule="evenodd"/>
        <path id="Caminho_2029" data-name="Caminho 2029" d="M340,163.359V159h13.078v4.359H340Z" transform="translate(-318.203 -137.203)" fill-rule="evenodd"/>
        <path id="Caminho_2030" data-name="Caminho 2030" d="M480,159h4.359v8.719h8.719v4.359H480Z" transform="translate(-427.687 -137.203)" fill-rule="evenodd"/>
        <path id="Caminho_2031" data-name="Caminho 2031" d="M520,159h4.359v4.359H520Z" transform="translate(-458.968 -137.203)" fill-rule="evenodd"/>
        <path id="Caminho_2032" data-name="Caminho 2032" d="M660,159h4.359v4.359H660Z" transform="translate(-568.452 -137.203)" fill-rule="evenodd"/>
        <path id="Caminho_2033" data-name="Caminho 2033" d="M264.359,179v4.359h4.359v4.359h-4.359v4.359H260V179Z" transform="translate(-255.641 -152.843)" fill-rule="evenodd"/>
        <path id="Caminho_2034" data-name="Caminho 2034" d="M324.359,179v4.359H320V179Z" transform="translate(-302.562 -152.843)" fill-rule="evenodd"/>
        <path id="Caminho_2035" data-name="Caminho 2035" d="M540,183.359V179h4.359v4.359Z" transform="translate(-474.608 -152.843)" fill-rule="evenodd"/>
        <path id="Caminho_2036" data-name="Caminho 2036" d="M664.359,179h4.359v13.078h-4.359v-4.359H660v-4.359h4.359Z" transform="translate(-568.452 -152.843)" fill-rule="evenodd"/>
        <path id="Caminho_2037" data-name="Caminho 2037" d="M340,199h13.078v4.359H340Z" transform="translate(-318.203 -168.484)" fill-rule="evenodd"/>
        <path id="Caminho_2038" data-name="Caminho 2038" d="M300,219h4.359v4.359H300Z" transform="translate(-286.922 -184.124)" fill-rule="evenodd"/>
        <path id="Caminho_2039" data-name="Caminho 2039" d="M400,219h17.438v4.359H400Z" transform="translate(-365.124 -184.124)" fill-rule="evenodd"/>
        <path id="Caminho_2040" data-name="Caminho 2040" d="M640,223.359V219h4.359v4.359Z" transform="translate(-552.811 -184.124)" fill-rule="evenodd"/>
        <path id="Caminho_2041" data-name="Caminho 2041" d="M240,239h4.359V369.783H240V239Z" transform="translate(-240 -199.765)" fill-rule="evenodd"/>
        <path id="Caminho_2042" data-name="Caminho 2042" d="M320,239h13.078v4.359H320Z" transform="translate(-302.562 -199.765)" fill-rule="evenodd"/>
        <path id="Caminho_2043" data-name="Caminho 2043" d="M580,243.359V239h13.078v4.359H580Z" transform="translate(-505.889 -199.765)" fill-rule="evenodd"/>
        <path id="Caminho_2044" data-name="Caminho 2044" d="M700,239h4.359V369.783H700V239Z" transform="translate(-599.733 -199.765)" fill-rule="evenodd"/>
        <path id="Caminho_2045" data-name="Caminho 2045" d="M380,259h43.595v4.359H380Z" transform="translate(-349.484 -215.406)" fill-rule="evenodd"/>
        <path id="Caminho_2046" data-name="Caminho 2046" d="M260,839h4.359v8.719H260V839Z" transform="translate(-255.641 -668.982)" fill-rule="evenodd"/>
        <path id="Caminho_2047" data-name="Caminho 2047" d="M684.359,839v8.719H680V839Z" transform="translate(-584.092 -668.982)" fill-rule="evenodd"/>
        <path id="Caminho_2048" data-name="Caminho 2048" d="M280,879h4.359v4.359H280Z" transform="translate(-271.281 -700.263)" fill-rule="evenodd"/>
        <path id="Caminho_2049" data-name="Caminho 2049" d="M660,883.359V879h4.359v4.359Z" transform="translate(-568.452 -700.263)" fill-rule="evenodd"/>
        <path id="Caminho_2050" data-name="Caminho 2050" d="M300,899h4.359v4.359H300Z" transform="translate(-286.922 -715.903)" fill-rule="evenodd"/>
        <path id="Caminho_2051" data-name="Caminho 2051" d="M640,903.359V899h4.359v4.359Z" transform="translate(-552.811 -715.903)" fill-rule="evenodd"/>
        <path id="Caminho_2052" data-name="Caminho 2052" d="M320,919h13.078v4.359H320Z" transform="translate(-302.562 -731.544)" fill-rule="evenodd"/>
        <path id="Caminho_2053" data-name="Caminho 2053" d="M580,923.359V919h13.078v4.359H580Z" transform="translate(-505.889 -731.544)" fill-rule="evenodd"/>
        <path id="Caminho_2054" data-name="Caminho 2054" d="M380,943.359V939h43.595v4.359H380Z" transform="translate(-349.484 -747.184)" fill-rule="evenodd"/>
      </g>
      <g id="Grupo_188" data-name="Grupo 188" transform="translate(21.797 21.797)">
        <path id="Caminho_2055" data-name="Caminho 2055" d="M353.078,159h17.438v13.078H353.078v-4.359H340v-4.359h13.078Z" transform="translate(-340 -159)" fill="#67605a" fill-rule="evenodd"/>
      </g>
      <g id="Grupo_189" data-name="Grupo 189" transform="translate(4.359 13.078)">
        <path id="Caminho_2056" data-name="Caminho 2056" d="M301.8,119h26.157v8.719h-4.359v-4.359H306.157v4.359H293.078v4.359h-4.359v4.359h4.359V140.8h13.078v4.359h17.438V140.8h13.078v-4.359h4.359v-4.359h4.359v-4.359h4.359v-4.359h8.719v4.359h4.359v4.359h4.359v4.359H362.83V140.8H358.47v4.359H345.392v4.359H301.8v-4.359H288.719V140.8h-4.359v-4.359H280v-4.359h4.359v-4.359h4.359v-4.359H301.8Z" transform="translate(-275.641 -119)" fill="#e3d6c8" fill-rule="evenodd"/>
        <path id="Caminho_2057" data-name="Caminho 2057" d="M520,119h4.359v4.359h4.359v8.719h-4.359v-4.359H520V119Z" transform="translate(-463.327 -119)" fill="#e3d6c8" fill-rule="evenodd"/>
        <path id="Caminho_2058" data-name="Caminho 2058" d="M280,223.359V219h4.359v4.359Z" transform="translate(-275.641 -197.203)" fill="#e3d6c8" fill-rule="evenodd"/>
        <path id="Caminho_2059" data-name="Caminho 2059" d="M660,223.359V219h4.359v4.359Z" transform="translate(-572.811 -197.203)" fill="#e3d6c8" fill-rule="evenodd"/>
        <path id="Caminho_2060" data-name="Caminho 2060" d="M260,239h4.359v4.359h4.359v4.359h4.359v4.359h13.078v4.359h43.595v-4.359H342.83v-4.359h4.359v-4.359h4.359V239h4.359v8.719h-4.359v17.438h-4.359v8.719H342.83v8.719H338.47v4.359h-4.359v4.359h-4.359v4.359h8.719v4.359h4.359v4.359h4.359v8.719h4.359v17.438h4.359v17.438h-4.359v4.359h-4.359v4.359H338.47v4.359h-8.719v4.359H316.673v-4.359H303.595v-4.359h-4.359v-4.359h-4.359v-8.719h-4.359V330.548h-4.359V317.47h4.359v-8.719h4.359v-8.719h4.359v-4.359h4.359v-4.359h4.359v-4.359h4.359v-8.719h-4.359v-4.359h-4.359v-4.359h-8.719v-4.359h-8.719V260.8h-8.719v-4.359h-8.719v-4.359h-4.359v-4.359H260Z" transform="translate(-260 -212.843)" fill="#e3d6c8" fill-rule="evenodd"/>
        <path id="Caminho_2061" data-name="Caminho 2061" d="M300,243.359V239h4.359v4.359Z" transform="translate(-291.281 -212.843)" fill="#e3d6c8" fill-rule="evenodd"/>
        <path id="Caminho_2062" data-name="Caminho 2062" d="M640,243.359V239h4.359v4.359Z" transform="translate(-557.17 -212.843)" fill="#e3d6c8" fill-rule="evenodd"/>
        <path id="Caminho_2063" data-name="Caminho 2063" d="M320,263.359V259h13.078v4.359Z" transform="translate(-306.922 -228.484)" fill="#e3d6c8" fill-rule="evenodd"/>
        <path id="Caminho_2064" data-name="Caminho 2064" d="M580,263.359V259h13.078v4.359Z" transform="translate(-510.249 -228.484)" fill="#e3d6c8" fill-rule="evenodd"/>
        <path id="Caminho_2065" data-name="Caminho 2065" d="M380,283.359V279h43.595v4.359H380Z" transform="translate(-353.843 -244.124)" fill="#e3d6c8" fill-rule="evenodd"/>
        <path id="Caminho_2066" data-name="Caminho 2066" d="M260,303.359V299h4.359v4.359Z" transform="translate(-260 -259.765)" fill="#e3d6c8" fill-rule="evenodd"/>
        <path id="Caminho_2067" data-name="Caminho 2067" d="M280,319h4.359v4.359H280Z" transform="translate(-275.641 -275.405)" fill="#e3d6c8" fill-rule="evenodd"/>
        <path id="Caminho_2068" data-name="Caminho 2068" d="M300,339h8.719v4.359H300Z" transform="translate(-291.281 -291.046)" fill="#e3d6c8" fill-rule="evenodd"/>
        <path id="Caminho_2069" data-name="Caminho 2069" d="M340,359h8.719v4.359H340Z" transform="translate(-322.562 -306.687)" fill="#e3d6c8" fill-rule="evenodd"/>
        <path id="Caminho_2070" data-name="Caminho 2070" d="M380,379h8.719v4.359H380Z" transform="translate(-353.843 -322.327)" fill="#e3d6c8" fill-rule="evenodd"/>
        <path id="Caminho_2071" data-name="Caminho 2071" d="M420,399h8.719v4.359H420Z" transform="translate(-385.124 -337.968)" fill="#e3d6c8" fill-rule="evenodd"/>
        <path id="Caminho_2072" data-name="Caminho 2072" d="M460,419h4.359v8.719H460Z" transform="translate(-416.406 -353.608)" fill="#e3d6c8" fill-rule="evenodd"/>
        <path id="Caminho_2073" data-name="Caminho 2073" d="M440,463.359V459h4.359v4.359Z" transform="translate(-400.765 -384.889)" fill="#e3d6c8" fill-rule="evenodd"/>
        <path id="Caminho_2074" data-name="Caminho 2074" d="M420,483.359V479h4.359v4.359Z" transform="translate(-385.124 -400.53)" fill="#e3d6c8" fill-rule="evenodd"/>
        <path id="Caminho_2075" data-name="Caminho 2075" d="M400,503.359V499h4.359v4.359Z" transform="translate(-369.484 -416.17)" fill="#e3d6c8" fill-rule="evenodd"/>
        <path id="Caminho_2076" data-name="Caminho 2076" d="M384.359,519v8.719H380V519Z" transform="translate(-353.843 -431.811)" fill="#e3d6c8" fill-rule="evenodd"/>
        <path id="Caminho_2077" data-name="Caminho 2077" d="M364.359,559v8.719H360V559Z" transform="translate(-338.203 -463.092)" fill="#e3d6c8" fill-rule="evenodd"/>
        <path id="Caminho_2078" data-name="Caminho 2078" d="M344.359,599v13.078H340V599Z" transform="translate(-322.562 -494.373)" fill="#e3d6c8" fill-rule="evenodd"/>
        <path id="Caminho_2079" data-name="Caminho 2079" d="M360,659h4.359v13.078H360V659Z" transform="translate(-338.203 -541.295)" fill="#e3d6c8" fill-rule="evenodd"/>
        <path id="Caminho_2080" data-name="Caminho 2080" d="M380,719h4.359v8.719H380V719Z" transform="translate(-353.843 -588.217)" fill="#e3d6c8" fill-rule="evenodd"/>
        <path id="Caminho_2081" data-name="Caminho 2081" d="M400,759h4.359v4.359H400Z" transform="translate(-369.484 -619.498)" fill="#e3d6c8" fill-rule="evenodd"/>
        <path id="Caminho_2082" data-name="Caminho 2082" d="M680,763.359V759h4.359v4.359Z" transform="translate(-588.452 -619.498)" fill="#e3d6c8" fill-rule="evenodd"/>
        <path id="Caminho_2083" data-name="Caminho 2083" d="M420,779h4.359v4.359H420Z" transform="translate(-385.124 -635.138)" fill="#e3d6c8" fill-rule="evenodd"/>
        <path id="Caminho_2084" data-name="Caminho 2084" d="M660,783.359V779h4.359v4.359Z" transform="translate(-572.811 -635.138)" fill="#e3d6c8" fill-rule="evenodd"/>
        <path id="Caminho_2085" data-name="Caminho 2085" d="M440,799h4.359v4.359H440Z" transform="translate(-400.765 -650.779)" fill="#e3d6c8" fill-rule="evenodd"/>
        <path id="Caminho_2086" data-name="Caminho 2086" d="M620,803.359V799h8.719v4.359H620Z" transform="translate(-541.53 -650.779)" fill="#e3d6c8" fill-rule="evenodd"/>
        <path id="Caminho_2087" data-name="Caminho 2087" d="M460,819h13.078v4.359H460Z" transform="translate(-416.406 -666.419)" fill="#e3d6c8" fill-rule="evenodd"/>
        <path id="Caminho_2088" data-name="Caminho 2088" d="M580,823.359V819h8.719v4.359H580Z" transform="translate(-510.249 -666.419)" fill="#e3d6c8" fill-rule="evenodd"/>
        <path id="Caminho_2089" data-name="Caminho 2089" d="M520,843.359V839h13.078v4.359Z" transform="translate(-463.327 -682.06)" fill="#e3d6c8" fill-rule="evenodd"/>
      </g>
      <g id="Grupo_190" data-name="Grupo 190" transform="translate(4.359 4.359)">
        <path id="Caminho_2090" data-name="Caminho 2090" d="M540,79h4.359v4.359h4.359v8.719h-4.359V87.719H540V79Z" transform="translate(-478.968 -79)" fill="#e16043" fill-rule="evenodd"/>
        <path id="Caminho_2091" data-name="Caminho 2091" d="M500,163.359V159h4.359v4.359h4.359v4.359H500Z" transform="translate(-447.687 -141.562)" fill="#e16043" fill-rule="evenodd"/>
        <path id="Caminho_2092" data-name="Caminho 2092" d="M284.359,243.359H280V239h4.359Z" transform="translate(-275.641 -204.124)" fill="#e16043" fill-rule="evenodd"/>
        <path id="Caminho_2093" data-name="Caminho 2093" d="M660,243.359V239h4.359v4.359Z" transform="translate(-572.811 -204.124)" fill="#e16043" fill-rule="evenodd"/>
        <path id="Caminho_2094" data-name="Caminho 2094" d="M300,259h4.359v4.359H300Z" transform="translate(-291.281 -219.765)" fill="#e16043" fill-rule="evenodd"/>
        <path id="Caminho_2095" data-name="Caminho 2095" d="M640,263.359V259h4.359v4.359Z" transform="translate(-557.17 -219.765)" fill="#e16043" fill-rule="evenodd"/>
        <path id="Caminho_2096" data-name="Caminho 2096" d="M260,283.359V279h4.359v4.359Z" transform="translate(-260 -235.406)" fill="#e16043" fill-rule="evenodd"/>
        <path id="Caminho_2097" data-name="Caminho 2097" d="M320,279h13.078v4.359H320Z" transform="translate(-306.922 -235.406)" fill="#e16043" fill-rule="evenodd"/>
        <path id="Caminho_2098" data-name="Caminho 2098" d="M580,283.359V279h13.078v4.359H580Z" transform="translate(-510.249 -235.406)" fill="#e16043" fill-rule="evenodd"/>
        <path id="Caminho_2099" data-name="Caminho 2099" d="M606.157,279v82.83H601.8V344.392h-4.359v-8.719h-4.359v-4.359h-4.359v-4.359H580v-4.359h4.359v-4.359h4.359v-4.359h4.359v-8.719h4.359v-8.719H601.8V279Z" transform="translate(-510.249 -235.406)" fill="#e16043" fill-rule="evenodd"/>
        <path id="Caminho_2100" data-name="Caminho 2100" d="M280,303.359V299h4.359v4.359Z" transform="translate(-275.641 -251.046)" fill="#e16043" fill-rule="evenodd"/>
        <path id="Caminho_2101" data-name="Caminho 2101" d="M380,299h43.595v4.359H380Z" transform="translate(-353.843 -251.046)" fill="#e16043" fill-rule="evenodd"/>
        <path id="Caminho_2102" data-name="Caminho 2102" d="M260,319h4.359v4.359h4.359v4.359h8.719v4.359h8.719v4.359h8.719V340.8h8.719v8.719h-4.359v4.359h-4.359v4.359h-4.359v4.359h-4.359v8.719H281.8v8.719h-4.359v13.078H281.8v13.078h4.359v8.719h4.359v4.359h4.359v4.359h4.359v4.359h4.359v4.359h13.078v4.359h13.078v-4.359h8.719v-4.359h8.719v-4.359h4.359v-4.359h4.359v13.078h-4.359v8.719h-4.359v4.359H342.83v4.359H329.751v4.359H286.157v-4.359H273.078v-4.359h-4.359v-4.359h-4.359v-8.719H260V319Z" transform="translate(-260 -266.687)" fill="#e16043" fill-rule="evenodd"/>
        <path id="Caminho_2103" data-name="Caminho 2103" d="M300,323.359V319h8.719v4.359Z" transform="translate(-291.281 -266.687)" fill="#e16043" fill-rule="evenodd"/>
        <path id="Caminho_2104" data-name="Caminho 2104" d="M340,343.359V339h8.719v4.359Z" transform="translate(-322.562 -282.327)" fill="#e16043" fill-rule="evenodd"/>
        <path id="Caminho_2105" data-name="Caminho 2105" d="M380,363.359V359h8.719v4.359Z" transform="translate(-353.843 -297.968)" fill="#e16043" fill-rule="evenodd"/>
        <path id="Caminho_2106" data-name="Caminho 2106" d="M420,383.359V379h8.719v4.359Z" transform="translate(-385.124 -313.608)" fill="#e16043" fill-rule="evenodd"/>
        <path id="Caminho_2107" data-name="Caminho 2107" d="M460,403.359V399h4.359v4.359Z" transform="translate(-416.406 -329.249)" fill="#e16043" fill-rule="evenodd"/>
        <path id="Caminho_2108" data-name="Caminho 2108" d="M480,419h4.359v8.719H480Z" transform="translate(-432.046 -344.889)" fill="#e16043" fill-rule="evenodd"/>
        <path id="Caminho_2109" data-name="Caminho 2109" d="M460,463.359V459h4.359v4.359Z" transform="translate(-416.406 -376.17)" fill="#e16043" fill-rule="evenodd"/>
        <path id="Caminho_2110" data-name="Caminho 2110" d="M440,483.359V479h4.359v4.359Z" transform="translate(-400.765 -391.811)" fill="#e16043" fill-rule="evenodd"/>
        <path id="Caminho_2111" data-name="Caminho 2111" d="M420,503.359V499h4.359v4.359Z" transform="translate(-385.124 -407.452)" fill="#e16043" fill-rule="evenodd"/>
        <path id="Caminho_2112" data-name="Caminho 2112" d="M400,519h4.359v8.719H400Z" transform="translate(-369.484 -423.092)" fill="#e16043" fill-rule="evenodd"/>
        <path id="Caminho_2113" data-name="Caminho 2113" d="M380,559h4.359v8.719H380Z" transform="translate(-353.843 -454.373)" fill="#e16043" fill-rule="evenodd"/>
        <path id="Caminho_2114" data-name="Caminho 2114" d="M360,599h4.359v13.078H360Z" transform="translate(-338.203 -485.654)" fill="#e16043" fill-rule="evenodd"/>
        <path id="Caminho_2115" data-name="Caminho 2115" d="M380,659h4.359v13.078H380Z" transform="translate(-353.843 -532.576)" fill="#e16043" fill-rule="evenodd"/>
        <path id="Caminho_2116" data-name="Caminho 2116" d="M400,719h4.359v8.719H400Z" transform="translate(-369.484 -579.498)" fill="#e16043" fill-rule="evenodd"/>
        <path id="Caminho_2117" data-name="Caminho 2117" d="M680,743.359V739h4.359v4.359Z" transform="translate(-588.452 -595.138)" fill="#e16043" fill-rule="evenodd"/>
        <path id="Caminho_2118" data-name="Caminho 2118" d="M420,763.359V759h4.359v4.359Z" transform="translate(-385.124 -610.779)" fill="#e16043" fill-rule="evenodd"/>
        <path id="Caminho_2119" data-name="Caminho 2119" d="M660,763.359V759h4.359v4.359Z" transform="translate(-572.811 -610.779)" fill="#e16043" fill-rule="evenodd"/>
        <path id="Caminho_2120" data-name="Caminho 2120" d="M440,783.359V779h4.359v4.359Z" transform="translate(-400.765 -626.419)" fill="#e16043" fill-rule="evenodd"/>
        <path id="Caminho_2121" data-name="Caminho 2121" d="M620,783.359V779h8.719v4.359Z" transform="translate(-541.53 -626.419)" fill="#e16043" fill-rule="evenodd"/>
        <path id="Caminho_2122" data-name="Caminho 2122" d="M460,803.359V799h13.078v4.359Z" transform="translate(-416.406 -642.06)" fill="#e16043" fill-rule="evenodd"/>
        <path id="Caminho_2123" data-name="Caminho 2123" d="M580,803.359V799h8.719v4.359Z" transform="translate(-510.249 -642.06)" fill="#e16043" fill-rule="evenodd"/>
        <path id="Caminho_2124" data-name="Caminho 2124" d="M520,823.359V819h13.078v4.359Z" transform="translate(-463.327 -657.7)" fill="#e16043" fill-rule="evenodd"/>
      </g>
    </g>
  </g>
  <g id="straw" transform="translate(0 0)">
    <g id="Grupo_195" data-name="Grupo 195">
      <g id="Grupo_192" data-name="Grupo 192">
        <path id="Caminho_2125" data-name="Caminho 2125" d="M300,3.359V-1h17.438V3.359Z" transform="translate(-260.765 1)" fill-rule="evenodd"/>
        <path id="Caminho_2126" data-name="Caminho 2126" d="M240,23.359V19h13.078v4.359H240Z" transform="translate(-213.843 -14.641)" fill-rule="evenodd"/>
        <path id="Caminho_2127" data-name="Caminho 2127" d="M380,19h4.359v8.719H380V19Z" transform="translate(-323.327 -14.641)" fill-rule="evenodd"/>
        <path id="Caminho_2128" data-name="Caminho 2128" d="M180,43.359V39h13.078v4.359H180Z" transform="translate(-166.922 -30.281)" fill-rule="evenodd"/>
        <path id="Caminho_2129" data-name="Caminho 2129" d="M120,59h13.078v4.359h-8.719v4.359H120Z" transform="translate(-120 -45.922)" fill-rule="evenodd"/>
        <path id="Caminho_2130" data-name="Caminho 2130" d="M320,63.359V59h4.359v4.359Z" transform="translate(-276.406 -45.922)" fill-rule="evenodd"/>
        <path id="Caminho_2131" data-name="Caminho 2131" d="M400,59h4.359V72.078H400V59Z" transform="translate(-338.968 -45.922)" fill-rule="evenodd"/>
        <path id="Caminho_2132" data-name="Caminho 2132" d="M260,83.359V79h13.078v4.359H260Z" transform="translate(-229.484 -61.562)" fill-rule="evenodd"/>
        <path id="Caminho_2133" data-name="Caminho 2133" d="M340,79h4.359V92.078H340V79Z" transform="translate(-292.046 -61.562)" fill-rule="evenodd"/>
        <path id="Caminho_2134" data-name="Caminho 2134" d="M140,99h4.359v4.359h8.719v4.359H140V99Z" transform="translate(-135.641 -77.203)" fill-rule="evenodd"/>
        <path id="Caminho_2135" data-name="Caminho 2135" d="M200,103.359V99h13.078v4.359H200Z" transform="translate(-182.562 -77.203)" fill-rule="evenodd"/>
        <path id="Caminho_2136" data-name="Caminho 2136" d="M420,119h4.359v13.078H420V119Z" transform="translate(-354.608 -92.843)" fill-rule="evenodd"/>
        <path id="Caminho_2137" data-name="Caminho 2137" d="M360,139h4.359v13.078H360V139Z" transform="translate(-307.687 -108.484)" fill-rule="evenodd"/>
        <path id="Caminho_2138" data-name="Caminho 2138" d="M440,179h4.359v8.719H440Z" transform="translate(-370.249 -139.765)" fill-rule="evenodd"/>
      </g>
      <g id="Grupo_193" data-name="Grupo 193" transform="translate(39.235 4.359)">
        <path id="Caminho_2139" data-name="Caminho 2139" d="M300,23.359V19h4.359v4.359Z" transform="translate(-300 -19)" fill="#cc95a0" fill-rule="evenodd"/>
        <path id="Caminho_2140" data-name="Caminho 2140" d="M340,23.359V19h4.359v4.359Z" transform="translate(-331.281 -19)" fill="#cc95a0" fill-rule="evenodd"/>
        <path id="Caminho_2141" data-name="Caminho 2141" d="M320,39h4.359v4.359H320Z" transform="translate(-315.641 -34.641)" fill="#cc95a0" fill-rule="evenodd"/>
        <path id="Caminho_2142" data-name="Caminho 2142" d="M344.359,39h4.359v4.359h4.359v4.359H340V43.359h4.359Z" transform="translate(-331.281 -34.641)" fill="#cc95a0" fill-rule="evenodd"/>
      </g>
      <g id="Grupo_194" data-name="Grupo 194" transform="translate(4.359 4.359)">
        <path id="Caminho_2143" data-name="Caminho 2143" d="M320,23.359V19h4.359v4.359Z" transform="translate(-280.765 -19)" fill="#ffbac8" fill-rule="evenodd"/>
        <path id="Caminho_2144" data-name="Caminho 2144" d="M360,23.359V19h4.359v4.359Z" transform="translate(-312.046 -19)" fill="#ffbac8" fill-rule="evenodd"/>
        <path id="Caminho_2145" data-name="Caminho 2145" d="M179.235,39v8.719H166.157v4.359H153.078v4.359h-8.719V52.078H140V47.719h8.719V43.359H161.8V39h17.438Z" transform="translate(-140 -34.641)" fill="#ffbac8" fill-rule="evenodd"/>
        <path id="Caminho_2146" data-name="Caminho 2146" d="M340,39h4.359v4.359H340Z" transform="translate(-296.406 -34.641)" fill="#ffbac8" fill-rule="evenodd"/>
        <path id="Caminho_2147" data-name="Caminho 2147" d="M377.438,100.8v8.719h-8.719v-4.359h-4.359V92.078H360V79h8.719v8.719h4.359V100.8Z" transform="translate(-312.046 -65.922)" fill="#ffbac8" fill-rule="evenodd"/>
      </g>
    </g>
  </g>
</svg>
