<svg xmlns="http://www.w3.org/2000/svg" width="256.793" height="352.174" viewBox="0 0 256.793 352.174">
  <g id="Lixeiro" transform="translate(-291.67)">
    <g id="Grupo_129" data-name="Grupo 129" transform="translate(291.67)">
      <path id="Caminho_1032" data-name="Caminho 1032" d="M458.33,7.338V0h139.4V7.338H458.33Z" transform="translate(-428.983)" fill-rule="evenodd"/>
      <path id="Caminho_1033" data-name="Caminho 1033" d="M333.33,49.006V41.67h22.011v7.336H333.33Z" transform="translate(-325.994 -34.332)" fill-rule="evenodd"/>
      <path id="Caminho_1034" data-name="Caminho 1034" d="M1250,41.67h7.338v7.336H1250Z" transform="translate(-1081.251 -34.332)" fill-rule="evenodd"/>
      <path id="Caminho_1035" data-name="Caminho 1035" d="M291.67,83.33h7.336V98.005H291.67Z" transform="translate(-291.67 -68.657)" fill-rule="evenodd"/>
      <path id="Caminho_1036" data-name="Caminho 1036" d="M1291.67,83.33h7.336v7.338h-7.336Z" transform="translate(-1115.583 -68.657)" fill-rule="evenodd"/>
      <path id="Caminho_1037" data-name="Caminho 1037" d="M375,132.338V125H514.4v7.338H375Z" transform="translate(-360.327 -102.989)" fill-rule="evenodd"/>
      <path id="Caminho_1038" data-name="Caminho 1038" d="M1333.33,125h7.338v7.338h-7.338Z" transform="translate(-1149.907 -102.989)" fill-rule="evenodd"/>
      <path id="Caminho_1039" data-name="Caminho 1039" d="M333.33,166.67h7.338v7.336H333.33Z" transform="translate(-325.994 -137.322)" fill-rule="evenodd"/>
      <path id="Caminho_1040" data-name="Caminho 1040" d="M1166.67,166.67h7.336v7.336h-7.336Z" transform="translate(-1012.594 -137.322)" fill-rule="evenodd"/>
      <path id="Caminho_1041" data-name="Caminho 1041" d="M1375,166.67h7.338v7.336H1375Z" transform="translate(-1184.24 -137.322)" fill-rule="evenodd"/>
      <path id="Caminho_1042" data-name="Caminho 1042" d="M375,208.33h7.338v7.338H375Z" transform="translate(-360.327 -171.646)" fill-rule="evenodd"/>
      <path id="Caminho_1043" data-name="Caminho 1043" d="M1208.33,208.33h7.338v7.338h-7.338Z" transform="translate(-1046.918 -171.646)" fill-rule="evenodd"/>
      <path id="Caminho_1044" data-name="Caminho 1044" d="M1416.67,208.33h7.336v7.338h-7.336Z" transform="translate(-1218.573 -171.646)" fill-rule="evenodd"/>
      <path id="Caminho_1045" data-name="Caminho 1045" d="M416.67,250h7.336v7.338H416.67Z" transform="translate(-394.659 -205.978)" fill-rule="evenodd"/>
      <path id="Caminho_1046" data-name="Caminho 1046" d="M1250,250h7.338v7.338H1250Z" transform="translate(-1081.251 -205.978)" fill-rule="evenodd"/>
      <path id="Caminho_1047" data-name="Caminho 1047" d="M1458.33,250h7.338v7.338h-7.338Z" transform="translate(-1252.896 -205.978)" fill-rule="evenodd"/>
      <path id="Caminho_1048" data-name="Caminho 1048" d="M458.33,291.67h7.338v7.336H458.33Z" transform="translate(-428.983 -240.311)" fill-rule="evenodd"/>
      <path id="Caminho_1049" data-name="Caminho 1049" d="M1291.67,291.67h7.336v7.336h-7.336Z" transform="translate(-1115.583 -240.311)" fill-rule="evenodd"/>
      <path id="Caminho_1050" data-name="Caminho 1050" d="M1500,291.67h7.338v7.336H1500Z" transform="translate(-1287.229 -240.311)" fill-rule="evenodd"/>
      <path id="Caminho_1051" data-name="Caminho 1051" d="M500,333.33h7.338v7.338H500Z" transform="translate(-463.316 -274.635)" fill-rule="evenodd"/>
      <path id="Caminho_1052" data-name="Caminho 1052" d="M1333.33,333.33h7.338v7.338h-7.338Z" transform="translate(-1149.907 -274.635)" fill-rule="evenodd"/>
      <path id="Caminho_1053" data-name="Caminho 1053" d="M1541.67,333.33h7.336v7.338h-7.336Z" transform="translate(-1321.561 -274.635)" fill-rule="evenodd"/>
      <path id="Caminho_1054" data-name="Caminho 1054" d="M541.67,375h7.336v7.338H541.67Z" transform="translate(-497.648 -308.967)" fill-rule="evenodd"/>
      <path id="Caminho_1055" data-name="Caminho 1055" d="M1375,375h7.338v7.338H1375Z" transform="translate(-1184.24 -308.967)" fill-rule="evenodd"/>
      <path id="Caminho_1056" data-name="Caminho 1056" d="M1583.33,375h7.338v7.338h-7.338Z" transform="translate(-1355.885 -308.967)" fill-rule="evenodd"/>
      <path id="Caminho_1057" data-name="Caminho 1057" d="M583.33,416.67h7.338v7.336H583.33Z" transform="translate(-531.973 -343.3)" fill-rule="evenodd"/>
      <path id="Caminho_1058" data-name="Caminho 1058" d="M1416.67,416.67h7.336v7.336h-7.336Z" transform="translate(-1218.573 -343.3)" fill-rule="evenodd"/>
      <path id="Caminho_1059" data-name="Caminho 1059" d="M1625,416.67h7.338v7.336H1625Z" transform="translate(-1390.218 -343.3)" fill-rule="evenodd"/>
      <path id="Caminho_1060" data-name="Caminho 1060" d="M625,458.33h7.338v7.338H625Z" transform="translate(-566.305 -377.624)" fill-rule="evenodd"/>
      <path id="Caminho_1061" data-name="Caminho 1061" d="M1458.33,458.33h7.338v7.338h-7.338Z" transform="translate(-1252.896 -377.624)" fill-rule="evenodd"/>
      <path id="Caminho_1062" data-name="Caminho 1062" d="M1666.67,458.33h7.336v14.675h-7.336V458.33Z" transform="translate(-1424.55 -377.624)" fill-rule="evenodd"/>
      <path id="Caminho_1063" data-name="Caminho 1063" d="M666.67,500h7.336v7.338H666.67Z" transform="translate(-600.637 -411.957)" fill-rule="evenodd"/>
      <path id="Caminho_1064" data-name="Caminho 1064" d="M1500,500h7.338v7.338H1500Z" transform="translate(-1287.229 -411.957)" fill-rule="evenodd"/>
      <path id="Caminho_1065" data-name="Caminho 1065" d="M708.33,541.67h7.338v7.336H708.33Z" transform="translate(-634.962 -446.289)" fill-rule="evenodd"/>
      <path id="Caminho_1066" data-name="Caminho 1066" d="M1541.67,541.67h7.336v7.336h-7.336Z" transform="translate(-1321.561 -446.289)" fill-rule="evenodd"/>
      <path id="Caminho_1067" data-name="Caminho 1067" d="M1708.33,541.67h7.338v29.347h-7.338Z" transform="translate(-1458.875 -446.289)" fill-rule="evenodd"/>
      <path id="Caminho_1068" data-name="Caminho 1068" d="M750,583.33h7.338v7.338H750Z" transform="translate(-669.294 -480.613)" fill-rule="evenodd"/>
      <path id="Caminho_1069" data-name="Caminho 1069" d="M1583.33,583.33h7.338v7.338h-7.338Z" transform="translate(-1355.885 -480.613)" fill-rule="evenodd"/>
      <path id="Caminho_1070" data-name="Caminho 1070" d="M688.681,625h7.336v7.338H798.735v7.336H666.67v-7.336h22.011Z" transform="translate(-600.637 -514.946)" fill-rule="evenodd"/>
      <path id="Caminho_1071" data-name="Caminho 1071" d="M1453.354,625h7.338v14.673h7.336v22.011h-7.336v80.708h-7.338V661.684h-29.348v-7.336h36.686v-7.338H1416.67v-7.338h36.684V625Z" transform="translate(-1218.573 -514.946)" fill-rule="evenodd"/>
      <path id="Caminho_1072" data-name="Caminho 1072" d="M416.67,715.667V708.33h44.022v7.338Z" transform="translate(-394.659 -583.602)" fill-rule="evenodd"/>
      <path id="Caminho_1073" data-name="Caminho 1073" d="M382.338,750v7.338h36.684v7.336H389.673v14.675h-7.336V764.673H375V750Z" transform="translate(-360.327 -617.935)" fill-rule="evenodd"/>
      <path id="Caminho_1074" data-name="Caminho 1074" d="M666.67,750H798.735v7.338H666.67Z" transform="translate(-600.637 -617.935)" fill-rule="evenodd"/>
      <path id="Caminho_1075" data-name="Caminho 1075" d="M625,833.33H771.738v7.337H625Z" transform="translate(-566.305 -686.592)" fill-rule="evenodd"/>
      <path id="Caminho_1076" data-name="Caminho 1076" d="M458.33,916.67h7.338v88.044H458.33V916.67Z" transform="translate(-428.983 -755.256)" fill-rule="evenodd"/>
      <path id="Caminho_1077" data-name="Caminho 1077" d="M1590.667,1291.67V1357.7h-7.338V1291.67Z" transform="translate(-1355.885 -1064.224)" fill-rule="evenodd"/>
      <path id="Caminho_1078" data-name="Caminho 1078" d="M500,1416.67h7.338v88.043H500V1416.67Z" transform="translate(-463.316 -1167.213)" fill-rule="evenodd"/>
      <path id="Caminho_1079" data-name="Caminho 1079" d="M750,1674.006v-7.336h36.684v7.336H750Z" transform="translate(-669.294 -1373.191)" fill-rule="evenodd"/>
      <path id="Caminho_1080" data-name="Caminho 1080" d="M1416.67,1674.006v-7.336h29.347v14.673h-7.336v-7.338H1416.67Z" transform="translate(-1218.573 -1373.191)" fill-rule="evenodd"/>
      <path id="Caminho_1081" data-name="Caminho 1081" d="M715.667,1708.33v29.348H708.33V1708.33Z" transform="translate(-634.962 -1407.516)" fill-rule="evenodd"/>
      <path id="Caminho_1082" data-name="Caminho 1082" d="M958.33,1708.33h7.338v29.348H958.33V1708.33Z" transform="translate(-840.94 -1407.516)" fill-rule="evenodd"/>
      <path id="Caminho_1083" data-name="Caminho 1083" d="M1382.338,1708.33v14.675H1375V1708.33Z" transform="translate(-1184.24 -1407.516)" fill-rule="evenodd"/>
      <path id="Caminho_1084" data-name="Caminho 1084" d="M1583.33,1750h7.338v29.349h-7.338Z" transform="translate(-1355.885 -1441.848)" fill-rule="evenodd"/>
      <path id="Caminho_1085" data-name="Caminho 1085" d="M1340.668,1791.67v22.011h7.338v7.336H1333.33V1791.67Z" transform="translate(-1149.907 -1476.18)" fill-rule="evenodd"/>
      <path id="Caminho_1086" data-name="Caminho 1086" d="M605.341,1875v14.673H656.7V1875h7.338v14.673H715.4v7.338H583.33v-7.338h14.675V1875Z" transform="translate(-531.973 -1544.837)" fill-rule="evenodd"/>
      <path id="Caminho_1087" data-name="Caminho 1087" d="M541.67,1916.67h7.336v7.336H541.67Z" transform="translate(-497.648 -1579.17)" fill-rule="evenodd"/>
      <path id="Caminho_1088" data-name="Caminho 1088" d="M1541.67,1924.006v-7.336h7.336v7.336Z" transform="translate(-1321.561 -1579.17)" fill-rule="evenodd"/>
      <path id="Caminho_1089" data-name="Caminho 1089" d="M1416.67,1965.667v-7.338h22.011v7.338Z" transform="translate(-1218.573 -1613.494)" fill-rule="evenodd"/>
    </g>
    <g id="Grupo_130" data-name="Grupo 130" transform="translate(313.681 29.348)">
      <path id="Caminho_1090" data-name="Caminho 1090" d="M416.67,174.006V166.67H548.735v7.336h7.336v7.338h7.338v7.338h7.338v7.336h7.336v7.338h7.338v7.338h7.338v7.336h7.336v7.338h7.338V232.7h7.338v7.336H622.1v7.338h7.338v14.673H592.757v-7.336H497.376v-7.338h-7.338v-7.338H482.7V232.7h-7.337v-7.338h-7.338v-7.338h-7.336v-7.336h-7.338v-7.338h-7.338v-7.338h-7.336v-7.336h-7.337v-7.338h-7.338v-7.338Z" transform="translate(-416.67 -166.67)" fill="#1c293d" fill-rule="evenodd"/>
    </g>
    <g id="Grupo_131" data-name="Grupo 131" transform="translate(313.681 132.065)">
      <path id="Caminho_1091" data-name="Caminho 1091" d="M416.67,757.338V750h44.022v7.338H416.67Z" transform="translate(-416.67 -750)" fill="#447654" fill-rule="evenodd"/>
      <path id="Caminho_1092" data-name="Caminho 1092" d="M1416.67,750h22.011v7.338H1416.67Z" transform="translate(-1240.583 -750)" fill="#447654" fill-rule="evenodd"/>
      <path id="Caminho_1093" data-name="Caminho 1093" d="M750,799.006V791.67h73.37v7.336H750Z" transform="translate(-691.305 -784.332)" fill="#447654" fill-rule="evenodd"/>
    </g>
    <g id="Grupo_132" data-name="Grupo 132" transform="translate(350.365 124.728)">
      <path id="Caminho_1094" data-name="Caminho 1094" d="M666.67,708.33H798.735v7.338H666.67Z" transform="translate(-659.332 -708.33)" fill="#274431" fill-rule="evenodd"/>
      <path id="Caminho_1095" data-name="Caminho 1095" d="M1563.681,750v7.338H1541.67V750Z" transform="translate(-1380.256 -742.662)" fill="#274431" fill-rule="evenodd"/>
      <path id="Caminho_1096" data-name="Caminho 1096" d="M625,791.67h22.011v7.336H625Z" transform="translate(-625 -776.995)" fill="#274431" fill-rule="evenodd"/>
      <path id="Caminho_1097" data-name="Caminho 1097" d="M1166.67,799.006V791.67h51.357v7.336Z" transform="translate(-1071.289 -776.995)" fill="#274431" fill-rule="evenodd"/>
    </g>
    <g id="Grupo_133" data-name="Grupo 133" transform="translate(489.768 308.152)">
      <path id="Caminho_1098" data-name="Caminho 1098" d="M1424.006,1750h7.338v22.011h-7.338v7.338h-7.336v-22.011h7.336Z" transform="translate(-1416.67 -1750)" fill="#685a4f" fill-rule="evenodd"/>
    </g>
    <g id="Grupo_134" data-name="Grupo 134" transform="translate(482.43 300.814)">
      <path id="Caminho_1099" data-name="Caminho 1099" d="M1416.67,1708.33h22.011v7.338h7.336v29.348h-7.336v7.336H1416.67v-7.336h7.336v-7.338h7.338v-22.011h-7.338v7.338h-7.336Z" transform="translate(-1409.333 -1708.33)" fill="#4b3c30" fill-rule="evenodd"/>
      <path id="Caminho_1100" data-name="Caminho 1100" d="M1375,1791.67h7.338v22.011H1375Z" transform="translate(-1375 -1776.995)" fill="#4b3c30" fill-rule="evenodd"/>
    </g>
    <g id="Grupo_135" data-name="Grupo 135" transform="translate(365.038 161.414)">
      <path id="Caminho_1101" data-name="Caminho 1101" d="M833.33,924.006V916.67h7.337v7.336Z" transform="translate(-811.319 -916.67)" fill="#d7f7ff" fill-rule="evenodd"/>
      <path id="Caminho_1102" data-name="Caminho 1102" d="M799.006,958.33v14.675H791.67V958.33Z" transform="translate(-776.995 -950.994)" fill="#d7f7ff" fill-rule="evenodd"/>
      <path id="Caminho_1103" data-name="Caminho 1103" d="M875,958.33h7.338v14.675H875V958.33Z" transform="translate(-845.651 -950.994)" fill="#d7f7ff" fill-rule="evenodd"/>
      <path id="Caminho_1104" data-name="Caminho 1104" d="M750,1090.668v-7.338h7.338v7.338Z" transform="translate(-742.662 -1053.983)" fill="#d7f7ff" fill-rule="evenodd"/>
      <path id="Caminho_1105" data-name="Caminho 1105" d="M924.006,1090.668H916.67v-7.338h7.336Z" transform="translate(-879.984 -1053.983)" fill="#d7f7ff" fill-rule="evenodd"/>
      <path id="Caminho_1106" data-name="Caminho 1106" d="M708.33,1125h7.338v7.338h14.673v7.336H708.33V1125Z" transform="translate(-708.33 -1088.316)" fill="#d7f7ff" fill-rule="evenodd"/>
      <path id="Caminho_1107" data-name="Caminho 1107" d="M889.673,1125h7.338v14.673H875v-7.336h14.673Z" transform="translate(-845.651 -1088.316)" fill="#d7f7ff" fill-rule="evenodd"/>
    </g>
    <g id="Grupo_136" data-name="Grupo 136" transform="translate(299.006 7.338)">
      <path id="Caminho_1108" data-name="Caminho 1108" d="M355.341,41.67h139.4v7.336h-7.338v7.338H333.33V49.006h22.011Z" transform="translate(-333.33 -41.67)" fill="#638fd2" fill-rule="evenodd"/>
      <path id="Caminho_1109" data-name="Caminho 1109" d="M558.7,889.673h-7.338v14.675H558.7V889.673h7.338v14.675h7.338V889.673h-7.338v-7.338h58.7v88.045h-7.337v88.043H595.381v-7.337h-7.338v-29.349h-7.338V1014.4H544.022v7.338h-7.337v29.349h-7.338v7.337H507.338V970.379H500V875h22.011v7.338H558.7v7.336Zm-14.673,29.348h-7.337V933.7H558.7v-7.338H544.022v-7.338h7.338v-7.338h-7.338v7.338Zm36.684,0v7.338H566.033V933.7h22.011V919.022h-7.338v-7.338h-7.338v7.338Z" transform="translate(-470.652 -728.261)" fill="#638fd2" fill-rule="evenodd"/>
      <path id="Caminho_1110" data-name="Caminho 1110" d="M786.684,1813.681H750v-7.337h7.338V1791.67h29.347v22.011Z" transform="translate(-676.63 -1483.518)" fill="#638fd2" fill-rule="evenodd"/>
    </g>
    <g id="Grupo_137" data-name="Grupo 137" transform="translate(299.006 14.673)">
      <path id="Caminho_1111" data-name="Caminho 1111" d="M1174.006,83.33h14.675v7.338h7.336v7.338h7.337v7.336h7.338v7.338h7.336v7.338h7.338v7.336h7.337v7.338h7.336v7.338h7.338v7.336h7.337v14.675h7.336v29.347h-7.336V178.711h-7.337v-7.338h-7.338v-7.336H1232.7V156.7h-7.337v-7.338h-7.338v-7.336h-7.336v-7.338h-7.338v-7.338h-7.337v-7.336h-7.336v-7.338h-7.338v-7.338h-7.338V98.005h-7.336V90.668h7.336Z" transform="translate(-1019.93 -83.33)" fill="#3d6aae" fill-rule="evenodd"/>
      <path id="Caminho_1112" data-name="Caminho 1112" d="M333.33,132.338V125h7.338v7.338Z" transform="translate(-333.33 -117.662)" fill="#3d6aae" fill-rule="evenodd"/>
      <path id="Caminho_1113" data-name="Caminho 1113" d="M375,166.67h7.338v7.336H375Z" transform="translate(-367.662 -151.995)" fill="#3d6aae" fill-rule="evenodd"/>
      <path id="Caminho_1114" data-name="Caminho 1114" d="M416.67,208.33h7.336v7.338H416.67Z" transform="translate(-401.995 -186.319)" fill="#3d6aae" fill-rule="evenodd"/>
      <path id="Caminho_1115" data-name="Caminho 1115" d="M458.33,250h7.338v7.338H458.33Z" transform="translate(-436.319 -220.652)" fill="#3d6aae" fill-rule="evenodd"/>
      <path id="Caminho_1116" data-name="Caminho 1116" d="M500,291.67h7.338v7.336H500Z" transform="translate(-470.652 -254.984)" fill="#3d6aae" fill-rule="evenodd"/>
      <path id="Caminho_1117" data-name="Caminho 1117" d="M541.67,333.33h7.336v7.338H541.67Z" transform="translate(-504.984 -289.308)" fill="#3d6aae" fill-rule="evenodd"/>
      <path id="Caminho_1118" data-name="Caminho 1118" d="M583.33,375h7.338v7.338H583.33Z" transform="translate(-539.308 -323.641)" fill="#3d6aae" fill-rule="evenodd"/>
      <path id="Caminho_1119" data-name="Caminho 1119" d="M625,416.67h7.338v7.336H625Z" transform="translate(-573.641 -357.973)" fill="#3d6aae" fill-rule="evenodd"/>
      <path id="Caminho_1120" data-name="Caminho 1120" d="M666.67,458.33h7.336v7.338H666.67Z" transform="translate(-607.973 -392.297)" fill="#3d6aae" fill-rule="evenodd"/>
      <path id="Caminho_1121" data-name="Caminho 1121" d="M708.33,500h7.338v7.338H708.33Z" transform="translate(-642.297 -426.63)" fill="#3d6aae" fill-rule="evenodd"/>
      <path id="Caminho_1122" data-name="Caminho 1122" d="M750,541.67h7.338v7.336H750Z" transform="translate(-676.63 -460.962)" fill="#3d6aae" fill-rule="evenodd"/>
      <path id="Caminho_1123" data-name="Caminho 1123" d="M791.67,583.33h7.336v7.338H791.67Z" transform="translate(-710.962 -495.287)" fill="#3d6aae" fill-rule="evenodd"/>
      <path id="Caminho_1124" data-name="Caminho 1124" d="M833.33,625h7.337v7.338H833.33Z" transform="translate(-745.287 -529.619)" fill="#3d6aae" fill-rule="evenodd"/>
      <path id="Caminho_1125" data-name="Caminho 1125" d="M487.678,840.668H465.668v7.338H458.33V833.33h29.348Z" transform="translate(-436.319 -701.265)" fill="#3d6aae" fill-rule="evenodd"/>
      <path id="Caminho_1126" data-name="Caminho 1126" d="M749.728,1031.428H698.37v-7.336h22.011V936.049h7.336V848.005H625v-7.338H771.738V833.33h29.348v80.708h-7.338V980.07H764.4v7.336h-7.338v14.675h-7.338v29.347Z" transform="translate(-573.641 -701.265)" fill="#3d6aae" fill-rule="evenodd"/>
      <path id="Caminho_1127" data-name="Caminho 1127" d="M750,1737.678V1708.33h36.684v14.675H757.338v14.673Z" transform="translate(-676.63 -1422.189)" fill="#3d6aae" fill-rule="evenodd"/>
      <path id="Caminho_1128" data-name="Caminho 1128" d="M715.667,1875v7.338h36.684V1875h7.337v14.673H708.33V1875Z" transform="translate(-642.297 -1559.51)" fill="#3d6aae" fill-rule="evenodd"/>
      <path id="Caminho_1129" data-name="Caminho 1129" d="M583.33,1924.006v-7.336h14.675v7.336Z" transform="translate(-539.308 -1593.843)" fill="#3d6aae" fill-rule="evenodd"/>
    </g>
  </g>
</svg>
