<svg xmlns="http://www.w3.org/2000/svg" xmlns:xlink="http://www.w3.org/1999/xlink" width="176" height="176" viewBox="0 0 176 176">
  <defs>
    <clipPath id="clip-path">
      <rect width="88" height="176" fill="none"/>
    </clipPath>
    <clipPath id="clip-path-2">
      <rect x="725" width="88" height="176" fill="none"/>
    </clipPath>
  </defs>
  <g id="Grupo_314" data-name="Grupo 314" transform="translate(-7503 -1418)">
    <g id="Grupo_de_rolagem_2" data-name="Grupo de rolagem 2" transform="translate(7503 1418)" clip-path="url(#clip-path)" style="isolation: isolate">
      <g id="Grupo_312" data-name="Grupo 312" transform="translate(-432 -384)">
        <rect id="Retângulo_668" data-name="Retângulo 668" width="16" height="16" transform="translate(1197 400)"/>
        <rect id="Retângulo_685" data-name="Retângulo 685" width="16" height="16" transform="translate(464 400)"/>
        <rect id="Retângulo_686" data-name="Retângulo 686" width="16" height="16" transform="translate(464 528)"/>
        <rect id="Retângulo_677" data-name="Retângulo 677" width="717" height="16" transform="translate(480 384)"/>
        <rect id="Retângulo_688" data-name="Retângulo 688" width="717" height="16" transform="translate(480 544)"/>
        <rect id="Retângulo_669" data-name="Retângulo 669" width="16" height="16" transform="translate(1213 416)"/>
        <rect id="Retângulo_683" data-name="Retângulo 683" width="16" height="16" transform="translate(448 416)"/>
        <rect id="Retângulo_670" data-name="Retângulo 670" width="16" height="16" transform="translate(1213 432)"/>
        <rect id="Retângulo_680" data-name="Retângulo 680" width="16" height="16" transform="translate(448 432)"/>
        <rect id="Retângulo_671" data-name="Retângulo 671" width="16" height="16" transform="translate(1229 448)"/>
        <rect id="Retângulo_681" data-name="Retângulo 681" width="16" height="16" transform="translate(432 448)"/>
        <rect id="Retângulo_672" data-name="Retângulo 672" width="16" height="16" transform="translate(1229 464)"/>
        <rect id="Retângulo_678" data-name="Retângulo 678" width="16" height="16" transform="translate(432 464)"/>
        <rect id="Retângulo_673" data-name="Retângulo 673" width="16" height="16" transform="translate(1229 480)"/>
        <rect id="Retângulo_679" data-name="Retângulo 679" width="16" height="16" transform="translate(432 480)"/>
        <rect id="Retângulo_674" data-name="Retângulo 674" width="16" height="16" transform="translate(1213 496)"/>
        <rect id="Retângulo_682" data-name="Retângulo 682" width="16" height="16" transform="translate(448 496)"/>
        <rect id="Retângulo_675" data-name="Retângulo 675" width="16" height="16" transform="translate(1213 512)"/>
        <rect id="Retângulo_687" data-name="Retângulo 687" width="16" height="16" transform="translate(1197 528)"/>
        <rect id="Retângulo_684" data-name="Retângulo 684" width="16" height="16" transform="translate(448 512)"/>
      </g>
    </g>
    <g id="Grupo_de_rolagem_3" data-name="Grupo de rolagem 3" transform="translate(6866 1418)" clip-path="url(#clip-path-2)" style="isolation: isolate">
      <g id="Grupo_313" data-name="Grupo 313" transform="translate(-432 -384)">
        <rect id="Retângulo_774" data-name="Retângulo 774" width="16" height="16" transform="translate(1197 400)"/>
        <rect id="Retângulo_775" data-name="Retângulo 775" width="16" height="16" transform="translate(464 400)"/>
        <rect id="Retângulo_776" data-name="Retângulo 776" width="16" height="16" transform="translate(464 528)"/>
        <rect id="Retângulo_777" data-name="Retângulo 777" width="717" height="16" transform="translate(480 384)"/>
        <rect id="Retângulo_778" data-name="Retângulo 778" width="717" height="16" transform="translate(480 544)"/>
        <rect id="Retângulo_779" data-name="Retângulo 779" width="16" height="16" transform="translate(1213 416)"/>
        <rect id="Retângulo_780" data-name="Retângulo 780" width="16" height="16" transform="translate(448 416)"/>
        <rect id="Retângulo_781" data-name="Retângulo 781" width="16" height="16" transform="translate(1213 432)"/>
        <rect id="Retângulo_782" data-name="Retângulo 782" width="16" height="16" transform="translate(448 432)"/>
        <rect id="Retângulo_783" data-name="Retângulo 783" width="16" height="16" transform="translate(1229 448)"/>
        <rect id="Retângulo_784" data-name="Retângulo 784" width="16" height="16" transform="translate(432 448)"/>
        <rect id="Retângulo_785" data-name="Retângulo 785" width="16" height="16" transform="translate(1229 464)"/>
        <rect id="Retângulo_786" data-name="Retângulo 786" width="16" height="16" transform="translate(432 464)"/>
        <rect id="Retângulo_787" data-name="Retângulo 787" width="16" height="16" transform="translate(1229 480)"/>
        <rect id="Retângulo_788" data-name="Retângulo 788" width="16" height="16" transform="translate(432 480)"/>
        <rect id="Retângulo_789" data-name="Retângulo 789" width="16" height="16" transform="translate(1213 496)"/>
        <rect id="Retângulo_790" data-name="Retângulo 790" width="16" height="16" transform="translate(448 496)"/>
        <rect id="Retângulo_791" data-name="Retângulo 791" width="16" height="16" transform="translate(1213 512)"/>
        <rect id="Retângulo_792" data-name="Retângulo 792" width="16" height="16" transform="translate(1197 528)"/>
        <rect id="Retângulo_793" data-name="Retângulo 793" width="16" height="16" transform="translate(448 512)"/>
      </g>
    </g>
  </g>
</svg>
