<svg xmlns="http://www.w3.org/2000/svg" xmlns:xlink="http://www.w3.org/1999/xlink" width="176" height="176" viewBox="0 0 176 176">
  <defs>
    <clipPath id="clip-path">
      <rect width="88" height="176" fill="none"/>
    </clipPath>
    <clipPath id="clip-path-2">
      <rect x="725" width="88" height="176" fill="none"/>
    </clipPath>
  </defs>
  <g id="Grupo_319" data-name="Grupo 319" transform="translate(-7503 -1624)">
    <g id="Grupo_de_rolagem_4" data-name="Grupo de rolagem 4" transform="translate(7503 1624)" clip-path="url(#clip-path)" style="isolation: isolate">
      <g id="Grupo_315" data-name="Grupo 315" transform="translate(-503 -1200)">
        <g id="Grupo_95" data-name="Grupo 95" transform="translate(71 816)">
          <rect id="Retângulo_668" data-name="Retângulo 668" width="16" height="16" transform="translate(1197 400)"/>
          <rect id="Retângulo_685" data-name="Retângulo 685" width="16" height="16" transform="translate(464 400)"/>
          <rect id="Retângulo_686" data-name="Retângulo 686" width="16" height="16" transform="translate(464 528)"/>
          <rect id="Retângulo_677" data-name="Retângulo 677" width="717" height="16" transform="translate(480 384)"/>
          <rect id="Retângulo_688" data-name="Retângulo 688" width="717" height="16" transform="translate(480 544)"/>
          <rect id="Retângulo_669" data-name="Retângulo 669" width="16" height="16" transform="translate(1213 416)"/>
          <rect id="Retângulo_683" data-name="Retângulo 683" width="16" height="16" transform="translate(448 416)"/>
          <rect id="Retângulo_670" data-name="Retângulo 670" width="16" height="16" transform="translate(1213 432)"/>
          <rect id="Retângulo_680" data-name="Retângulo 680" width="16" height="16" transform="translate(448 432)"/>
          <rect id="Retângulo_671" data-name="Retângulo 671" width="16" height="16" transform="translate(1229 448)"/>
          <rect id="Retângulo_681" data-name="Retângulo 681" width="16" height="16" transform="translate(432 448)"/>
          <rect id="Retângulo_672" data-name="Retângulo 672" width="16" height="16" transform="translate(1229 464)"/>
          <rect id="Retângulo_678" data-name="Retângulo 678" width="16" height="16" transform="translate(432 464)"/>
          <rect id="Retângulo_673" data-name="Retângulo 673" width="16" height="16" transform="translate(1229 480)"/>
          <rect id="Retângulo_679" data-name="Retângulo 679" width="16" height="16" transform="translate(432 480)"/>
          <rect id="Retângulo_674" data-name="Retângulo 674" width="16" height="16" transform="translate(1213 496)"/>
          <rect id="Retângulo_682" data-name="Retângulo 682" width="16" height="16" transform="translate(448 496)"/>
          <rect id="Retângulo_675" data-name="Retângulo 675" width="16" height="16" transform="translate(1213 512)"/>
          <rect id="Retângulo_687" data-name="Retângulo 687" width="16" height="16" transform="translate(1197 528)"/>
          <rect id="Retângulo_684" data-name="Retângulo 684" width="16" height="16" transform="translate(448 512)"/>
        </g>
        <path id="Caminho_1031" data-name="Caminho 1031" d="M7249,3240v16h-16v32h-16v48h16v32h16v16s716.855.027,717.019,0,0-16,0-16h16.01v-32H7998v-48h-15.97v-32H7965.9v-16Z" transform="translate(-6698 -2024)" fill="#c81c09"/>
        <g id="Grupo_97" data-name="Grupo 97" transform="translate(-1081 712)">
          <rect id="Retângulo_689" data-name="Retângulo 689" width="16" height="48" transform="translate(1600 552)" fill="#8a1c09"/>
          <rect id="Retângulo_690" data-name="Retângulo 690" width="16" height="32" transform="translate(1616 600)" fill="#8a1c09"/>
          <rect id="Retângulo_691" data-name="Retângulo 691" width="16" height="16" transform="translate(1632 632)" fill="#8a1c09"/>
        </g>
      </g>
    </g>
    <g id="Grupo_de_rolagem_5" data-name="Grupo de rolagem 5" transform="translate(6866 1624)" clip-path="url(#clip-path-2)" style="isolation: isolate">
      <g id="Grupo_318" data-name="Grupo 318" transform="translate(-503 -1200)">
        <g id="Grupo_316" data-name="Grupo 316" transform="translate(71 816)">
          <rect id="Retângulo_794" data-name="Retângulo 794" width="16" height="16" transform="translate(1197 400)"/>
          <rect id="Retângulo_795" data-name="Retângulo 795" width="16" height="16" transform="translate(464 400)"/>
          <rect id="Retângulo_796" data-name="Retângulo 796" width="16" height="16" transform="translate(464 528)"/>
          <rect id="Retângulo_797" data-name="Retângulo 797" width="717" height="16" transform="translate(480 384)"/>
          <rect id="Retângulo_798" data-name="Retângulo 798" width="717" height="16" transform="translate(480 544)"/>
          <rect id="Retângulo_799" data-name="Retângulo 799" width="16" height="16" transform="translate(1213 416)"/>
          <rect id="Retângulo_800" data-name="Retângulo 800" width="16" height="16" transform="translate(448 416)"/>
          <rect id="Retângulo_801" data-name="Retângulo 801" width="16" height="16" transform="translate(1213 432)"/>
          <rect id="Retângulo_802" data-name="Retângulo 802" width="16" height="16" transform="translate(448 432)"/>
          <rect id="Retângulo_803" data-name="Retângulo 803" width="16" height="16" transform="translate(1229 448)"/>
          <rect id="Retângulo_804" data-name="Retângulo 804" width="16" height="16" transform="translate(432 448)"/>
          <rect id="Retângulo_805" data-name="Retângulo 805" width="16" height="16" transform="translate(1229 464)"/>
          <rect id="Retângulo_806" data-name="Retângulo 806" width="16" height="16" transform="translate(432 464)"/>
          <rect id="Retângulo_807" data-name="Retângulo 807" width="16" height="16" transform="translate(1229 480)"/>
          <rect id="Retângulo_808" data-name="Retângulo 808" width="16" height="16" transform="translate(432 480)"/>
          <rect id="Retângulo_809" data-name="Retângulo 809" width="16" height="16" transform="translate(1213 496)"/>
          <rect id="Retângulo_810" data-name="Retângulo 810" width="16" height="16" transform="translate(448 496)"/>
          <rect id="Retângulo_811" data-name="Retângulo 811" width="16" height="16" transform="translate(1213 512)"/>
          <rect id="Retângulo_812" data-name="Retângulo 812" width="16" height="16" transform="translate(1197 528)"/>
          <rect id="Retângulo_813" data-name="Retângulo 813" width="16" height="16" transform="translate(448 512)"/>
        </g>
        <path id="Caminho_2234" data-name="Caminho 2234" d="M7249,3240v16h-16v32h-16v48h16v32h16v16s716.855.027,717.019,0,0-16,0-16h16.01v-32H7998v-48h-15.97v-32H7965.9v-16Z" transform="translate(-6698 -2024)" fill="#c81c09"/>
        <g id="Grupo_317" data-name="Grupo 317" transform="translate(-1081 712)">
          <rect id="Retângulo_814" data-name="Retângulo 814" width="16" height="48" transform="translate(1600 552)" fill="#8a1c09"/>
          <rect id="Retângulo_815" data-name="Retângulo 815" width="16" height="32" transform="translate(1616 600)" fill="#8a1c09"/>
          <rect id="Retângulo_816" data-name="Retângulo 816" width="16" height="16" transform="translate(1632 632)" fill="#8a1c09"/>
        </g>
      </g>
    </g>
  </g>
</svg>
